<svg width="315" height="90" viewBox="0 0 315 90" fill="none" xmlns="http://www.w3.org/2000/svg">
<rect opacity="0.1" width="315" height="90" rx="20" fill="#045B62"/>
<path opacity="0.8" d="M90.328 37L88.336 33.58H87.016V37H85.924V28.636H88.624C89.256 28.636 89.788 28.744 90.22 28.96C90.66 29.176 90.988 29.468 91.204 29.836C91.42 30.204 91.528 30.624 91.528 31.096C91.528 31.672 91.36 32.18 91.024 32.62C90.696 33.06 90.2 33.352 89.536 33.496L91.636 37H90.328ZM87.016 32.704H88.624C89.216 32.704 89.66 32.56 89.956 32.272C90.252 31.976 90.4 31.584 90.4 31.096C90.4 30.6 90.252 30.216 89.956 29.944C89.668 29.672 89.224 29.536 88.624 29.536H87.016V32.704ZM99.2248 33.46C99.2248 33.668 99.2128 33.888 99.1888 34.12H93.9328C93.9728 34.768 94.1928 35.276 94.5928 35.644C95.0008 36.004 95.4928 36.184 96.0688 36.184C96.5408 36.184 96.9328 36.076 97.2448 35.86C97.5648 35.636 97.7888 35.34 97.9168 34.972H99.0928C98.9168 35.604 98.5648 36.12 98.0368 36.52C97.5088 36.912 96.8528 37.108 96.0688 37.108C95.4448 37.108 94.8848 36.968 94.3888 36.688C93.9008 36.408 93.5168 36.012 93.2368 35.5C92.9568 34.98 92.8168 34.38 92.8168 33.7C92.8168 33.02 92.9528 32.424 93.2248 31.912C93.4968 31.4 93.8768 31.008 94.3648 30.736C94.8608 30.456 95.4288 30.316 96.0688 30.316C96.6928 30.316 97.2448 30.452 97.7248 30.724C98.2048 30.996 98.5728 31.372 98.8288 31.852C99.0928 32.324 99.2248 32.86 99.2248 33.46ZM98.0968 33.232C98.0968 32.816 98.0048 32.46 97.8208 32.164C97.6368 31.86 97.3848 31.632 97.0648 31.48C96.7528 31.32 96.4048 31.24 96.0208 31.24C95.4688 31.24 94.9968 31.416 94.6048 31.768C94.2208 32.12 94.0008 32.608 93.9448 33.232H98.0968ZM108.574 30.304C109.086 30.304 109.542 30.412 109.942 30.628C110.342 30.836 110.658 31.152 110.89 31.576C111.122 32 111.238 32.516 111.238 33.124V37H110.158V33.28C110.158 32.624 109.994 32.124 109.666 31.78C109.346 31.428 108.91 31.252 108.358 31.252C107.79 31.252 107.338 31.436 107.002 31.804C106.666 32.164 106.498 32.688 106.498 33.376V37H105.418V33.28C105.418 32.624 105.254 32.124 104.926 31.78C104.606 31.428 104.17 31.252 103.618 31.252C103.05 31.252 102.598 31.436 102.262 31.804C101.926 32.164 101.758 32.688 101.758 33.376V37H100.666V30.424H101.758V31.372C101.974 31.028 102.262 30.764 102.622 30.58C102.99 30.396 103.394 30.304 103.834 30.304C104.386 30.304 104.874 30.428 105.298 30.676C105.722 30.924 106.038 31.288 106.246 31.768C106.43 31.304 106.734 30.944 107.158 30.688C107.582 30.432 108.054 30.304 108.574 30.304ZM113.593 29.356C113.385 29.356 113.209 29.284 113.065 29.14C112.921 28.996 112.849 28.82 112.849 28.612C112.849 28.404 112.921 28.228 113.065 28.084C113.209 27.94 113.385 27.868 113.593 27.868C113.793 27.868 113.961 27.94 114.097 28.084C114.241 28.228 114.313 28.404 114.313 28.612C114.313 28.82 114.241 28.996 114.097 29.14C113.961 29.284 113.793 29.356 113.593 29.356ZM114.121 30.424V37H113.029V30.424H114.121ZM119.187 30.304C119.987 30.304 120.635 30.548 121.131 31.036C121.627 31.516 121.875 32.212 121.875 33.124V37H120.795V33.28C120.795 32.624 120.631 32.124 120.303 31.78C119.975 31.428 119.527 31.252 118.959 31.252C118.383 31.252 117.923 31.432 117.579 31.792C117.243 32.152 117.075 32.676 117.075 33.364V37H115.983V30.424H117.075V31.36C117.291 31.024 117.583 30.764 117.951 30.58C118.327 30.396 118.739 30.304 119.187 30.304ZM123.25 33.688C123.25 33.016 123.386 32.428 123.658 31.924C123.93 31.412 124.302 31.016 124.774 30.736C125.254 30.456 125.79 30.316 126.382 30.316C126.894 30.316 127.37 30.436 127.81 30.676C128.25 30.908 128.586 31.216 128.818 31.6V28.12H129.922V37H128.818V35.764C128.602 36.156 128.282 36.48 127.858 36.736C127.434 36.984 126.938 37.108 126.37 37.108C125.786 37.108 125.254 36.964 124.774 36.676C124.302 36.388 123.93 35.984 123.658 35.464C123.386 34.944 123.25 34.352 123.25 33.688ZM128.818 33.7C128.818 33.204 128.718 32.772 128.518 32.404C128.318 32.036 128.046 31.756 127.702 31.564C127.366 31.364 126.994 31.264 126.586 31.264C126.178 31.264 125.806 31.36 125.47 31.552C125.134 31.744 124.866 32.024 124.666 32.392C124.466 32.76 124.366 33.192 124.366 33.688C124.366 34.192 124.466 34.632 124.666 35.008C124.866 35.376 125.134 35.66 125.47 35.86C125.806 36.052 126.178 36.148 126.586 36.148C126.994 36.148 127.366 36.052 127.702 35.86C128.046 35.66 128.318 35.376 128.518 35.008C128.718 34.632 128.818 34.196 128.818 33.7ZM137.768 33.46C137.768 33.668 137.756 33.888 137.732 34.12H132.476C132.516 34.768 132.736 35.276 133.136 35.644C133.544 36.004 134.036 36.184 134.612 36.184C135.084 36.184 135.476 36.076 135.788 35.86C136.108 35.636 136.332 35.34 136.46 34.972H137.636C137.46 35.604 137.108 36.12 136.58 36.52C136.052 36.912 135.396 37.108 134.612 37.108C133.988 37.108 133.428 36.968 132.932 36.688C132.444 36.408 132.06 36.012 131.78 35.5C131.5 34.98 131.36 34.38 131.36 33.7C131.36 33.02 131.496 32.424 131.768 31.912C132.04 31.4 132.42 31.008 132.908 30.736C133.404 30.456 133.972 30.316 134.612 30.316C135.236 30.316 135.788 30.452 136.268 30.724C136.748 30.996 137.116 31.372 137.372 31.852C137.636 32.324 137.768 32.86 137.768 33.46ZM136.64 33.232C136.64 32.816 136.548 32.46 136.364 32.164C136.18 31.86 135.928 31.632 135.608 31.48C135.296 31.32 134.948 31.24 134.564 31.24C134.012 31.24 133.54 31.416 133.148 31.768C132.764 32.12 132.544 32.608 132.488 33.232H136.64ZM140.301 31.492C140.493 31.116 140.765 30.824 141.117 30.616C141.477 30.408 141.913 30.304 142.425 30.304V31.432H142.137C140.913 31.432 140.301 32.096 140.301 33.424V37H139.209V30.424H140.301V31.492ZM145.102 28.636L144.97 34.636H144.058L143.926 28.636H145.102ZM144.562 37.072C144.354 37.072 144.178 37 144.034 36.856C143.89 36.712 143.818 36.536 143.818 36.328C143.818 36.12 143.89 35.944 144.034 35.8C144.178 35.656 144.354 35.584 144.562 35.584C144.762 35.584 144.93 35.656 145.066 35.8C145.21 35.944 145.282 36.12 145.282 36.328C145.282 36.536 145.21 36.712 145.066 36.856C144.93 37 144.762 37.072 144.562 37.072Z" fill="#045B62"/>
<path d="M94.044 60H92.448L87.646 52.734V60H86.05V50.256H87.646L92.448 57.508V50.256H94.044V60ZM103.21 55.954C103.21 56.2433 103.191 56.5047 103.154 56.738H97.2598C97.3065 57.354 97.5352 57.8487 97.9458 58.222C98.3565 58.5953 98.8605 58.782 99.4578 58.782C100.317 58.782 100.923 58.4227 101.278 57.704H103C102.767 58.4133 102.342 58.9967 101.726 59.454C101.119 59.902 100.363 60.126 99.4578 60.126C98.7205 60.126 98.0578 59.9627 97.4698 59.636C96.8912 59.3 96.4338 58.8333 96.0978 58.236C95.7712 57.6293 95.6078 56.9293 95.6078 56.136C95.6078 55.3427 95.7665 54.6473 96.0838 54.05C96.4105 53.4433 96.8632 52.9767 97.4418 52.65C98.0298 52.3233 98.7018 52.16 99.4578 52.16C100.186 52.16 100.835 52.3187 101.404 52.636C101.973 52.9533 102.417 53.4013 102.734 53.98C103.051 54.5493 103.21 55.2073 103.21 55.954ZM101.544 55.45C101.535 54.862 101.325 54.3907 100.914 54.036C100.503 53.6813 99.9945 53.504 99.3878 53.504C98.8372 53.504 98.3658 53.6813 97.9738 54.036C97.5818 54.3813 97.3485 54.8527 97.2738 55.45H101.544ZM108.084 56.094L110.576 60H108.77L107.104 57.382L105.536 60H103.87L106.362 56.206L103.87 52.286H105.676L107.342 54.904L108.91 52.286H110.576L108.084 56.094ZM113.629 53.588V57.858C113.629 58.1473 113.694 58.3573 113.825 58.488C113.965 58.6093 114.198 58.67 114.525 58.67H115.505V60H114.245C113.526 60 112.975 59.832 112.593 59.496C112.21 59.16 112.019 58.614 112.019 57.858V53.588H111.109V52.286H112.019V50.368H113.629V52.286H115.505V53.588H113.629ZM127.417 53.168C127.417 53.6627 127.3 54.1293 127.067 54.568C126.833 55.0067 126.46 55.366 125.947 55.646C125.433 55.9167 124.775 56.052 123.973 56.052H122.209V60H120.613V50.27H123.973C124.719 50.27 125.349 50.4007 125.863 50.662C126.385 50.914 126.773 51.2593 127.025 51.698C127.286 52.1367 127.417 52.6267 127.417 53.168ZM123.973 54.75C124.579 54.75 125.032 54.6147 125.331 54.344C125.629 54.064 125.779 53.672 125.779 53.168C125.779 52.104 125.177 51.572 123.973 51.572H122.209V54.75H123.973ZM132.929 52.16C133.517 52.16 134.039 52.286 134.497 52.538C134.963 52.79 135.327 53.1633 135.589 53.658C135.859 54.1527 135.995 54.75 135.995 55.45V60H134.413V55.688C134.413 54.9973 134.24 54.47 133.895 54.106C133.549 53.7327 133.078 53.546 132.481 53.546C131.883 53.546 131.407 53.7327 131.053 54.106C130.707 54.47 130.535 54.9973 130.535 55.688V60H128.939V49.64H130.535V53.182C130.805 52.8553 131.146 52.6033 131.557 52.426C131.977 52.2487 132.434 52.16 132.929 52.16ZM141.376 60.126C140.648 60.126 139.99 59.9627 139.402 59.636C138.814 59.3 138.352 58.8333 138.016 58.236C137.68 57.6293 137.512 56.9293 137.512 56.136C137.512 55.352 137.685 54.6567 138.03 54.05C138.376 53.4433 138.847 52.9767 139.444 52.65C140.042 52.3233 140.709 52.16 141.446 52.16C142.184 52.16 142.851 52.3233 143.448 52.65C144.046 52.9767 144.517 53.4433 144.862 54.05C145.208 54.6567 145.38 55.352 145.38 56.136C145.38 56.92 145.203 57.6153 144.848 58.222C144.494 58.8287 144.008 59.3 143.392 59.636C142.786 59.9627 142.114 60.126 141.376 60.126ZM141.376 58.74C141.787 58.74 142.17 58.642 142.524 58.446C142.888 58.25 143.182 57.956 143.406 57.564C143.63 57.172 143.742 56.696 143.742 56.136C143.742 55.576 143.635 55.1047 143.42 54.722C143.206 54.33 142.921 54.036 142.566 53.84C142.212 53.644 141.829 53.546 141.418 53.546C141.008 53.546 140.625 53.644 140.27 53.84C139.925 54.036 139.65 54.33 139.444 54.722C139.239 55.1047 139.136 55.576 139.136 56.136C139.136 56.9667 139.346 57.6107 139.766 58.068C140.196 58.516 140.732 58.74 141.376 58.74ZM148.82 53.588V57.858C148.82 58.1473 148.886 58.3573 149.016 58.488C149.156 58.6093 149.39 58.67 149.716 58.67H150.696V60H149.436C148.718 60 148.167 59.832 147.784 59.496C147.402 59.16 147.21 58.614 147.21 57.858V53.588H146.3V52.286H147.21V50.368H148.82V52.286H150.696V53.588H148.82ZM155.513 60.126C154.785 60.126 154.127 59.9627 153.539 59.636C152.951 59.3 152.489 58.8333 152.153 58.236C151.817 57.6293 151.649 56.9293 151.649 56.136C151.649 55.352 151.822 54.6567 152.167 54.05C152.513 53.4433 152.984 52.9767 153.581 52.65C154.179 52.3233 154.846 52.16 155.583 52.16C156.321 52.16 156.988 52.3233 157.585 52.65C158.183 52.9767 158.654 53.4433 158.999 54.05C159.345 54.6567 159.517 55.352 159.517 56.136C159.517 56.92 159.34 57.6153 158.985 58.222C158.631 58.8287 158.145 59.3 157.529 59.636C156.923 59.9627 156.251 60.126 155.513 60.126ZM155.513 58.74C155.924 58.74 156.307 58.642 156.661 58.446C157.025 58.25 157.319 57.956 157.543 57.564C157.767 57.172 157.879 56.696 157.879 56.136C157.879 55.576 157.772 55.1047 157.557 54.722C157.343 54.33 157.058 54.036 156.703 53.84C156.349 53.644 155.966 53.546 155.555 53.546C155.145 53.546 154.762 53.644 154.407 53.84C154.062 54.036 153.787 54.33 153.581 54.722C153.376 55.1047 153.273 55.576 153.273 56.136C153.273 56.9667 153.483 57.6107 153.903 58.068C154.333 58.516 154.869 58.74 155.513 58.74ZM163.895 60.126C163.288 60.126 162.742 60.0187 162.257 59.804C161.781 59.58 161.403 59.2813 161.123 58.908C160.843 58.5253 160.694 58.1007 160.675 57.634H162.327C162.355 57.9607 162.509 58.236 162.789 58.46C163.078 58.6747 163.438 58.782 163.867 58.782C164.315 58.782 164.66 58.698 164.903 58.53C165.155 58.3527 165.281 58.1287 165.281 57.858C165.281 57.5687 165.141 57.354 164.861 57.214C164.59 57.074 164.156 56.92 163.559 56.752C162.98 56.5933 162.509 56.4393 162.145 56.29C161.781 56.1407 161.464 55.912 161.193 55.604C160.932 55.296 160.801 54.89 160.801 54.386C160.801 53.9753 160.922 53.602 161.165 53.266C161.408 52.9207 161.753 52.65 162.201 52.454C162.658 52.258 163.181 52.16 163.769 52.16C164.646 52.16 165.351 52.384 165.883 52.832C166.424 53.2707 166.714 53.8727 166.751 54.638H165.155C165.127 54.2927 164.987 54.0173 164.735 53.812C164.483 53.6067 164.142 53.504 163.713 53.504C163.293 53.504 162.971 53.5833 162.747 53.742C162.523 53.9007 162.411 54.1107 162.411 54.372C162.411 54.5773 162.486 54.75 162.635 54.89C162.784 55.03 162.966 55.142 163.181 55.226C163.396 55.3007 163.713 55.3987 164.133 55.52C164.693 55.6693 165.15 55.8233 165.505 55.982C165.869 56.1313 166.182 56.3553 166.443 56.654C166.704 56.9527 166.84 57.3493 166.849 57.844C166.849 58.2827 166.728 58.6747 166.485 59.02C166.242 59.3653 165.897 59.636 165.449 59.832C165.01 60.028 164.492 60.126 163.895 60.126ZM177.936 50.27V51.572H173.806V54.442H177.026V55.744H173.806V60H172.21V50.27H177.936ZM178.883 56.108C178.883 55.3333 179.042 54.6473 179.359 54.05C179.686 53.4527 180.125 52.9907 180.675 52.664C181.235 52.328 181.851 52.16 182.523 52.16C183.13 52.16 183.657 52.2813 184.105 52.524C184.563 52.7573 184.927 53.0513 185.197 53.406V52.286H186.807V60H185.197V58.852C184.927 59.216 184.558 59.5193 184.091 59.762C183.625 60.0047 183.093 60.126 182.495 60.126C181.833 60.126 181.226 59.958 180.675 59.622C180.125 59.2767 179.686 58.8007 179.359 58.194C179.042 57.578 178.883 56.8827 178.883 56.108ZM185.197 56.136C185.197 55.604 185.085 55.142 184.861 54.75C184.647 54.358 184.362 54.0593 184.007 53.854C183.653 53.6487 183.27 53.546 182.859 53.546C182.449 53.546 182.066 53.6487 181.711 53.854C181.357 54.05 181.067 54.344 180.843 54.736C180.629 55.1187 180.521 55.576 180.521 56.108C180.521 56.64 180.629 57.1067 180.843 57.508C181.067 57.9093 181.357 58.2173 181.711 58.432C182.075 58.6373 182.458 58.74 182.859 58.74C183.27 58.74 183.653 58.6373 184.007 58.432C184.362 58.2267 184.647 57.928 184.861 57.536C185.085 57.1347 185.197 56.668 185.197 56.136ZM190.5 49.64V60H188.904V49.64H190.5ZM194.191 49.64V60H192.595V49.64H194.191ZM204.361 60.098C203.456 60.098 202.62 59.888 201.855 59.468C201.099 59.0387 200.497 58.446 200.049 57.69C199.61 56.9247 199.391 56.066 199.391 55.114C199.391 54.162 199.61 53.308 200.049 52.552C200.497 51.796 201.099 51.208 201.855 50.788C202.62 50.3587 203.456 50.144 204.361 50.144C205.276 50.144 206.111 50.3587 206.867 50.788C207.632 51.208 208.234 51.796 208.673 52.552C209.112 53.308 209.331 54.162 209.331 55.114C209.331 56.066 209.112 56.9247 208.673 57.69C208.234 58.446 207.632 59.0387 206.867 59.468C206.111 59.888 205.276 60.098 204.361 60.098ZM204.361 58.712C205.005 58.712 205.579 58.5673 206.083 58.278C206.587 57.9793 206.979 57.5593 207.259 57.018C207.548 56.4673 207.693 55.8327 207.693 55.114C207.693 54.3953 207.548 53.7653 207.259 53.224C206.979 52.6827 206.587 52.2673 206.083 51.978C205.579 51.6887 205.005 51.544 204.361 51.544C203.717 51.544 203.143 51.6887 202.639 51.978C202.135 52.2673 201.738 52.6827 201.449 53.224C201.169 53.7653 201.029 54.3953 201.029 55.114C201.029 55.8327 201.169 56.4673 201.449 57.018C201.738 57.5593 202.135 57.9793 202.639 58.278C203.143 58.5673 203.717 58.712 204.361 58.712ZM214.794 52.16C215.4 52.16 215.942 52.286 216.418 52.538C216.903 52.79 217.281 53.1633 217.552 53.658C217.822 54.1527 217.958 54.75 217.958 55.45V60H216.376V55.688C216.376 54.9973 216.203 54.47 215.858 54.106C215.512 53.7327 215.041 53.546 214.444 53.546C213.846 53.546 213.37 53.7327 213.016 54.106C212.67 54.47 212.498 54.9973 212.498 55.688V60H210.902V52.286H212.498V53.168C212.759 52.8507 213.09 52.6033 213.492 52.426C213.902 52.2487 214.336 52.16 214.794 52.16ZM228.936 50.27V57.284C228.936 58.152 228.67 58.838 228.138 59.342C227.615 59.846 226.925 60.098 226.066 60.098C225.207 60.098 224.512 59.846 223.98 59.342C223.457 58.838 223.196 58.152 223.196 57.284H224.806C224.815 57.7133 224.923 58.054 225.128 58.306C225.343 58.558 225.655 58.684 226.066 58.684C226.477 58.684 226.789 58.558 227.004 58.306C227.219 58.0447 227.326 57.704 227.326 57.284V50.27H228.936ZM238.518 52.286V60H236.922V59.09C236.67 59.4073 236.339 59.6593 235.928 59.846C235.527 60.0233 235.098 60.112 234.64 60.112C234.034 60.112 233.488 59.986 233.002 59.734C232.526 59.482 232.148 59.1087 231.868 58.614C231.598 58.1193 231.462 57.522 231.462 56.822V52.286H233.044V56.584C233.044 57.2747 233.217 57.8067 233.562 58.18C233.908 58.544 234.379 58.726 234.976 58.726C235.574 58.726 236.045 58.544 236.39 58.18C236.745 57.8067 236.922 57.2747 236.922 56.584V52.286H238.518ZM242.22 49.64V60H240.624V49.64H242.22ZM251.26 52.286L246.528 63.626H244.876L246.444 59.874L243.406 52.286H245.184L247.354 58.166L249.608 52.286H251.26ZM255.891 54.764C255.891 53.1493 256.161 51.8893 256.703 50.984C257.253 50.0693 258.196 49.612 259.531 49.612C260.865 49.612 261.803 50.0693 262.345 50.984C262.895 51.8893 263.171 53.1493 263.171 54.764C263.171 56.3973 262.895 57.676 262.345 58.6C261.803 59.5147 260.865 59.972 259.531 59.972C258.196 59.972 257.253 59.5147 256.703 58.6C256.161 57.676 255.891 56.3973 255.891 54.764ZM261.603 54.764C261.603 54.008 261.551 53.3687 261.449 52.846C261.355 52.3233 261.159 51.8987 260.861 51.572C260.562 51.236 260.119 51.068 259.531 51.068C258.943 51.068 258.499 51.236 258.201 51.572C257.902 51.8987 257.701 52.3233 257.599 52.846C257.505 53.3687 257.459 54.008 257.459 54.764C257.459 55.548 257.505 56.206 257.599 56.738C257.692 57.27 257.888 57.6993 258.187 58.026C258.495 58.3527 258.943 58.516 259.531 58.516C260.119 58.516 260.562 58.3527 260.861 58.026C261.169 57.6993 261.369 57.27 261.463 56.738C261.556 56.206 261.603 55.548 261.603 54.764ZM266.582 54.666C265.611 54.1807 265.126 53.4153 265.126 52.37C265.126 51.866 265.252 51.404 265.504 50.984C265.756 50.564 266.134 50.2327 266.638 49.99C267.142 49.738 267.758 49.612 268.486 49.612C269.204 49.612 269.816 49.738 270.32 49.99C270.833 50.2327 271.216 50.564 271.468 50.984C271.72 51.404 271.846 51.866 271.846 52.37C271.846 52.8927 271.71 53.3547 271.44 53.756C271.178 54.148 270.828 54.4513 270.39 54.666C270.922 54.862 271.342 55.184 271.65 55.632C271.958 56.0707 272.112 56.5887 272.112 57.186C272.112 57.7927 271.958 58.3293 271.65 58.796C271.342 59.2627 270.912 59.622 270.362 59.874C269.811 60.126 269.186 60.252 268.486 60.252C267.786 60.252 267.16 60.126 266.61 59.874C266.068 59.622 265.644 59.2627 265.336 58.796C265.028 58.3293 264.874 57.7927 264.874 57.186C264.874 56.5793 265.028 56.0567 265.336 55.618C265.644 55.1793 266.059 54.862 266.582 54.666ZM270.32 52.566C270.32 52.0433 270.156 51.642 269.83 51.362C269.503 51.082 269.055 50.942 268.486 50.942C267.926 50.942 267.482 51.082 267.156 51.362C266.829 51.642 266.666 52.048 266.666 52.58C266.666 53.0467 266.834 53.4293 267.17 53.728C267.515 54.0173 267.954 54.162 268.486 54.162C269.018 54.162 269.456 54.0127 269.802 53.714C270.147 53.4153 270.32 53.0327 270.32 52.566ZM268.486 55.366C267.87 55.366 267.366 55.52 266.974 55.828C266.591 56.1267 266.4 56.5607 266.4 57.13C266.4 57.662 266.586 58.096 266.96 58.432C267.333 58.7587 267.842 58.922 268.486 58.922C269.12 58.922 269.62 58.754 269.984 58.418C270.357 58.082 270.544 57.6527 270.544 57.13C270.544 56.57 270.352 56.136 269.97 55.828C269.596 55.52 269.102 55.366 268.486 55.366Z" fill="#1D1617"/>
<path opacity="0.8" d="M90.328 37L88.336 33.58H87.016V37H85.924V28.636H88.624C89.256 28.636 89.788 28.744 90.22 28.96C90.66 29.176 90.988 29.468 91.204 29.836C91.42 30.204 91.528 30.624 91.528 31.096C91.528 31.672 91.36 32.18 91.024 32.62C90.696 33.06 90.2 33.352 89.536 33.496L91.636 37H90.328ZM87.016 32.704H88.624C89.216 32.704 89.66 32.56 89.956 32.272C90.252 31.976 90.4 31.584 90.4 31.096C90.4 30.6 90.252 30.216 89.956 29.944C89.668 29.672 89.224 29.536 88.624 29.536H87.016V32.704ZM99.2248 33.46C99.2248 33.668 99.2128 33.888 99.1888 34.12H93.9328C93.9728 34.768 94.1928 35.276 94.5928 35.644C95.0008 36.004 95.4928 36.184 96.0688 36.184C96.5408 36.184 96.9328 36.076 97.2448 35.86C97.5648 35.636 97.7888 35.34 97.9168 34.972H99.0928C98.9168 35.604 98.5648 36.12 98.0368 36.52C97.5088 36.912 96.8528 37.108 96.0688 37.108C95.4448 37.108 94.8848 36.968 94.3888 36.688C93.9008 36.408 93.5168 36.012 93.2368 35.5C92.9568 34.98 92.8168 34.38 92.8168 33.7C92.8168 33.02 92.9528 32.424 93.2248 31.912C93.4968 31.4 93.8768 31.008 94.3648 30.736C94.8608 30.456 95.4288 30.316 96.0688 30.316C96.6928 30.316 97.2448 30.452 97.7248 30.724C98.2048 30.996 98.5728 31.372 98.8288 31.852C99.0928 32.324 99.2248 32.86 99.2248 33.46ZM98.0968 33.232C98.0968 32.816 98.0048 32.46 97.8208 32.164C97.6368 31.86 97.3848 31.632 97.0648 31.48C96.7528 31.32 96.4048 31.24 96.0208 31.24C95.4688 31.24 94.9968 31.416 94.6048 31.768C94.2208 32.12 94.0008 32.608 93.9448 33.232H98.0968ZM108.574 30.304C109.086 30.304 109.542 30.412 109.942 30.628C110.342 30.836 110.658 31.152 110.89 31.576C111.122 32 111.238 32.516 111.238 33.124V37H110.158V33.28C110.158 32.624 109.994 32.124 109.666 31.78C109.346 31.428 108.91 31.252 108.358 31.252C107.79 31.252 107.338 31.436 107.002 31.804C106.666 32.164 106.498 32.688 106.498 33.376V37H105.418V33.28C105.418 32.624 105.254 32.124 104.926 31.78C104.606 31.428 104.17 31.252 103.618 31.252C103.05 31.252 102.598 31.436 102.262 31.804C101.926 32.164 101.758 32.688 101.758 33.376V37H100.666V30.424H101.758V31.372C101.974 31.028 102.262 30.764 102.622 30.58C102.99 30.396 103.394 30.304 103.834 30.304C104.386 30.304 104.874 30.428 105.298 30.676C105.722 30.924 106.038 31.288 106.246 31.768C106.43 31.304 106.734 30.944 107.158 30.688C107.582 30.432 108.054 30.304 108.574 30.304ZM113.593 29.356C113.385 29.356 113.209 29.284 113.065 29.14C112.921 28.996 112.849 28.82 112.849 28.612C112.849 28.404 112.921 28.228 113.065 28.084C113.209 27.94 113.385 27.868 113.593 27.868C113.793 27.868 113.961 27.94 114.097 28.084C114.241 28.228 114.313 28.404 114.313 28.612C114.313 28.82 114.241 28.996 114.097 29.14C113.961 29.284 113.793 29.356 113.593 29.356ZM114.121 30.424V37H113.029V30.424H114.121ZM119.187 30.304C119.987 30.304 120.635 30.548 121.131 31.036C121.627 31.516 121.875 32.212 121.875 33.124V37H120.795V33.28C120.795 32.624 120.631 32.124 120.303 31.78C119.975 31.428 119.527 31.252 118.959 31.252C118.383 31.252 117.923 31.432 117.579 31.792C117.243 32.152 117.075 32.676 117.075 33.364V37H115.983V30.424H117.075V31.36C117.291 31.024 117.583 30.764 117.951 30.58C118.327 30.396 118.739 30.304 119.187 30.304ZM123.25 33.688C123.25 33.016 123.386 32.428 123.658 31.924C123.93 31.412 124.302 31.016 124.774 30.736C125.254 30.456 125.79 30.316 126.382 30.316C126.894 30.316 127.37 30.436 127.81 30.676C128.25 30.908 128.586 31.216 128.818 31.6V28.12H129.922V37H128.818V35.764C128.602 36.156 128.282 36.48 127.858 36.736C127.434 36.984 126.938 37.108 126.37 37.108C125.786 37.108 125.254 36.964 124.774 36.676C124.302 36.388 123.93 35.984 123.658 35.464C123.386 34.944 123.25 34.352 123.25 33.688ZM128.818 33.7C128.818 33.204 128.718 32.772 128.518 32.404C128.318 32.036 128.046 31.756 127.702 31.564C127.366 31.364 126.994 31.264 126.586 31.264C126.178 31.264 125.806 31.36 125.47 31.552C125.134 31.744 124.866 32.024 124.666 32.392C124.466 32.76 124.366 33.192 124.366 33.688C124.366 34.192 124.466 34.632 124.666 35.008C124.866 35.376 125.134 35.66 125.47 35.86C125.806 36.052 126.178 36.148 126.586 36.148C126.994 36.148 127.366 36.052 127.702 35.86C128.046 35.66 128.318 35.376 128.518 35.008C128.718 34.632 128.818 34.196 128.818 33.7ZM137.768 33.46C137.768 33.668 137.756 33.888 137.732 34.12H132.476C132.516 34.768 132.736 35.276 133.136 35.644C133.544 36.004 134.036 36.184 134.612 36.184C135.084 36.184 135.476 36.076 135.788 35.86C136.108 35.636 136.332 35.34 136.46 34.972H137.636C137.46 35.604 137.108 36.12 136.58 36.52C136.052 36.912 135.396 37.108 134.612 37.108C133.988 37.108 133.428 36.968 132.932 36.688C132.444 36.408 132.06 36.012 131.78 35.5C131.5 34.98 131.36 34.38 131.36 33.7C131.36 33.02 131.496 32.424 131.768 31.912C132.04 31.4 132.42 31.008 132.908 30.736C133.404 30.456 133.972 30.316 134.612 30.316C135.236 30.316 135.788 30.452 136.268 30.724C136.748 30.996 137.116 31.372 137.372 31.852C137.636 32.324 137.768 32.86 137.768 33.46ZM136.64 33.232C136.64 32.816 136.548 32.46 136.364 32.164C136.18 31.86 135.928 31.632 135.608 31.48C135.296 31.32 134.948 31.24 134.564 31.24C134.012 31.24 133.54 31.416 133.148 31.768C132.764 32.12 132.544 32.608 132.488 33.232H136.64ZM140.301 31.492C140.493 31.116 140.765 30.824 141.117 30.616C141.477 30.408 141.913 30.304 142.425 30.304V31.432H142.137C140.913 31.432 140.301 32.096 140.301 33.424V37H139.209V30.424H140.301V31.492ZM145.102 28.636L144.97 34.636H144.058L143.926 28.636H145.102ZM144.562 37.072C144.354 37.072 144.178 37 144.034 36.856C143.89 36.712 143.818 36.536 143.818 36.328C143.818 36.12 143.89 35.944 144.034 35.8C144.178 35.656 144.354 35.584 144.562 35.584C144.762 35.584 144.93 35.656 145.066 35.8C145.21 35.944 145.282 36.12 145.282 36.328C145.282 36.536 145.21 36.712 145.066 36.856C144.93 37 144.762 37.072 144.562 37.072Z" fill="#045B62"/>
<path d="M94.044 60H92.448L87.646 52.734V60H86.05V50.256H87.646L92.448 57.508V50.256H94.044V60ZM103.21 55.954C103.21 56.2433 103.191 56.5047 103.154 56.738H97.2598C97.3065 57.354 97.5352 57.8487 97.9458 58.222C98.3565 58.5953 98.8605 58.782 99.4578 58.782C100.317 58.782 100.923 58.4227 101.278 57.704H103C102.767 58.4133 102.342 58.9967 101.726 59.454C101.119 59.902 100.363 60.126 99.4578 60.126C98.7205 60.126 98.0578 59.9627 97.4698 59.636C96.8912 59.3 96.4338 58.8333 96.0978 58.236C95.7712 57.6293 95.6078 56.9293 95.6078 56.136C95.6078 55.3427 95.7665 54.6473 96.0838 54.05C96.4105 53.4433 96.8632 52.9767 97.4418 52.65C98.0298 52.3233 98.7018 52.16 99.4578 52.16C100.186 52.16 100.835 52.3187 101.404 52.636C101.973 52.9533 102.417 53.4013 102.734 53.98C103.051 54.5493 103.21 55.2073 103.21 55.954ZM101.544 55.45C101.535 54.862 101.325 54.3907 100.914 54.036C100.503 53.6813 99.9945 53.504 99.3878 53.504C98.8372 53.504 98.3658 53.6813 97.9738 54.036C97.5818 54.3813 97.3485 54.8527 97.2738 55.45H101.544ZM108.084 56.094L110.576 60H108.77L107.104 57.382L105.536 60H103.87L106.362 56.206L103.87 52.286H105.676L107.342 54.904L108.91 52.286H110.576L108.084 56.094ZM113.629 53.588V57.858C113.629 58.1473 113.694 58.3573 113.825 58.488C113.965 58.6093 114.198 58.67 114.525 58.67H115.505V60H114.245C113.526 60 112.975 59.832 112.593 59.496C112.21 59.16 112.019 58.614 112.019 57.858V53.588H111.109V52.286H112.019V50.368H113.629V52.286H115.505V53.588H113.629ZM127.417 53.168C127.417 53.6627 127.3 54.1293 127.067 54.568C126.833 55.0067 126.46 55.366 125.947 55.646C125.433 55.9167 124.775 56.052 123.973 56.052H122.209V60H120.613V50.27H123.973C124.719 50.27 125.349 50.4007 125.863 50.662C126.385 50.914 126.773 51.2593 127.025 51.698C127.286 52.1367 127.417 52.6267 127.417 53.168ZM123.973 54.75C124.579 54.75 125.032 54.6147 125.331 54.344C125.629 54.064 125.779 53.672 125.779 53.168C125.779 52.104 125.177 51.572 123.973 51.572H122.209V54.75H123.973ZM132.929 52.16C133.517 52.16 134.039 52.286 134.497 52.538C134.963 52.79 135.327 53.1633 135.589 53.658C135.859 54.1527 135.995 54.75 135.995 55.45V60H134.413V55.688C134.413 54.9973 134.24 54.47 133.895 54.106C133.549 53.7327 133.078 53.546 132.481 53.546C131.883 53.546 131.407 53.7327 131.053 54.106C130.707 54.47 130.535 54.9973 130.535 55.688V60H128.939V49.64H130.535V53.182C130.805 52.8553 131.146 52.6033 131.557 52.426C131.977 52.2487 132.434 52.16 132.929 52.16ZM141.376 60.126C140.648 60.126 139.99 59.9627 139.402 59.636C138.814 59.3 138.352 58.8333 138.016 58.236C137.68 57.6293 137.512 56.9293 137.512 56.136C137.512 55.352 137.685 54.6567 138.03 54.05C138.376 53.4433 138.847 52.9767 139.444 52.65C140.042 52.3233 140.709 52.16 141.446 52.16C142.184 52.16 142.851 52.3233 143.448 52.65C144.046 52.9767 144.517 53.4433 144.862 54.05C145.208 54.6567 145.38 55.352 145.38 56.136C145.38 56.92 145.203 57.6153 144.848 58.222C144.494 58.8287 144.008 59.3 143.392 59.636C142.786 59.9627 142.114 60.126 141.376 60.126ZM141.376 58.74C141.787 58.74 142.17 58.642 142.524 58.446C142.888 58.25 143.182 57.956 143.406 57.564C143.63 57.172 143.742 56.696 143.742 56.136C143.742 55.576 143.635 55.1047 143.42 54.722C143.206 54.33 142.921 54.036 142.566 53.84C142.212 53.644 141.829 53.546 141.418 53.546C141.008 53.546 140.625 53.644 140.27 53.84C139.925 54.036 139.65 54.33 139.444 54.722C139.239 55.1047 139.136 55.576 139.136 56.136C139.136 56.9667 139.346 57.6107 139.766 58.068C140.196 58.516 140.732 58.74 141.376 58.74ZM148.82 53.588V57.858C148.82 58.1473 148.886 58.3573 149.016 58.488C149.156 58.6093 149.39 58.67 149.716 58.67H150.696V60H149.436C148.718 60 148.167 59.832 147.784 59.496C147.402 59.16 147.21 58.614 147.21 57.858V53.588H146.3V52.286H147.21V50.368H148.82V52.286H150.696V53.588H148.82ZM155.513 60.126C154.785 60.126 154.127 59.9627 153.539 59.636C152.951 59.3 152.489 58.8333 152.153 58.236C151.817 57.6293 151.649 56.9293 151.649 56.136C151.649 55.352 151.822 54.6567 152.167 54.05C152.513 53.4433 152.984 52.9767 153.581 52.65C154.179 52.3233 154.846 52.16 155.583 52.16C156.321 52.16 156.988 52.3233 157.585 52.65C158.183 52.9767 158.654 53.4433 158.999 54.05C159.345 54.6567 159.517 55.352 159.517 56.136C159.517 56.92 159.34 57.6153 158.985 58.222C158.631 58.8287 158.145 59.3 157.529 59.636C156.923 59.9627 156.251 60.126 155.513 60.126ZM155.513 58.74C155.924 58.74 156.307 58.642 156.661 58.446C157.025 58.25 157.319 57.956 157.543 57.564C157.767 57.172 157.879 56.696 157.879 56.136C157.879 55.576 157.772 55.1047 157.557 54.722C157.343 54.33 157.058 54.036 156.703 53.84C156.349 53.644 155.966 53.546 155.555 53.546C155.145 53.546 154.762 53.644 154.407 53.84C154.062 54.036 153.787 54.33 153.581 54.722C153.376 55.1047 153.273 55.576 153.273 56.136C153.273 56.9667 153.483 57.6107 153.903 58.068C154.333 58.516 154.869 58.74 155.513 58.74ZM163.895 60.126C163.288 60.126 162.742 60.0187 162.257 59.804C161.781 59.58 161.403 59.2813 161.123 58.908C160.843 58.5253 160.694 58.1007 160.675 57.634H162.327C162.355 57.9607 162.509 58.236 162.789 58.46C163.078 58.6747 163.438 58.782 163.867 58.782C164.315 58.782 164.66 58.698 164.903 58.53C165.155 58.3527 165.281 58.1287 165.281 57.858C165.281 57.5687 165.141 57.354 164.861 57.214C164.59 57.074 164.156 56.92 163.559 56.752C162.98 56.5933 162.509 56.4393 162.145 56.29C161.781 56.1407 161.464 55.912 161.193 55.604C160.932 55.296 160.801 54.89 160.801 54.386C160.801 53.9753 160.922 53.602 161.165 53.266C161.408 52.9207 161.753 52.65 162.201 52.454C162.658 52.258 163.181 52.16 163.769 52.16C164.646 52.16 165.351 52.384 165.883 52.832C166.424 53.2707 166.714 53.8727 166.751 54.638H165.155C165.127 54.2927 164.987 54.0173 164.735 53.812C164.483 53.6067 164.142 53.504 163.713 53.504C163.293 53.504 162.971 53.5833 162.747 53.742C162.523 53.9007 162.411 54.1107 162.411 54.372C162.411 54.5773 162.486 54.75 162.635 54.89C162.784 55.03 162.966 55.142 163.181 55.226C163.396 55.3007 163.713 55.3987 164.133 55.52C164.693 55.6693 165.15 55.8233 165.505 55.982C165.869 56.1313 166.182 56.3553 166.443 56.654C166.704 56.9527 166.84 57.3493 166.849 57.844C166.849 58.2827 166.728 58.6747 166.485 59.02C166.242 59.3653 165.897 59.636 165.449 59.832C165.01 60.028 164.492 60.126 163.895 60.126ZM177.936 50.27V51.572H173.806V54.442H177.026V55.744H173.806V60H172.21V50.27H177.936ZM178.883 56.108C178.883 55.3333 179.042 54.6473 179.359 54.05C179.686 53.4527 180.125 52.9907 180.675 52.664C181.235 52.328 181.851 52.16 182.523 52.16C183.13 52.16 183.657 52.2813 184.105 52.524C184.563 52.7573 184.927 53.0513 185.197 53.406V52.286H186.807V60H185.197V58.852C184.927 59.216 184.558 59.5193 184.091 59.762C183.625 60.0047 183.093 60.126 182.495 60.126C181.833 60.126 181.226 59.958 180.675 59.622C180.125 59.2767 179.686 58.8007 179.359 58.194C179.042 57.578 178.883 56.8827 178.883 56.108ZM185.197 56.136C185.197 55.604 185.085 55.142 184.861 54.75C184.647 54.358 184.362 54.0593 184.007 53.854C183.653 53.6487 183.27 53.546 182.859 53.546C182.449 53.546 182.066 53.6487 181.711 53.854C181.357 54.05 181.067 54.344 180.843 54.736C180.629 55.1187 180.521 55.576 180.521 56.108C180.521 56.64 180.629 57.1067 180.843 57.508C181.067 57.9093 181.357 58.2173 181.711 58.432C182.075 58.6373 182.458 58.74 182.859 58.74C183.27 58.74 183.653 58.6373 184.007 58.432C184.362 58.2267 184.647 57.928 184.861 57.536C185.085 57.1347 185.197 56.668 185.197 56.136ZM190.5 49.64V60H188.904V49.64H190.5ZM194.191 49.64V60H192.595V49.64H194.191ZM204.361 60.098C203.456 60.098 202.62 59.888 201.855 59.468C201.099 59.0387 200.497 58.446 200.049 57.69C199.61 56.9247 199.391 56.066 199.391 55.114C199.391 54.162 199.61 53.308 200.049 52.552C200.497 51.796 201.099 51.208 201.855 50.788C202.62 50.3587 203.456 50.144 204.361 50.144C205.276 50.144 206.111 50.3587 206.867 50.788C207.632 51.208 208.234 51.796 208.673 52.552C209.112 53.308 209.331 54.162 209.331 55.114C209.331 56.066 209.112 56.9247 208.673 57.69C208.234 58.446 207.632 59.0387 206.867 59.468C206.111 59.888 205.276 60.098 204.361 60.098ZM204.361 58.712C205.005 58.712 205.579 58.5673 206.083 58.278C206.587 57.9793 206.979 57.5593 207.259 57.018C207.548 56.4673 207.693 55.8327 207.693 55.114C207.693 54.3953 207.548 53.7653 207.259 53.224C206.979 52.6827 206.587 52.2673 206.083 51.978C205.579 51.6887 205.005 51.544 204.361 51.544C203.717 51.544 203.143 51.6887 202.639 51.978C202.135 52.2673 201.738 52.6827 201.449 53.224C201.169 53.7653 201.029 54.3953 201.029 55.114C201.029 55.8327 201.169 56.4673 201.449 57.018C201.738 57.5593 202.135 57.9793 202.639 58.278C203.143 58.5673 203.717 58.712 204.361 58.712ZM214.794 52.16C215.4 52.16 215.942 52.286 216.418 52.538C216.903 52.79 217.281 53.1633 217.552 53.658C217.822 54.1527 217.958 54.75 217.958 55.45V60H216.376V55.688C216.376 54.9973 216.203 54.47 215.858 54.106C215.512 53.7327 215.041 53.546 214.444 53.546C213.846 53.546 213.37 53.7327 213.016 54.106C212.67 54.47 212.498 54.9973 212.498 55.688V60H210.902V52.286H212.498V53.168C212.759 52.8507 213.09 52.6033 213.492 52.426C213.902 52.2487 214.336 52.16 214.794 52.16ZM228.936 50.27V57.284C228.936 58.152 228.67 58.838 228.138 59.342C227.615 59.846 226.925 60.098 226.066 60.098C225.207 60.098 224.512 59.846 223.98 59.342C223.457 58.838 223.196 58.152 223.196 57.284H224.806C224.815 57.7133 224.923 58.054 225.128 58.306C225.343 58.558 225.655 58.684 226.066 58.684C226.477 58.684 226.789 58.558 227.004 58.306C227.219 58.0447 227.326 57.704 227.326 57.284V50.27H228.936ZM238.518 52.286V60H236.922V59.09C236.67 59.4073 236.339 59.6593 235.928 59.846C235.527 60.0233 235.098 60.112 234.64 60.112C234.034 60.112 233.488 59.986 233.002 59.734C232.526 59.482 232.148 59.1087 231.868 58.614C231.598 58.1193 231.462 57.522 231.462 56.822V52.286H233.044V56.584C233.044 57.2747 233.217 57.8067 233.562 58.18C233.908 58.544 234.379 58.726 234.976 58.726C235.574 58.726 236.045 58.544 236.39 58.18C236.745 57.8067 236.922 57.2747 236.922 56.584V52.286H238.518ZM242.22 49.64V60H240.624V49.64H242.22ZM251.26 52.286L246.528 63.626H244.876L246.444 59.874L243.406 52.286H245.184L247.354 58.166L249.608 52.286H251.26ZM255.891 54.764C255.891 53.1493 256.161 51.8893 256.703 50.984C257.253 50.0693 258.196 49.612 259.531 49.612C260.865 49.612 261.803 50.0693 262.345 50.984C262.895 51.8893 263.171 53.1493 263.171 54.764C263.171 56.3973 262.895 57.676 262.345 58.6C261.803 59.5147 260.865 59.972 259.531 59.972C258.196 59.972 257.253 59.5147 256.703 58.6C256.161 57.676 255.891 56.3973 255.891 54.764ZM261.603 54.764C261.603 54.008 261.551 53.3687 261.449 52.846C261.355 52.3233 261.159 51.8987 260.861 51.572C260.562 51.236 260.119 51.068 259.531 51.068C258.943 51.068 258.499 51.236 258.201 51.572C257.902 51.8987 257.701 52.3233 257.599 52.846C257.505 53.3687 257.459 54.008 257.459 54.764C257.459 55.548 257.505 56.206 257.599 56.738C257.692 57.27 257.888 57.6993 258.187 58.026C258.495 58.3527 258.943 58.516 259.531 58.516C260.119 58.516 260.562 58.3527 260.861 58.026C261.169 57.6993 261.369 57.27 261.463 56.738C261.556 56.206 261.603 55.548 261.603 54.764ZM266.582 54.666C265.611 54.1807 265.126 53.4153 265.126 52.37C265.126 51.866 265.252 51.404 265.504 50.984C265.756 50.564 266.134 50.2327 266.638 49.99C267.142 49.738 267.758 49.612 268.486 49.612C269.204 49.612 269.816 49.738 270.32 49.99C270.833 50.2327 271.216 50.564 271.468 50.984C271.72 51.404 271.846 51.866 271.846 52.37C271.846 52.8927 271.71 53.3547 271.44 53.756C271.178 54.148 270.828 54.4513 270.39 54.666C270.922 54.862 271.342 55.184 271.65 55.632C271.958 56.0707 272.112 56.5887 272.112 57.186C272.112 57.7927 271.958 58.3293 271.65 58.796C271.342 59.2627 270.912 59.622 270.362 59.874C269.811 60.126 269.186 60.252 268.486 60.252C267.786 60.252 267.16 60.126 266.61 59.874C266.068 59.622 265.644 59.2627 265.336 58.796C265.028 58.3293 264.874 57.7927 264.874 57.186C264.874 56.5793 265.028 56.0567 265.336 55.618C265.644 55.1793 266.059 54.862 266.582 54.666ZM270.32 52.566C270.32 52.0433 270.156 51.642 269.83 51.362C269.503 51.082 269.055 50.942 268.486 50.942C267.926 50.942 267.482 51.082 267.156 51.362C266.829 51.642 266.666 52.048 266.666 52.58C266.666 53.0467 266.834 53.4293 267.17 53.728C267.515 54.0173 267.954 54.162 268.486 54.162C269.018 54.162 269.456 54.0127 269.802 53.714C270.147 53.4153 270.32 53.0327 270.32 52.566ZM268.486 55.366C267.87 55.366 267.366 55.52 266.974 55.828C266.591 56.1267 266.4 56.5607 266.4 57.13C266.4 57.662 266.586 58.096 266.96 58.432C267.333 58.7587 267.842 58.922 268.486 58.922C269.12 58.922 269.62 58.754 269.984 58.418C270.357 58.082 270.544 57.6527 270.544 57.13C270.544 56.57 270.352 56.136 269.97 55.828C269.596 55.52 269.102 55.366 268.486 55.366Z" fill="#1D1617"/>
<path d="M296 19L288 27" stroke="#7B6F72" stroke-width="1.2" stroke-linecap="round" stroke-linejoin="round"/>
<path d="M288 19L296 27" stroke="#7B6F72" stroke-width="1.2" stroke-linecap="round" stroke-linejoin="round"/>
<circle opacity="0.5" cx="45" cy="45" r="30" fill="white"/>
<g clip-path="url(#clip0_570_26361)">
<path d="M58.2926 35.303H38.532C38.0526 35.303 37.5929 35.4978 37.254 35.8446C36.915 36.1913 36.7246 36.6616 36.7246 37.152V57.3682C36.7246 57.8586 36.915 58.3289 37.254 58.6757C37.5929 59.0224 38.0526 59.2172 38.532 59.2172H52.2038L57.7035 63.8502V59.2172H58.2782C58.7576 59.2172 59.2173 59.0224 59.5562 58.6757C59.8952 58.3289 60.0856 57.8586 60.0856 57.3682V37.152C60.0856 36.6642 59.8972 36.1961 59.5613 35.8497C59.2255 35.5034 58.7694 35.3069 58.2926 35.303Z" fill="white"/>
<path d="M38.7504 35.303H58.3759C58.8332 35.303 59.2717 35.4889 59.595 35.8196C59.9184 36.1504 60.1 36.599 60.1 37.0668V42.7845C60.1 42.8024 60.093 42.8196 60.0806 42.8323C60.0682 42.845 60.0514 42.8521 60.0339 42.8521H36.7907C36.7732 42.8521 36.7564 42.845 36.744 42.8323C36.7316 42.8196 36.7246 42.8024 36.7246 42.7845V37.3726C36.7231 37.1001 36.7745 36.83 36.8758 36.5781C36.9771 36.3261 37.1263 36.0972 37.3147 35.9047C37.5032 35.7121 37.7271 35.5598 37.9736 35.4565C38.22 35.3533 38.4841 35.3011 38.7504 35.303Z" fill="#FF725E"/>
<path d="M46.8069 46.4148V54.5459H44.9679V47.9258H43.3789V46.4148H46.8069Z" fill="#263238"/>
<path d="M54.422 46.4148V47.6348L51.4623 54.5459H49.4509L52.3014 47.9493H49.6779V49.281H48.043V46.4148H54.422Z" fill="#263238"/>
<path d="M51.6769 39.5801C51.6769 39.6212 50.0707 39.6565 48.0909 39.6565C46.1111 39.6565 44.502 39.6271 44.502 39.5801C44.502 39.5331 46.1082 39.5037 48.0909 39.5037C50.0735 39.5037 51.6769 39.5448 51.6769 39.5801Z" fill="#263238"/>
<path d="M58.2923 35.303C58.2923 35.303 58.3325 35.303 58.4158 35.303C58.5363 35.3082 58.6557 35.327 58.7721 35.3588C59.0014 35.42 59.2165 35.5267 59.4054 35.673C59.5942 35.8193 59.753 36.0022 59.8727 36.2114C60.0488 36.5193 60.1365 36.8719 60.1255 37.2285C60.1255 37.6136 60.1255 38.0369 60.1255 38.4896C60.1255 39.4009 60.1255 40.4445 60.1255 41.6115C60.1255 43.9633 60.1255 46.7824 60.1255 50.0219C60.1255 51.6417 60.1255 53.3644 60.1255 55.1752C60.1255 55.6309 60.1255 56.0894 60.1255 56.5539V57.2536C60.134 57.4964 60.102 57.739 60.0307 57.9708C59.8758 58.4493 59.5422 58.8456 59.1026 59.0732C58.8976 59.1824 58.6744 59.2512 58.4446 59.276C58.1946 59.276 57.9618 59.276 57.7176 59.276L57.7837 59.2084C57.7837 60.6783 57.7837 62.2334 57.7837 63.8384V63.9913L57.6688 63.8943L52.1575 59.276L52.2035 59.2937H38.5087C38.189 59.2894 37.8756 59.2019 37.5981 59.0394C37.3205 58.8769 37.0881 58.6447 36.9226 58.3647C36.8138 58.1833 36.7351 57.9846 36.6899 57.7768C36.6553 57.5681 36.6418 57.3563 36.6496 57.1448V53.4672C36.6496 50.2512 36.6496 47.1499 36.6496 44.1955C36.6496 42.7159 36.6496 41.2764 36.6496 39.8771C36.6496 39.1775 36.6496 38.4916 36.6496 37.8194C36.6368 37.4789 36.6483 37.138 36.6841 36.7993C36.7496 36.4606 36.9024 36.146 37.1266 35.888C37.3468 35.6361 37.6284 35.4484 37.9427 35.3442C38.2513 35.2581 38.5719 35.2263 38.8909 35.2501H44.155L54.4994 35.2765H57.3124H58.0423C58.209 35.2765 58.2923 35.2765 58.2923 35.2765H58.0423H57.3124H54.4994L44.155 35.3001H40.727H38.9053C38.5999 35.2771 38.293 35.307 37.9973 35.3882C37.7034 35.4879 37.4399 35.6642 37.2329 35.8998C37.0242 36.1403 36.8823 36.4336 36.822 36.7493C36.7891 37.0804 36.7795 37.4134 36.7933 37.7459V39.8036C36.7933 41.2029 36.7933 42.6424 36.7933 44.122C36.7933 47.0617 36.7933 50.1778 36.7933 53.3938V57.1301C36.786 57.3269 36.7985 57.5239 36.8307 57.718C36.871 57.913 36.9429 58.0998 37.0433 58.2707C37.2471 58.6161 37.5604 58.8797 37.9312 59.0174C38.3178 59.128 38.7209 59.1659 39.1208 59.1291H52.2236L52.2437 59.1467L57.7406 63.7826L57.6257 63.8355C57.6257 62.2304 57.6257 60.6665 57.6257 59.2055V59.1379H57.6946C57.9331 59.1379 58.1802 59.1379 58.413 59.1379C58.7555 59.1114 59.0827 58.9821 59.3536 58.7661C59.6245 58.5501 59.8271 58.2571 59.9359 57.9238C60.0055 57.7058 60.0367 57.4768 60.0278 57.2477V56.548C60.0278 56.0836 60.0278 55.625 60.0278 55.1693C60.0278 53.3585 60.0278 51.6417 60.0278 50.0161C60.0278 46.7824 60.0278 43.9456 60.0422 41.6057C60.0422 40.4298 60.0422 39.395 60.0422 38.4837C60.0422 37.5724 60.1571 36.7699 59.8066 36.229C59.5743 35.8109 59.1902 35.5035 58.7377 35.3735C58.5916 35.3365 58.4425 35.3129 58.2923 35.303Z" fill="#263238"/>
<path d="M51.8997 32.96H51.8508C51.4446 32.96 51.1152 33.2969 51.1152 33.7125V37.6076C51.1152 38.0232 51.4446 38.3601 51.8508 38.3601H51.8997C52.3059 38.3601 52.6353 38.0232 52.6353 37.6076V33.7125C52.6353 33.2969 52.3059 32.96 51.8997 32.96Z" fill="#E0E0E0"/>
<path d="M51.9008 38.3602C52.0572 38.3378 52.2055 38.2751 52.3318 38.178C52.4728 38.0597 52.5635 37.89 52.5847 37.7047C52.5847 37.4901 52.5847 37.2226 52.5847 36.9404C52.5847 36.3524 52.5847 35.6822 52.5847 34.9355C52.5847 34.5563 52.5847 34.1594 52.5847 33.7597C52.5894 33.6633 52.574 33.567 52.5397 33.4772C52.5053 33.3874 52.4528 33.306 52.3854 33.2385C52.3181 33.171 52.2375 33.1189 52.149 33.0856C52.0605 33.0523 51.9661 33.0385 51.872 33.0453C51.7773 33.0451 51.6836 33.0657 51.5974 33.1058C51.5111 33.1459 51.4343 33.2044 51.3721 33.2775C51.3116 33.3506 51.2662 33.4354 51.2386 33.5268C51.2109 33.6182 51.2016 33.7144 51.2112 33.8096C51.2112 34.2212 51.2112 34.618 51.2112 34.9855C51.2112 35.7351 51.2112 36.4142 51.2112 36.9933C51.2112 37.1344 51.2112 37.2696 51.2112 37.399C51.2007 37.5163 51.2007 37.6344 51.2112 37.7517C51.2461 37.9358 51.349 38.0989 51.4985 38.2074C51.6321 38.2956 51.7853 38.3482 51.9439 38.3602C51.9022 38.369 51.8592 38.369 51.8174 38.3602C51.6928 38.3541 51.5719 38.3146 51.4669 38.2456C51.2972 38.1337 51.1767 37.9587 51.1307 37.7576C51.1123 37.6351 51.1056 37.5111 51.1106 37.3872C51.1106 37.2579 51.1106 37.1226 51.1106 36.9815C51.1106 36.3936 51.1106 35.7234 51.0933 34.9737C51.0933 34.5975 51.0933 34.2006 51.0933 33.7979C51.0832 33.6845 51.0952 33.5702 51.1288 33.4617C51.1623 33.3532 51.2167 33.2526 51.2887 33.1658C51.3639 33.0745 51.4576 33.0009 51.5632 32.9502C51.6689 32.8994 51.7841 32.8727 51.9008 32.8719C52.0161 32.8654 52.1314 32.8838 52.2393 32.9258C52.3472 32.9679 52.4453 33.0326 52.5272 33.1159C52.5952 33.2049 52.6452 33.3069 52.6743 33.4159C52.7034 33.5249 52.711 33.6388 52.6967 33.7508C52.6967 34.1594 52.6967 34.5563 52.6967 34.9267C52.6967 35.6734 52.6967 36.3524 52.6795 36.9316C52.6795 37.2255 52.6795 37.4695 52.6594 37.7076C52.645 37.8088 52.6109 37.9059 52.5591 37.9933C52.5072 38.0807 52.4387 38.1565 52.3577 38.2162C52.259 38.293 52.1418 38.3407 52.0186 38.3544C51.9801 38.3642 51.94 38.3662 51.9008 38.3602Z" fill="#263238"/>
<path d="M44.7649 32.96H44.7161C44.3098 32.96 43.9805 33.2969 43.9805 33.7125V37.6076C43.9805 38.0232 44.3098 38.3601 44.7161 38.3601H44.7649C45.1712 38.3601 45.5005 38.0232 45.5005 37.6076V33.7125C45.5005 33.2969 45.1712 32.96 44.7649 32.96Z" fill="#E0E0E0"/>
<path d="M44.7636 38.3601C44.9211 38.3384 45.0705 38.2756 45.1975 38.1779C45.3385 38.0596 45.4292 37.8899 45.4503 37.7046C45.4503 37.49 45.4503 37.2225 45.4503 36.9403C45.4503 36.3523 45.4503 35.6821 45.4331 34.9354C45.4331 34.5562 45.4331 34.1593 45.4331 33.7595C45.4378 33.6632 45.4225 33.5669 45.3881 33.4771C45.3538 33.3872 45.3012 33.3059 45.2339 33.2384C45.1665 33.1709 45.0859 33.1187 44.9974 33.0854C44.9089 33.0521 44.8145 33.0384 44.7205 33.0452C44.6257 33.0446 44.5319 33.065 44.4456 33.1051C44.3592 33.1452 44.2825 33.204 44.2205 33.2774C44.1597 33.3503 44.1139 33.435 44.0857 33.5264C44.0576 33.6178 44.0477 33.7141 44.0567 33.8095C44.0567 34.2211 44.0567 34.6179 44.0567 34.9854C44.0567 35.735 44.0567 36.4141 44.0395 36.9932C44.0395 37.1343 44.0395 37.2695 44.0395 37.3988C44.029 37.5162 44.029 37.6343 44.0395 37.7516C44.0733 37.9361 44.1765 38.0997 44.3268 38.2073C44.4593 38.2956 44.6116 38.3482 44.7693 38.3601C44.7693 38.3601 44.7291 38.3601 44.6429 38.3601C44.5192 38.3539 44.3992 38.3143 44.2952 38.2455C44.1247 38.1345 44.0039 37.9591 43.959 37.7575C43.9411 37.6349 43.9334 37.511 43.936 37.3871C43.936 37.2577 43.936 37.1225 43.936 36.9814C43.936 36.3935 43.936 35.7232 43.936 34.9736C43.936 34.5973 43.936 34.2005 43.936 33.7977C43.9191 33.5687 43.9903 33.3419 44.1343 33.1657C44.2094 33.0742 44.303 33.0005 44.4087 32.9498C44.5144 32.899 44.6296 32.8724 44.7463 32.8717C44.8612 32.865 44.9762 32.8832 45.0837 32.9253C45.1912 32.9673 45.2887 33.0322 45.3699 33.1157C45.4486 33.1977 45.5101 33.2953 45.5506 33.4025C45.5911 33.5096 45.6098 33.6241 45.6055 33.7389C45.6055 34.1476 45.6055 34.5444 45.6055 34.9148C45.6055 35.6615 45.6055 36.3406 45.6055 36.9197C45.6055 37.2136 45.6055 37.4576 45.5854 37.6958C45.5579 37.897 45.4548 38.0794 45.298 38.2043C45.1991 38.2806 45.082 38.3283 44.959 38.3425C44.8973 38.3694 44.8289 38.3756 44.7636 38.3601Z" fill="#263238"/>
<g opacity="0.3">
<path opacity="0.3" d="M43.1081 35.5293C43.2039 36.4867 43.1144 37.4541 42.8446 38.3762C42.5748 39.2982 42.13 40.1568 41.5358 40.9029C40.9415 41.649 40.2093 42.268 39.3811 42.7245C38.5529 43.181 37.6449 43.4661 36.709 43.5634L36.9963 39.5449L40.5565 35.5852L43.1081 35.5293Z" fill="black"/>
</g>
<path d="M37.4729 41.8952C41.0614 40.9696 43.2371 37.2432 42.3324 33.572C41.4277 29.9008 37.7852 27.675 34.1967 28.6005C30.6083 29.5261 28.4326 33.2525 29.3373 36.9237C30.242 40.5949 33.8845 42.8207 37.4729 41.8952Z" fill="white"/>
<path d="M35.8295 42.8402C34.4063 42.8392 33.0133 42.4197 31.8166 41.6316C30.62 40.8434 29.67 39.7199 29.08 38.3949C28.49 37.0699 28.2847 35.5993 28.4888 34.1583C28.6928 32.7173 29.2976 31.3668 30.2309 30.2675C31.1642 29.1683 32.3867 28.3668 33.7528 27.9585C35.1189 27.5502 36.571 27.5523 37.9359 27.9646C39.3009 28.3769 40.5212 29.182 41.4514 30.284C42.3817 31.386 42.9826 32.7383 43.1826 34.1799C43.4566 36.173 42.9468 38.196 41.765 39.8051C40.5831 41.4143 38.8258 42.4782 36.8783 42.7637C36.531 42.8152 36.1804 42.8407 35.8295 42.8402ZM35.8467 29.1325C35.5583 29.1321 35.2702 29.1528 34.9847 29.1942C33.815 29.3661 32.7213 29.8889 31.8419 30.6965C30.9625 31.5041 30.3369 32.5603 30.0441 33.7316C29.7513 34.9028 29.8044 36.1366 30.1968 37.277C30.5892 38.4174 31.3033 39.4132 32.2487 40.1385C33.1942 40.8638 34.3285 41.2861 35.5085 41.352C36.6885 41.418 37.8611 41.1245 38.8781 40.5089C39.8951 39.8932 40.7109 38.9829 41.2224 37.893C41.7338 36.8031 41.918 35.5826 41.7516 34.3857C41.5492 32.93 40.8408 31.5978 39.7563 30.633C38.6719 29.6682 37.2839 29.1355 35.8467 29.1325Z" fill="#455A64"/>
<path d="M35.8449 29.1326C35.8773 29.128 35.9102 29.128 35.9426 29.1326C36.0058 29.1326 36.1006 29.1326 36.2299 29.1326C36.5961 29.1495 36.9599 29.2027 37.3161 29.2914C37.8808 29.4341 38.422 29.661 38.9223 29.9645C39.589 30.3665 40.1742 30.8954 40.6464 31.5226C41.2169 32.285 41.6038 33.1743 41.7757 34.1183C41.8195 34.3771 41.8502 34.6381 41.8676 34.9003C41.8748 35.0344 41.8748 35.1688 41.8676 35.303C41.8676 35.4382 41.8676 35.5764 41.8676 35.7116C41.8219 36.277 41.706 36.8341 41.5228 37.3696C41.3098 37.9261 41.0268 38.4519 40.6809 38.9335C40.3135 39.4278 39.8813 39.868 39.3965 40.2416C38.3568 41.0183 37.1021 41.4354 35.8148 41.4323C34.5275 41.4291 33.2747 41.0058 32.2387 40.224C31.7531 39.8502 31.3208 39.4089 30.9543 38.9129C30.6162 38.4275 30.3418 37.8987 30.1383 37.3402C29.9569 36.8055 29.8429 36.2493 29.7992 35.6851C29.7228 34.5414 29.9592 33.3985 30.482 32.3845C31.0047 31.3705 31.7931 30.5254 32.7588 29.944C33.4453 29.5343 34.2058 29.2713 34.9944 29.1708L35.457 29.1444L35.7443 29.1297C35.7768 29.1264 35.8095 29.1264 35.842 29.1297H35.7443L35.457 29.1561L34.9972 29.1973C34.8162 29.2267 34.6122 29.2678 34.3823 29.3266C33.0794 29.6674 31.9284 30.451 31.1181 31.549C30.5603 32.2988 30.1814 33.1716 30.0118 34.0977C29.9173 34.6111 29.8892 35.1349 29.9285 35.6558C29.9724 36.2082 30.0854 36.7525 30.2647 37.2755C30.4648 37.82 30.7343 38.335 31.0664 38.8071C31.4256 39.2902 31.8482 39.7205 32.3221 40.0858C33.3334 40.8466 34.5552 41.2584 35.8105 41.2615C37.0658 41.2647 38.2895 40.8591 39.3045 40.1035C39.7799 39.74 40.2035 39.3106 40.5631 38.8277C40.8969 38.3567 41.1684 37.8427 41.3705 37.299C41.5538 36.7778 41.6697 36.2342 41.7153 35.6822C41.7326 35.5499 41.7153 35.4147 41.7153 35.2824C41.7225 35.1512 41.7225 35.0197 41.7153 34.8885C41.6894 34.6269 41.678 34.3711 41.6291 34.1212C41.465 33.1942 41.0911 32.3193 40.5372 31.5667C39.7257 30.4709 38.58 29.6836 37.2816 29.3296C36.9293 29.2355 36.5698 29.1726 36.2069 29.1414C35.9771 29.1385 35.8449 29.1385 35.8449 29.1326Z" fill="#263238"/>
<path d="M35.8291 42.8402C35.8291 42.8402 35.8694 42.8402 35.9498 42.8402L36.3004 42.8137C36.4555 42.7991 36.6452 42.7814 36.8751 42.7461L37.6423 42.5845C38.3311 42.3936 38.992 42.1099 39.6077 41.7408C40.4145 41.2367 41.1228 40.5838 41.6967 39.8153C42.3834 38.878 42.8504 37.7917 43.0616 36.6404C43.0948 36.4854 43.1178 36.3283 43.1305 36.1701C43.1305 36.0113 43.165 35.8526 43.1794 35.688C43.1937 35.5234 43.1794 35.3646 43.1794 35.197V34.9501L43.1564 34.7002C43.1119 34.0124 42.9726 33.3345 42.7426 32.6866C42.2261 31.2386 41.2881 29.9874 40.055 29.1017C38.8219 28.216 37.353 27.7384 35.8464 27.7332C34.3354 27.7281 32.8597 28.1999 31.6204 29.0842C30.3812 29.9686 29.4387 31.2224 28.9214 32.6748C28.4683 33.9435 28.362 35.3145 28.614 36.6404C28.7208 37.238 28.8974 37.8203 29.1398 38.3748C29.2568 38.6346 29.3872 38.8878 29.5306 39.1333L29.7432 39.489L29.9817 39.8153C30.5488 40.5846 31.255 41.2353 32.0621 41.7319C32.6757 42.1052 33.3372 42.3892 34.0275 42.5756C34.2786 42.6454 34.534 42.6984 34.7918 42.7344C34.9818 42.7692 35.1738 42.7918 35.3665 42.802L35.7199 42.8284C35.7601 42.8252 35.8005 42.8252 35.8406 42.8284H35.7199H35.3665C35.1739 42.8241 34.9818 42.8055 34.7918 42.7726C34.5318 42.7438 34.2744 42.6946 34.0217 42.6256C33.3221 42.4485 32.6506 42.1704 32.0276 41.7996C31.1998 41.3042 30.473 40.6505 29.8869 39.8741L29.6455 39.5448L29.4271 39.1862C29.2795 38.9331 29.1452 38.6721 29.0249 38.4042C28.7766 37.8405 28.5953 37.2483 28.4846 36.6404C28.228 35.2945 28.3333 33.9026 28.7892 32.6131C29.316 31.1345 30.2752 29.8578 31.5364 28.9568C32.7976 28.0557 34.2995 27.5741 35.8378 27.5774C37.3767 27.5787 38.8779 28.0647 40.1374 28.9693C41.3969 29.8739 42.3537 31.1533 42.8777 32.6337C43.1115 33.2958 43.2517 33.9887 43.2943 34.6914L43.3144 34.9442V35.197C43.3144 35.3646 43.3144 35.5322 43.3144 35.6968C43.3144 35.8614 43.2684 36.0202 43.2684 36.1818C43.2562 36.3432 43.2322 36.5033 43.1966 36.661C42.9715 37.8301 42.4847 38.9299 41.7743 39.8741C41.189 40.6494 40.4668 41.3055 39.6451 41.8084C39.0192 42.174 38.3486 42.4528 37.6509 42.6374L36.8751 42.7844C36.6845 42.8121 36.4927 42.8298 36.3004 42.8373C36.1452 42.8373 36.013 42.8373 35.9469 42.8373L35.8291 42.8402Z" fill="#263238"/>
<path d="M39.2353 25.7995L38.623 26.804L42.5602 29.3155L43.1724 28.311L39.2353 25.7995Z" fill="#455A64"/>
<path d="M42.552 29.3442C42.552 29.3442 42.6037 29.2384 42.7043 29.0502L43.1267 28.3094L43.141 28.3712C42.2503 27.8214 40.8107 26.9395 39.1987 25.896L39.3021 25.8724L39.282 25.9048L39.2217 25.9988L39.1441 26.1282L38.9889 26.381L38.7016 26.8749L38.67 26.769C39.7705 27.4804 40.7331 28.1154 41.4285 28.5799L42.2503 29.1296C42.4428 29.2619 42.5376 29.3354 42.5376 29.3442C42.4366 29.2994 42.3404 29.2443 42.2503 29.1796L41.4285 28.6769C40.7216 28.2418 39.7217 27.6186 38.5867 26.8984L38.5234 26.8572L38.5637 26.7955L38.851 26.2987L39.0177 26.0576L39.0952 25.9312L39.1355 25.8666L39.1556 25.8225V25.8048L39.2763 25.7637C40.8911 26.7955 42.3164 27.7215 43.1899 28.3006L43.2272 28.3271L43.2043 28.3653C42.9974 28.6857 42.8336 28.9356 42.7244 29.1002C42.6748 29.1871 42.6171 29.2688 42.552 29.3442Z" fill="#263238"/>
<path d="M29.7697 27.4496L26.5508 31.1968L27.4184 31.9769L30.6374 28.2297L29.7697 27.4496Z" fill="#455A64"/>
<path d="M27.421 31.9752C27.421 31.9752 27.5072 31.8577 27.6624 31.6636L28.3261 30.8552C28.9008 30.1762 29.6766 29.2384 30.5789 28.1801V28.286L29.7169 27.5069H29.8232L29.7945 27.5275L29.7628 27.5716L29.7025 27.6422L29.5789 27.7862L29.3347 28.0802L28.8635 28.6181L27.9813 29.6323L26.5848 31.2256V31.161C26.8348 31.3991 27.0388 31.596 27.1997 31.7489C27.2789 31.8206 27.3538 31.8972 27.4239 31.9782C27.3362 31.9242 27.2535 31.8622 27.1768 31.793C27.0245 31.6666 26.7975 31.4784 26.513 31.2286L26.4785 31.1992L26.5072 31.1639L27.8693 29.5441L28.7313 28.5182L29.2255 27.9685C29.3031 27.8744 29.3864 27.7803 29.4669 27.6745L29.5904 27.5305L29.6508 27.457L29.6824 27.4217L29.6996 27.4041H29.8059C30.0933 27.6745 30.3806 27.9361 30.668 28.186L30.7226 28.236L30.6737 28.2918C29.7628 29.356 28.941 30.2908 28.3549 30.9493L27.6681 31.7166C27.5914 31.8082 27.5088 31.8947 27.421 31.9752Z" fill="#263238"/>
<path d="M32.9121 35.8468L33.4839 34.7326L35.5269 35.6792L37.7251 31.5842L38.7538 32.1869L35.9062 37.3519L32.9121 35.8468Z" fill="#455A64"/>
<path d="M35.9099 37.3607L32.9043 35.8497L33.479 34.7297L35.5162 35.6704L37.723 31.5754L38.7575 32.181L35.9099 37.3607ZM32.9244 35.8438L35.907 37.3431L38.7489 32.1898L37.7317 31.6019L35.5306 35.688L33.4991 34.7444L32.9244 35.8438Z" fill="#263238"/>
<path d="M31.8426 43.7105C31.734 43.6764 31.629 43.6311 31.5294 43.5752C31.4092 43.5181 31.2922 43.4543 31.1788 43.3841C31.0244 43.2943 30.8748 43.1962 30.7306 43.0902C30.3489 42.8286 29.9903 42.5335 29.6588 42.2083C29.2534 41.8107 28.8859 41.3746 28.5611 40.906C28.247 40.4366 27.9758 39.9387 27.7508 39.4185C27.5685 38.9889 27.4214 38.5444 27.3112 38.0898C27.267 37.9154 27.2315 37.7388 27.2049 37.5607C27.1783 37.4277 27.16 37.2932 27.1503 37.1579C27.133 37.0432 27.1273 36.927 27.133 36.811C27.1618 36.811 27.2077 37.299 27.4204 38.0604C27.542 38.5059 27.6967 38.9412 27.883 39.3627C28.1159 39.8755 28.3908 40.3672 28.7048 40.8325C29.0212 41.2923 29.3749 41.7241 29.7622 42.123C30.0866 42.4424 30.4333 42.7371 30.7995 43.0049C31.4202 43.4723 31.8569 43.6958 31.8426 43.7105Z" fill="#263238"/>
<path d="M28.4523 42.1436C28.2686 41.977 28.1073 41.7862 27.9724 41.5763C27.6228 41.0897 27.3179 40.5711 27.0615 40.0271C26.8055 39.4817 26.6006 38.9128 26.4495 38.3279C26.3714 38.0906 26.3259 37.8432 26.3145 37.593C26.4061 37.8231 26.4838 38.0587 26.5472 38.2985C26.7253 38.8662 26.9404 39.4211 27.1908 39.9595C27.4453 40.4962 27.7333 41.0156 28.0529 41.5145C28.2005 41.7142 28.334 41.9244 28.4523 42.1436Z" fill="#263238"/>
</g>
<circle opacity="0.5" cx="45" cy="45" r="30" fill="white"/>
<g clip-path="url(#clip1_570_26361)">
<path d="M58.2926 35.303H38.532C38.0526 35.303 37.5929 35.4978 37.254 35.8446C36.915 36.1913 36.7246 36.6616 36.7246 37.152V57.3682C36.7246 57.8586 36.915 58.3289 37.254 58.6757C37.5929 59.0224 38.0526 59.2172 38.532 59.2172H52.2038L57.7035 63.8502V59.2172H58.2782C58.7576 59.2172 59.2173 59.0224 59.5562 58.6757C59.8952 58.3289 60.0856 57.8586 60.0856 57.3682V37.152C60.0856 36.6642 59.8972 36.1961 59.5613 35.8497C59.2255 35.5034 58.7694 35.3069 58.2926 35.303Z" fill="white"/>
<path d="M38.7504 35.303H58.3759C58.8332 35.303 59.2717 35.4889 59.595 35.8196C59.9184 36.1504 60.1 36.599 60.1 37.0668V42.7845C60.1 42.8024 60.093 42.8196 60.0806 42.8323C60.0682 42.845 60.0514 42.8521 60.0339 42.8521H36.7907C36.7732 42.8521 36.7564 42.845 36.744 42.8323C36.7316 42.8196 36.7246 42.8024 36.7246 42.7845V37.3726C36.7231 37.1001 36.7745 36.83 36.8758 36.5781C36.9771 36.3261 37.1263 36.0972 37.3147 35.9047C37.5032 35.7121 37.7271 35.5598 37.9736 35.4565C38.22 35.3533 38.4841 35.3011 38.7504 35.303Z" fill="#FF725E"/>
<path d="M46.8069 46.4148V54.5459H44.9679V47.9258H43.3789V46.4148H46.8069Z" fill="#263238"/>
<path d="M54.422 46.4148V47.6348L51.4623 54.5459H49.4509L52.3014 47.9493H49.6779V49.281H48.043V46.4148H54.422Z" fill="#263238"/>
<path d="M51.6769 39.5801C51.6769 39.6212 50.0707 39.6565 48.0909 39.6565C46.1111 39.6565 44.502 39.6271 44.502 39.5801C44.502 39.5331 46.1082 39.5037 48.0909 39.5037C50.0735 39.5037 51.6769 39.5448 51.6769 39.5801Z" fill="#263238"/>
<path d="M58.2923 35.303C58.2923 35.303 58.3325 35.303 58.4158 35.303C58.5363 35.3082 58.6557 35.327 58.7721 35.3588C59.0014 35.42 59.2165 35.5267 59.4054 35.673C59.5942 35.8193 59.753 36.0022 59.8727 36.2114C60.0488 36.5193 60.1365 36.8719 60.1255 37.2285C60.1255 37.6136 60.1255 38.0369 60.1255 38.4896C60.1255 39.4009 60.1255 40.4445 60.1255 41.6115C60.1255 43.9633 60.1255 46.7824 60.1255 50.0219C60.1255 51.6417 60.1255 53.3644 60.1255 55.1752C60.1255 55.6309 60.1255 56.0894 60.1255 56.5539V57.2536C60.134 57.4964 60.102 57.739 60.0307 57.9708C59.8758 58.4493 59.5422 58.8456 59.1026 59.0732C58.8976 59.1824 58.6744 59.2512 58.4446 59.276C58.1946 59.276 57.9618 59.276 57.7176 59.276L57.7837 59.2084C57.7837 60.6783 57.7837 62.2334 57.7837 63.8384V63.9913L57.6688 63.8943L52.1575 59.276L52.2035 59.2937H38.5087C38.189 59.2894 37.8756 59.2019 37.5981 59.0394C37.3205 58.8769 37.0881 58.6447 36.9226 58.3647C36.8138 58.1833 36.7351 57.9846 36.6899 57.7768C36.6553 57.5681 36.6418 57.3563 36.6496 57.1448V53.4672C36.6496 50.2512 36.6496 47.1499 36.6496 44.1955C36.6496 42.7159 36.6496 41.2764 36.6496 39.8771C36.6496 39.1775 36.6496 38.4916 36.6496 37.8194C36.6368 37.4789 36.6483 37.138 36.6841 36.7993C36.7496 36.4606 36.9024 36.146 37.1266 35.888C37.3468 35.6361 37.6284 35.4484 37.9427 35.3442C38.2513 35.2581 38.5719 35.2263 38.8909 35.2501H44.155L54.4994 35.2765H57.3124H58.0423C58.209 35.2765 58.2923 35.2765 58.2923 35.2765H58.0423H57.3124H54.4994L44.155 35.3001H40.727H38.9053C38.5999 35.2771 38.293 35.307 37.9973 35.3882C37.7034 35.4879 37.4399 35.6642 37.2329 35.8998C37.0242 36.1403 36.8823 36.4336 36.822 36.7493C36.7891 37.0804 36.7795 37.4134 36.7933 37.7459V39.8036C36.7933 41.2029 36.7933 42.6424 36.7933 44.122C36.7933 47.0617 36.7933 50.1778 36.7933 53.3938V57.1301C36.786 57.3269 36.7985 57.5239 36.8307 57.718C36.871 57.913 36.9429 58.0998 37.0433 58.2707C37.2471 58.6161 37.5604 58.8797 37.9312 59.0174C38.3178 59.128 38.7209 59.1659 39.1208 59.1291H52.2236L52.2437 59.1467L57.7406 63.7826L57.6257 63.8355C57.6257 62.2304 57.6257 60.6665 57.6257 59.2055V59.1379H57.6946C57.9331 59.1379 58.1802 59.1379 58.413 59.1379C58.7555 59.1114 59.0827 58.9821 59.3536 58.7661C59.6245 58.5501 59.8271 58.2571 59.9359 57.9238C60.0055 57.7058 60.0367 57.4768 60.0278 57.2477V56.548C60.0278 56.0836 60.0278 55.625 60.0278 55.1693C60.0278 53.3585 60.0278 51.6417 60.0278 50.0161C60.0278 46.7824 60.0278 43.9456 60.0422 41.6057C60.0422 40.4298 60.0422 39.395 60.0422 38.4837C60.0422 37.5724 60.1571 36.7699 59.8066 36.229C59.5743 35.8109 59.1902 35.5035 58.7377 35.3735C58.5916 35.3365 58.4425 35.3129 58.2923 35.303Z" fill="#263238"/>
<path d="M51.8997 32.96H51.8508C51.4446 32.96 51.1152 33.2969 51.1152 33.7125V37.6076C51.1152 38.0232 51.4446 38.3601 51.8508 38.3601H51.8997C52.3059 38.3601 52.6353 38.0232 52.6353 37.6076V33.7125C52.6353 33.2969 52.3059 32.96 51.8997 32.96Z" fill="#E0E0E0"/>
<path d="M51.9008 38.3602C52.0572 38.3378 52.2055 38.2751 52.3318 38.178C52.4728 38.0597 52.5635 37.89 52.5847 37.7047C52.5847 37.4901 52.5847 37.2226 52.5847 36.9404C52.5847 36.3524 52.5847 35.6822 52.5847 34.9355C52.5847 34.5563 52.5847 34.1594 52.5847 33.7597C52.5894 33.6633 52.574 33.567 52.5397 33.4772C52.5053 33.3874 52.4528 33.306 52.3854 33.2385C52.3181 33.171 52.2375 33.1189 52.149 33.0856C52.0605 33.0523 51.9661 33.0385 51.872 33.0453C51.7773 33.0451 51.6836 33.0657 51.5974 33.1058C51.5111 33.1459 51.4343 33.2044 51.3721 33.2775C51.3116 33.3506 51.2662 33.4354 51.2386 33.5268C51.2109 33.6182 51.2016 33.7144 51.2112 33.8096C51.2112 34.2212 51.2112 34.618 51.2112 34.9855C51.2112 35.7351 51.2112 36.4142 51.2112 36.9933C51.2112 37.1344 51.2112 37.2696 51.2112 37.399C51.2007 37.5163 51.2007 37.6344 51.2112 37.7517C51.2461 37.9358 51.349 38.0989 51.4985 38.2074C51.6321 38.2956 51.7853 38.3482 51.9439 38.3602C51.9022 38.369 51.8592 38.369 51.8174 38.3602C51.6928 38.3541 51.5719 38.3146 51.4669 38.2456C51.2972 38.1337 51.1767 37.9587 51.1307 37.7576C51.1123 37.6351 51.1056 37.5111 51.1106 37.3872C51.1106 37.2579 51.1106 37.1226 51.1106 36.9815C51.1106 36.3936 51.1106 35.7234 51.0933 34.9737C51.0933 34.5975 51.0933 34.2006 51.0933 33.7979C51.0832 33.6845 51.0952 33.5702 51.1288 33.4617C51.1623 33.3532 51.2167 33.2526 51.2887 33.1658C51.3639 33.0745 51.4576 33.0009 51.5632 32.9502C51.6689 32.8994 51.7841 32.8727 51.9008 32.8719C52.0161 32.8654 52.1314 32.8838 52.2393 32.9258C52.3472 32.9679 52.4453 33.0326 52.5272 33.1159C52.5952 33.2049 52.6452 33.3069 52.6743 33.4159C52.7034 33.5249 52.711 33.6388 52.6967 33.7508C52.6967 34.1594 52.6967 34.5563 52.6967 34.9267C52.6967 35.6734 52.6967 36.3524 52.6795 36.9316C52.6795 37.2255 52.6795 37.4695 52.6594 37.7076C52.645 37.8088 52.6109 37.9059 52.5591 37.9933C52.5072 38.0807 52.4387 38.1565 52.3577 38.2162C52.259 38.293 52.1418 38.3407 52.0186 38.3544C51.9801 38.3642 51.94 38.3662 51.9008 38.3602Z" fill="#263238"/>
<path d="M44.7649 32.96H44.7161C44.3098 32.96 43.9805 33.2969 43.9805 33.7125V37.6076C43.9805 38.0232 44.3098 38.3601 44.7161 38.3601H44.7649C45.1712 38.3601 45.5005 38.0232 45.5005 37.6076V33.7125C45.5005 33.2969 45.1712 32.96 44.7649 32.96Z" fill="#E0E0E0"/>
<path d="M44.7636 38.3601C44.9211 38.3384 45.0705 38.2756 45.1975 38.1779C45.3385 38.0596 45.4292 37.8899 45.4503 37.7046C45.4503 37.49 45.4503 37.2225 45.4503 36.9403C45.4503 36.3523 45.4503 35.6821 45.4331 34.9354C45.4331 34.5562 45.4331 34.1593 45.4331 33.7595C45.4378 33.6632 45.4225 33.5669 45.3881 33.4771C45.3538 33.3872 45.3012 33.3059 45.2339 33.2384C45.1665 33.1709 45.0859 33.1187 44.9974 33.0854C44.9089 33.0521 44.8145 33.0384 44.7205 33.0452C44.6257 33.0446 44.5319 33.065 44.4456 33.1051C44.3592 33.1452 44.2825 33.204 44.2205 33.2774C44.1597 33.3503 44.1139 33.435 44.0857 33.5264C44.0576 33.6178 44.0477 33.7141 44.0567 33.8095C44.0567 34.2211 44.0567 34.6179 44.0567 34.9854C44.0567 35.735 44.0567 36.4141 44.0395 36.9932C44.0395 37.1343 44.0395 37.2695 44.0395 37.3988C44.029 37.5162 44.029 37.6343 44.0395 37.7516C44.0733 37.9361 44.1765 38.0997 44.3268 38.2073C44.4593 38.2956 44.6116 38.3482 44.7693 38.3601C44.7693 38.3601 44.7291 38.3601 44.6429 38.3601C44.5192 38.3539 44.3992 38.3143 44.2952 38.2455C44.1247 38.1345 44.0039 37.9591 43.959 37.7575C43.9411 37.6349 43.9334 37.511 43.936 37.3871C43.936 37.2577 43.936 37.1225 43.936 36.9814C43.936 36.3935 43.936 35.7232 43.936 34.9736C43.936 34.5973 43.936 34.2005 43.936 33.7977C43.9191 33.5687 43.9903 33.3419 44.1343 33.1657C44.2094 33.0742 44.303 33.0005 44.4087 32.9498C44.5144 32.899 44.6296 32.8724 44.7463 32.8717C44.8612 32.865 44.9762 32.8832 45.0837 32.9253C45.1912 32.9673 45.2887 33.0322 45.3699 33.1157C45.4486 33.1977 45.5101 33.2953 45.5506 33.4025C45.5911 33.5096 45.6098 33.6241 45.6055 33.7389C45.6055 34.1476 45.6055 34.5444 45.6055 34.9148C45.6055 35.6615 45.6055 36.3406 45.6055 36.9197C45.6055 37.2136 45.6055 37.4576 45.5854 37.6958C45.5579 37.897 45.4548 38.0794 45.298 38.2043C45.1991 38.2806 45.082 38.3283 44.959 38.3425C44.8973 38.3694 44.8289 38.3756 44.7636 38.3601Z" fill="#263238"/>
<g opacity="0.3">
<path opacity="0.3" d="M43.1081 35.5293C43.2039 36.4867 43.1144 37.4541 42.8446 38.3762C42.5748 39.2982 42.13 40.1568 41.5358 40.9029C40.9415 41.649 40.2093 42.268 39.3811 42.7245C38.5529 43.181 37.6449 43.4661 36.709 43.5634L36.9963 39.5449L40.5565 35.5852L43.1081 35.5293Z" fill="black"/>
</g>
<path d="M37.4729 41.8952C41.0614 40.9696 43.2371 37.2432 42.3324 33.572C41.4277 29.9008 37.7852 27.675 34.1967 28.6005C30.6083 29.5261 28.4326 33.2525 29.3373 36.9237C30.242 40.5949 33.8845 42.8207 37.4729 41.8952Z" fill="white"/>
<path d="M35.8295 42.8402C34.4063 42.8392 33.0133 42.4197 31.8166 41.6316C30.62 40.8434 29.67 39.7199 29.08 38.3949C28.49 37.0699 28.2847 35.5993 28.4888 34.1583C28.6928 32.7173 29.2976 31.3668 30.2309 30.2675C31.1642 29.1683 32.3867 28.3668 33.7528 27.9585C35.1189 27.5502 36.571 27.5523 37.9359 27.9646C39.3009 28.3769 40.5212 29.182 41.4514 30.284C42.3817 31.386 42.9826 32.7383 43.1826 34.1799C43.4566 36.173 42.9468 38.196 41.765 39.8051C40.5831 41.4143 38.8258 42.4782 36.8783 42.7637C36.531 42.8152 36.1804 42.8407 35.8295 42.8402ZM35.8467 29.1325C35.5583 29.1321 35.2702 29.1528 34.9847 29.1942C33.815 29.3661 32.7213 29.8889 31.8419 30.6965C30.9625 31.5041 30.3369 32.5603 30.0441 33.7316C29.7513 34.9028 29.8044 36.1366 30.1968 37.277C30.5892 38.4174 31.3033 39.4132 32.2487 40.1385C33.1942 40.8638 34.3285 41.2861 35.5085 41.352C36.6885 41.418 37.8611 41.1245 38.8781 40.5089C39.8951 39.8932 40.7109 38.9829 41.2224 37.893C41.7338 36.8031 41.918 35.5826 41.7516 34.3857C41.5492 32.93 40.8408 31.5978 39.7563 30.633C38.6719 29.6682 37.2839 29.1355 35.8467 29.1325Z" fill="#455A64"/>
<path d="M35.8449 29.1326C35.8773 29.128 35.9102 29.128 35.9426 29.1326C36.0058 29.1326 36.1006 29.1326 36.2299 29.1326C36.5961 29.1495 36.9599 29.2027 37.3161 29.2914C37.8808 29.4341 38.422 29.661 38.9223 29.9645C39.589 30.3665 40.1742 30.8954 40.6464 31.5226C41.2169 32.285 41.6038 33.1743 41.7757 34.1183C41.8195 34.3771 41.8502 34.6381 41.8676 34.9003C41.8748 35.0344 41.8748 35.1688 41.8676 35.303C41.8676 35.4382 41.8676 35.5764 41.8676 35.7116C41.8219 36.277 41.706 36.8341 41.5228 37.3696C41.3098 37.9261 41.0268 38.4519 40.6809 38.9335C40.3135 39.4278 39.8813 39.868 39.3965 40.2416C38.3568 41.0183 37.1021 41.4354 35.8148 41.4323C34.5275 41.4291 33.2747 41.0058 32.2387 40.224C31.7531 39.8502 31.3208 39.4089 30.9543 38.9129C30.6162 38.4275 30.3418 37.8987 30.1383 37.3402C29.9569 36.8055 29.8429 36.2493 29.7992 35.6851C29.7228 34.5414 29.9592 33.3985 30.482 32.3845C31.0047 31.3705 31.7931 30.5254 32.7588 29.944C33.4453 29.5343 34.2058 29.2713 34.9944 29.1708L35.457 29.1444L35.7443 29.1297C35.7768 29.1264 35.8095 29.1264 35.842 29.1297H35.7443L35.457 29.1561L34.9972 29.1973C34.8162 29.2267 34.6122 29.2678 34.3823 29.3266C33.0794 29.6674 31.9284 30.451 31.1181 31.549C30.5603 32.2988 30.1814 33.1716 30.0118 34.0977C29.9173 34.6111 29.8892 35.1349 29.9285 35.6558C29.9724 36.2082 30.0854 36.7525 30.2647 37.2755C30.4648 37.82 30.7343 38.335 31.0664 38.8071C31.4256 39.2902 31.8482 39.7205 32.3221 40.0858C33.3334 40.8466 34.5552 41.2584 35.8105 41.2615C37.0658 41.2647 38.2895 40.8591 39.3045 40.1035C39.7799 39.74 40.2035 39.3106 40.5631 38.8277C40.8969 38.3567 41.1684 37.8427 41.3705 37.299C41.5538 36.7778 41.6697 36.2342 41.7153 35.6822C41.7326 35.5499 41.7153 35.4147 41.7153 35.2824C41.7225 35.1512 41.7225 35.0197 41.7153 34.8885C41.6894 34.6269 41.678 34.3711 41.6291 34.1212C41.465 33.1942 41.0911 32.3193 40.5372 31.5667C39.7257 30.4709 38.58 29.6836 37.2816 29.3296C36.9293 29.2355 36.5698 29.1726 36.2069 29.1414C35.9771 29.1385 35.8449 29.1385 35.8449 29.1326Z" fill="#263238"/>
<path d="M35.8291 42.8402C35.8291 42.8402 35.8694 42.8402 35.9498 42.8402L36.3004 42.8137C36.4555 42.7991 36.6452 42.7814 36.8751 42.7461L37.6423 42.5845C38.3311 42.3936 38.992 42.1099 39.6077 41.7408C40.4145 41.2367 41.1228 40.5838 41.6967 39.8153C42.3834 38.878 42.8504 37.7917 43.0616 36.6404C43.0948 36.4854 43.1178 36.3283 43.1305 36.1701C43.1305 36.0113 43.165 35.8526 43.1794 35.688C43.1937 35.5234 43.1794 35.3646 43.1794 35.197V34.9501L43.1564 34.7002C43.1119 34.0124 42.9726 33.3345 42.7426 32.6866C42.2261 31.2386 41.2881 29.9874 40.055 29.1017C38.8219 28.216 37.353 27.7384 35.8464 27.7332C34.3354 27.7281 32.8597 28.1999 31.6204 29.0842C30.3812 29.9686 29.4387 31.2224 28.9214 32.6748C28.4683 33.9435 28.362 35.3145 28.614 36.6404C28.7208 37.238 28.8974 37.8203 29.1398 38.3748C29.2568 38.6346 29.3872 38.8878 29.5306 39.1333L29.7432 39.489L29.9817 39.8153C30.5488 40.5846 31.255 41.2353 32.0621 41.7319C32.6757 42.1052 33.3372 42.3892 34.0275 42.5756C34.2786 42.6454 34.534 42.6984 34.7918 42.7344C34.9818 42.7692 35.1738 42.7918 35.3665 42.802L35.7199 42.8284C35.7601 42.8252 35.8005 42.8252 35.8406 42.8284H35.7199H35.3665C35.1739 42.8241 34.9818 42.8055 34.7918 42.7726C34.5318 42.7438 34.2744 42.6946 34.0217 42.6256C33.3221 42.4485 32.6506 42.1704 32.0276 41.7996C31.1998 41.3042 30.473 40.6505 29.8869 39.8741L29.6455 39.5448L29.4271 39.1862C29.2795 38.9331 29.1452 38.6721 29.0249 38.4042C28.7766 37.8405 28.5953 37.2483 28.4846 36.6404C28.228 35.2945 28.3333 33.9026 28.7892 32.6131C29.316 31.1345 30.2752 29.8578 31.5364 28.9568C32.7976 28.0557 34.2995 27.5741 35.8378 27.5774C37.3767 27.5787 38.8779 28.0647 40.1374 28.9693C41.3969 29.8739 42.3537 31.1533 42.8777 32.6337C43.1115 33.2958 43.2517 33.9887 43.2943 34.6914L43.3144 34.9442V35.197C43.3144 35.3646 43.3144 35.5322 43.3144 35.6968C43.3144 35.8614 43.2684 36.0202 43.2684 36.1818C43.2562 36.3432 43.2322 36.5033 43.1966 36.661C42.9715 37.8301 42.4847 38.9299 41.7743 39.8741C41.189 40.6494 40.4668 41.3055 39.6451 41.8084C39.0192 42.174 38.3486 42.4528 37.6509 42.6374L36.8751 42.7844C36.6845 42.8121 36.4927 42.8298 36.3004 42.8373C36.1452 42.8373 36.013 42.8373 35.9469 42.8373L35.8291 42.8402Z" fill="#263238"/>
<path d="M39.2353 25.7995L38.623 26.804L42.5602 29.3155L43.1724 28.311L39.2353 25.7995Z" fill="#455A64"/>
<path d="M42.552 29.3442C42.552 29.3442 42.6037 29.2384 42.7043 29.0502L43.1267 28.3094L43.141 28.3712C42.2503 27.8214 40.8107 26.9395 39.1987 25.896L39.3021 25.8724L39.282 25.9048L39.2217 25.9988L39.1441 26.1282L38.9889 26.381L38.7016 26.8749L38.67 26.769C39.7705 27.4804 40.7331 28.1154 41.4285 28.5799L42.2503 29.1296C42.4428 29.2619 42.5376 29.3354 42.5376 29.3442C42.4366 29.2994 42.3404 29.2443 42.2503 29.1796L41.4285 28.6769C40.7216 28.2418 39.7217 27.6186 38.5867 26.8984L38.5234 26.8572L38.5637 26.7955L38.851 26.2987L39.0177 26.0576L39.0952 25.9312L39.1355 25.8666L39.1556 25.8225V25.8048L39.2763 25.7637C40.8911 26.7955 42.3164 27.7215 43.1899 28.3006L43.2272 28.3271L43.2043 28.3653C42.9974 28.6857 42.8336 28.9356 42.7244 29.1002C42.6748 29.1871 42.6171 29.2688 42.552 29.3442Z" fill="#263238"/>
<path d="M29.7697 27.4496L26.5508 31.1968L27.4184 31.9769L30.6374 28.2297L29.7697 27.4496Z" fill="#455A64"/>
<path d="M27.421 31.9752C27.421 31.9752 27.5072 31.8577 27.6624 31.6636L28.3261 30.8552C28.9008 30.1762 29.6766 29.2384 30.5789 28.1801V28.286L29.7169 27.5069H29.8232L29.7945 27.5275L29.7628 27.5716L29.7025 27.6422L29.5789 27.7862L29.3347 28.0802L28.8635 28.6181L27.9813 29.6323L26.5848 31.2256V31.161C26.8348 31.3991 27.0388 31.596 27.1997 31.7489C27.2789 31.8206 27.3538 31.8972 27.4239 31.9782C27.3362 31.9242 27.2535 31.8622 27.1768 31.793C27.0245 31.6666 26.7975 31.4784 26.513 31.2286L26.4785 31.1992L26.5072 31.1639L27.8693 29.5441L28.7313 28.5182L29.2255 27.9685C29.3031 27.8744 29.3864 27.7803 29.4669 27.6745L29.5904 27.5305L29.6508 27.457L29.6824 27.4217L29.6996 27.4041H29.8059C30.0933 27.6745 30.3806 27.9361 30.668 28.186L30.7226 28.236L30.6737 28.2918C29.7628 29.356 28.941 30.2908 28.3549 30.9493L27.6681 31.7166C27.5914 31.8082 27.5088 31.8947 27.421 31.9752Z" fill="#263238"/>
<path d="M32.9121 35.8468L33.4839 34.7326L35.5269 35.6792L37.7251 31.5842L38.7538 32.1869L35.9062 37.3519L32.9121 35.8468Z" fill="#455A64"/>
<path d="M35.9099 37.3607L32.9043 35.8497L33.479 34.7297L35.5162 35.6704L37.723 31.5754L38.7575 32.181L35.9099 37.3607ZM32.9244 35.8438L35.907 37.3431L38.7489 32.1898L37.7317 31.6019L35.5306 35.688L33.4991 34.7444L32.9244 35.8438Z" fill="#263238"/>
<path d="M31.8426 43.7105C31.734 43.6764 31.629 43.6311 31.5294 43.5752C31.4092 43.5181 31.2922 43.4543 31.1788 43.3841C31.0244 43.2943 30.8748 43.1962 30.7306 43.0902C30.3489 42.8286 29.9903 42.5335 29.6588 42.2083C29.2534 41.8107 28.8859 41.3746 28.5611 40.906C28.247 40.4366 27.9758 39.9387 27.7508 39.4185C27.5685 38.9889 27.4214 38.5444 27.3112 38.0898C27.267 37.9154 27.2315 37.7388 27.2049 37.5607C27.1783 37.4277 27.16 37.2932 27.1503 37.1579C27.133 37.0432 27.1273 36.927 27.133 36.811C27.1618 36.811 27.2077 37.299 27.4204 38.0604C27.542 38.5059 27.6967 38.9412 27.883 39.3627C28.1159 39.8755 28.3908 40.3672 28.7048 40.8325C29.0212 41.2923 29.3749 41.7241 29.7622 42.123C30.0866 42.4424 30.4333 42.7371 30.7995 43.0049C31.4202 43.4723 31.8569 43.6958 31.8426 43.7105Z" fill="#263238"/>
<path d="M28.4523 42.1436C28.2686 41.977 28.1073 41.7862 27.9724 41.5763C27.6228 41.0897 27.3179 40.5711 27.0615 40.0271C26.8055 39.4817 26.6006 38.9128 26.4495 38.3279C26.3714 38.0906 26.3259 37.8432 26.3145 37.593C26.4061 37.8231 26.4838 38.0587 26.5472 38.2985C26.7253 38.8662 26.9404 39.4211 27.1908 39.9595C27.4453 40.4962 27.7333 41.0156 28.0529 41.5145C28.2005 41.7142 28.334 41.9244 28.4523 42.1436Z" fill="#263238"/>
</g>
<defs>
<clipPath id="clip0_570_26361">
<rect width="34.4754" height="38.2364" fill="white" transform="translate(25.6875 25.7637)"/>
</clipPath>
<clipPath id="clip1_570_26361">
<rect width="34.4754" height="38.2364" fill="white" transform="translate(25.6875 25.7637)"/>
</clipPath>
</defs>
</svg>
