<svg width="315" height="139" viewBox="0 0 315 139" fill="none" xmlns="http://www.w3.org/2000/svg">
<rect opacity="0.2" width="315" height="139" rx="22" fill="#045B62"/>
<path d="M27.616 27.228V28.81H25.012V37H23.052V28.81H20.448V27.228H27.616ZM32.4901 37.126C31.7434 37.126 31.0714 36.9627 30.4741 36.636C29.8767 36.3 29.4054 35.8287 29.0601 35.222C28.7241 34.6153 28.5561 33.9153 28.5561 33.122C28.5561 32.3287 28.7287 31.6287 29.0741 31.022C29.4287 30.4153 29.9094 29.9487 30.5161 29.622C31.1227 29.286 31.7994 29.118 32.5461 29.118C33.2927 29.118 33.9694 29.286 34.5761 29.622C35.1827 29.9487 35.6587 30.4153 36.0041 31.022C36.3587 31.6287 36.5361 32.3287 36.5361 33.122C36.5361 33.9153 36.3541 34.6153 35.9901 35.222C35.6354 35.8287 35.1501 36.3 34.5341 36.636C33.9274 36.9627 33.2461 37.126 32.4901 37.126ZM32.4901 35.418C32.8447 35.418 33.1761 35.334 33.4841 35.166C33.8014 34.9887 34.0534 34.7273 34.2401 34.382C34.4267 34.0367 34.5201 33.6167 34.5201 33.122C34.5201 32.3847 34.3241 31.82 33.9321 31.428C33.5494 31.0267 33.0781 30.826 32.5181 30.826C31.9581 30.826 31.4867 31.0267 31.1041 31.428C30.7307 31.82 30.5441 32.3847 30.5441 33.122C30.5441 33.8593 30.7261 34.4287 31.0901 34.83C31.4634 35.222 31.9301 35.418 32.4901 35.418ZM37.4698 33.094C37.4698 32.31 37.6238 31.6147 37.9318 31.008C38.2491 30.4013 38.6785 29.9347 39.2198 29.608C39.7611 29.2813 40.3631 29.118 41.0258 29.118C41.5298 29.118 42.0105 29.23 42.4678 29.454C42.9251 29.6687 43.2891 29.958 43.5598 30.322V26.64H45.5478V37H43.5598V35.852C43.3171 36.2347 42.9765 36.5427 42.5378 36.776C42.0991 37.0093 41.5905 37.126 41.0118 37.126C40.3585 37.126 39.7611 36.958 39.2198 36.622C38.6785 36.286 38.2491 35.8147 37.9318 35.208C37.6238 34.592 37.4698 33.8873 37.4698 33.094ZM43.5738 33.122C43.5738 32.646 43.4805 32.24 43.2938 31.904C43.1071 31.5587 42.8551 31.2973 42.5378 31.12C42.2205 30.9333 41.8798 30.84 41.5158 30.84C41.1518 30.84 40.8158 30.9287 40.5078 31.106C40.1998 31.2833 39.9478 31.5447 39.7518 31.89C39.5651 32.226 39.4718 32.6273 39.4718 33.094C39.4718 33.5607 39.5651 33.9713 39.7518 34.326C39.9478 34.6713 40.1998 34.9373 40.5078 35.124C40.8251 35.3107 41.1611 35.404 41.5158 35.404C41.8798 35.404 42.2205 35.3153 42.5378 35.138C42.8551 34.9513 43.1071 34.69 43.2938 34.354C43.4805 34.0087 43.5738 33.598 43.5738 33.122ZM46.9581 33.094C46.9581 32.31 47.1121 31.6147 47.4201 31.008C47.7374 30.4013 48.1621 29.9347 48.6941 29.608C49.2354 29.2813 49.8374 29.118 50.5001 29.118C51.0788 29.118 51.5828 29.2347 52.0121 29.468C52.4508 29.7013 52.8008 29.9953 53.0621 30.35V29.244H55.0361V37H53.0621V35.866C52.8101 36.23 52.4601 36.5333 52.0121 36.776C51.5734 37.0093 51.0648 37.126 50.4861 37.126C49.8328 37.126 49.2354 36.958 48.6941 36.622C48.1621 36.286 47.7374 35.8147 47.4201 35.208C47.1121 34.592 46.9581 33.8873 46.9581 33.094ZM53.0621 33.122C53.0621 32.646 52.9688 32.24 52.7821 31.904C52.5954 31.5587 52.3434 31.2973 52.0261 31.12C51.7088 30.9333 51.3681 30.84 51.0041 30.84C50.6401 30.84 50.3041 30.9287 49.9961 31.106C49.6881 31.2833 49.4361 31.5447 49.2401 31.89C49.0534 32.226 48.9601 32.6273 48.9601 33.094C48.9601 33.5607 49.0534 33.9713 49.2401 34.326C49.4361 34.6713 49.6881 34.9373 49.9961 35.124C50.3134 35.3107 50.6494 35.404 51.0041 35.404C51.3681 35.404 51.7088 35.3153 52.0261 35.138C52.3434 34.9513 52.5954 34.69 52.7821 34.354C52.9688 34.0087 53.0621 33.598 53.0621 33.122ZM64.3704 29.244L59.5684 40.668H57.4824L59.1624 36.804L56.0544 29.244H58.2524L60.2544 34.662L62.2844 29.244H64.3704ZM75.4129 27.228V28.81H72.8089V37H70.8489V28.81H68.2449V27.228H75.4129ZM76.339 33.094C76.339 32.31 76.493 31.6147 76.801 31.008C77.1183 30.4013 77.543 29.9347 78.075 29.608C78.6163 29.2813 79.2183 29.118 79.881 29.118C80.4596 29.118 80.9636 29.2347 81.393 29.468C81.8316 29.7013 82.1816 29.9953 82.443 30.35V29.244H84.417V37H82.443V35.866C82.191 36.23 81.841 36.5333 81.393 36.776C80.9543 37.0093 80.4456 37.126 79.867 37.126C79.2136 37.126 78.6163 36.958 78.075 36.622C77.543 36.286 77.1183 35.8147 76.801 35.208C76.493 34.592 76.339 33.8873 76.339 33.094ZM82.443 33.122C82.443 32.646 82.3496 32.24 82.163 31.904C81.9763 31.5587 81.7243 31.2973 81.407 31.12C81.0896 30.9333 80.749 30.84 80.385 30.84C80.021 30.84 79.685 30.9287 79.377 31.106C79.069 31.2833 78.817 31.5447 78.621 31.89C78.4343 32.226 78.341 32.6273 78.341 33.094C78.341 33.5607 78.4343 33.9713 78.621 34.326C78.817 34.6713 79.069 34.9373 79.377 35.124C79.6943 35.3107 80.0303 35.404 80.385 35.404C80.749 35.404 81.0896 35.3153 81.407 35.138C81.7243 34.9513 81.9763 34.69 82.163 34.354C82.3496 34.0087 82.443 33.598 82.443 33.122ZM88.2912 30.448C88.5432 30.0373 88.8699 29.7153 89.2712 29.482C89.6819 29.2487 90.1486 29.132 90.6712 29.132V31.19H90.1532C89.5372 31.19 89.0706 31.3347 88.7532 31.624C88.4452 31.9133 88.2912 32.4173 88.2912 33.136V37H86.3312V29.244H88.2912V30.448ZM95.0294 29.118C95.6081 29.118 96.1167 29.2347 96.5554 29.468C96.9941 29.692 97.3394 29.986 97.5914 30.35V29.244H99.5654V37.056C99.5654 37.7747 99.4207 38.414 99.1314 38.974C98.8421 39.5433 98.4081 39.9913 97.8294 40.318C97.2507 40.654 96.5507 40.822 95.7294 40.822C94.6281 40.822 93.7227 40.5653 93.0134 40.052C92.3134 39.5387 91.9167 38.8387 91.8234 37.952H93.7694C93.8721 38.3067 94.0914 38.5867 94.4274 38.792C94.7727 39.0067 95.1881 39.114 95.6734 39.114C96.2427 39.114 96.7047 38.9413 97.0594 38.596C97.4141 38.26 97.5914 37.7467 97.5914 37.056V35.852C97.3394 36.216 96.9894 36.5193 96.5414 36.762C96.1027 37.0047 95.5987 37.126 95.0294 37.126C94.3761 37.126 93.7787 36.958 93.2374 36.622C92.6961 36.286 92.2667 35.8147 91.9494 35.208C91.6414 34.592 91.4874 33.8873 91.4874 33.094C91.4874 32.31 91.6414 31.6147 91.9494 31.008C92.2667 30.4013 92.6914 29.9347 93.2234 29.608C93.7647 29.2813 94.3667 29.118 95.0294 29.118ZM97.5914 33.122C97.5914 32.646 97.4981 32.24 97.3114 31.904C97.1247 31.5587 96.8727 31.2973 96.5554 31.12C96.2381 30.9333 95.8974 30.84 95.5334 30.84C95.1694 30.84 94.8334 30.9287 94.5254 31.106C94.2174 31.2833 93.9654 31.5447 93.7694 31.89C93.5827 32.226 93.4894 32.6273 93.4894 33.094C93.4894 33.5607 93.5827 33.9713 93.7694 34.326C93.9654 34.6713 94.2174 34.9373 94.5254 35.124C94.8427 35.3107 95.1787 35.404 95.5334 35.404C95.8974 35.404 96.2381 35.3153 96.5554 35.138C96.8727 34.9513 97.1247 34.69 97.3114 34.354C97.4981 34.0087 97.5914 33.598 97.5914 33.122ZM108.69 32.954C108.69 33.234 108.671 33.486 108.634 33.71H102.964C103.01 34.27 103.206 34.7087 103.552 35.026C103.897 35.3433 104.322 35.502 104.826 35.502C105.554 35.502 106.072 35.1893 106.38 34.564H108.494C108.27 35.3107 107.84 35.9267 107.206 36.412C106.571 36.888 105.792 37.126 104.868 37.126C104.121 37.126 103.449 36.9627 102.852 36.636C102.264 36.3 101.802 35.8287 101.466 35.222C101.139 34.6153 100.976 33.9153 100.976 33.122C100.976 32.3193 101.139 31.6147 101.466 31.008C101.792 30.4013 102.25 29.9347 102.838 29.608C103.426 29.2813 104.102 29.118 104.868 29.118C105.605 29.118 106.263 29.2767 106.842 29.594C107.43 29.9113 107.882 30.364 108.2 30.952C108.526 31.5307 108.69 32.198 108.69 32.954ZM106.66 32.394C106.65 31.89 106.468 31.4887 106.114 31.19C105.759 30.882 105.325 30.728 104.812 30.728C104.326 30.728 103.916 30.8773 103.58 31.176C103.253 31.4653 103.052 31.8713 102.978 32.394H106.66ZM112.402 30.854V34.606C112.402 34.8673 112.463 35.0587 112.584 35.18C112.715 35.292 112.93 35.348 113.228 35.348H114.138V37H112.906C111.254 37 110.428 36.1973 110.428 34.592V30.854H109.504V29.244H110.428V27.326H112.402V29.244H114.138V30.854H112.402Z" fill="#1D1617"/>
<rect x="271" y="20" width="24" height="24" rx="8" fill="#045B62"/>
<path d="M283 27.9167V36.0834" stroke="white" stroke-width="1.2" stroke-linecap="round" stroke-linejoin="round"/>
<path d="M278.916 32H287.083" stroke="white" stroke-width="1.2" stroke-linecap="round" stroke-linejoin="round"/>
<rect x="20" y="59" width="130" height="60" rx="12" fill="white"/>
<path d="M64.562 78.666C63.5913 78.1807 63.106 77.4153 63.106 76.37C63.106 75.866 63.232 75.404 63.484 74.984C63.736 74.564 64.114 74.2327 64.618 73.99C65.122 73.738 65.738 73.612 66.466 73.612C67.1847 73.612 67.796 73.738 68.3 73.99C68.8133 74.2327 69.196 74.564 69.448 74.984C69.7 75.404 69.826 75.866 69.826 76.37C69.826 76.8927 69.6907 77.3547 69.42 77.756C69.1587 78.148 68.8087 78.4513 68.37 78.666C68.902 78.862 69.322 79.184 69.63 79.632C69.938 80.0707 70.092 80.5887 70.092 81.186C70.092 81.7927 69.938 82.3293 69.63 82.796C69.322 83.2627 68.8927 83.622 68.342 83.874C67.7913 84.126 67.166 84.252 66.466 84.252C65.766 84.252 65.1407 84.126 64.59 83.874C64.0487 83.622 63.624 83.2627 63.316 82.796C63.008 82.3293 62.854 81.7927 62.854 81.186C62.854 80.5793 63.008 80.0567 63.316 79.618C63.624 79.1793 64.0393 78.862 64.562 78.666ZM68.3 76.566C68.3 76.0433 68.1367 75.642 67.81 75.362C67.4833 75.082 67.0353 74.942 66.466 74.942C65.906 74.942 65.4627 75.082 65.136 75.362C64.8093 75.642 64.646 76.048 64.646 76.58C64.646 77.0467 64.814 77.4293 65.15 77.728C65.4953 78.0173 65.934 78.162 66.466 78.162C66.998 78.162 67.4367 78.0127 67.782 77.714C68.1273 77.4153 68.3 77.0327 68.3 76.566ZM66.466 79.366C65.85 79.366 65.346 79.52 64.954 79.828C64.5713 80.1267 64.38 80.5607 64.38 81.13C64.38 81.662 64.5667 82.096 64.94 82.432C65.3133 82.7587 65.822 82.922 66.466 82.922C67.1007 82.922 67.6 82.754 67.964 82.418C68.3373 82.082 68.524 81.6527 68.524 81.13C68.524 80.57 68.3327 80.136 67.95 79.828C67.5767 79.52 67.082 79.366 66.466 79.366ZM73.5737 82.712H76.8637V84H71.9777V74.27H73.5737V82.712Z" fill="#045B62"/>
<path d="M73.436 95.636L71.012 104H69.788L67.844 97.268L65.828 104L64.616 104.012L62.276 95.636H63.44L65.264 102.728L67.28 95.636H68.504L70.424 102.704L72.26 95.636H73.436ZM74.223 100.688C74.223 100.016 74.359 99.428 74.631 98.924C74.903 98.412 75.275 98.016 75.747 97.736C76.227 97.456 76.759 97.316 77.343 97.316C77.919 97.316 78.419 97.44 78.843 97.688C79.267 97.936 79.583 98.248 79.791 98.624V97.424H80.895V104H79.791V102.776C79.575 103.16 79.251 103.48 78.819 103.736C78.395 103.984 77.899 104.108 77.331 104.108C76.747 104.108 76.219 103.964 75.747 103.676C75.275 103.388 74.903 102.984 74.631 102.464C74.359 101.944 74.223 101.352 74.223 100.688ZM79.791 100.7C79.791 100.204 79.691 99.772 79.491 99.404C79.291 99.036 79.019 98.756 78.675 98.564C78.339 98.364 77.967 98.264 77.559 98.264C77.151 98.264 76.779 98.36 76.443 98.552C76.107 98.744 75.839 99.024 75.639 99.392C75.439 99.76 75.339 100.192 75.339 100.688C75.339 101.192 75.439 101.632 75.639 102.008C75.839 102.376 76.107 102.66 76.443 102.86C76.779 103.052 77.151 103.148 77.559 103.148C77.967 103.148 78.339 103.052 78.675 102.86C79.019 102.66 79.291 102.376 79.491 102.008C79.691 101.632 79.791 101.196 79.791 100.7ZM84.0724 98.324V102.2C84.0724 102.52 84.1404 102.748 84.2764 102.884C84.4124 103.012 84.6484 103.076 84.9844 103.076H85.7884V104H84.8044C84.1964 104 83.7404 103.86 83.4364 103.58C83.1324 103.3 82.9804 102.84 82.9804 102.2V98.324H82.1284V97.424H82.9804V95.768H84.0724V97.424H85.7884V98.324H84.0724ZM93.1115 100.46C93.1115 100.668 93.0995 100.888 93.0755 101.12H87.8195C87.8595 101.768 88.0795 102.276 88.4795 102.644C88.8875 103.004 89.3795 103.184 89.9555 103.184C90.4275 103.184 90.8195 103.076 91.1315 102.86C91.4515 102.636 91.6755 102.34 91.8035 101.972H92.9795C92.8035 102.604 92.4515 103.12 91.9235 103.52C91.3955 103.912 90.7395 104.108 89.9555 104.108C89.3315 104.108 88.7715 103.968 88.2755 103.688C87.7875 103.408 87.4035 103.012 87.1235 102.5C86.8435 101.98 86.7035 101.38 86.7035 100.7C86.7035 100.02 86.8395 99.424 87.1115 98.912C87.3835 98.4 87.7635 98.008 88.2515 97.736C88.7475 97.456 89.3155 97.316 89.9555 97.316C90.5795 97.316 91.1315 97.452 91.6115 97.724C92.0915 97.996 92.4595 98.372 92.7155 98.852C92.9795 99.324 93.1115 99.86 93.1115 100.46ZM91.9835 100.232C91.9835 99.816 91.8915 99.46 91.7075 99.164C91.5235 98.86 91.2715 98.632 90.9515 98.48C90.6395 98.32 90.2915 98.24 89.9075 98.24C89.3555 98.24 88.8835 98.416 88.4915 98.768C88.1075 99.12 87.8875 99.608 87.8315 100.232H91.9835ZM95.6449 98.492C95.8369 98.116 96.1089 97.824 96.4609 97.616C96.8209 97.408 97.2569 97.304 97.7689 97.304V98.432H97.4809C96.2569 98.432 95.6449 99.096 95.6449 100.424V104H94.5529V97.424H95.6449V98.492ZM103.321 95.636V104H102.229V95.636H103.321ZM108.386 97.304C109.186 97.304 109.834 97.548 110.33 98.036C110.826 98.516 111.074 99.212 111.074 100.124V104H109.994V100.28C109.994 99.624 109.83 99.124 109.502 98.78C109.174 98.428 108.726 98.252 108.158 98.252C107.582 98.252 107.122 98.432 106.778 98.792C106.442 99.152 106.274 99.676 106.274 100.364V104H105.182V97.424H106.274V98.36C106.49 98.024 106.782 97.764 107.15 97.58C107.526 97.396 107.938 97.304 108.386 97.304ZM114.19 98.324V102.2C114.19 102.52 114.258 102.748 114.394 102.884C114.53 103.012 114.766 103.076 115.102 103.076H115.906V104H114.922C114.314 104 113.858 103.86 113.554 103.58C113.25 103.3 113.098 102.84 113.098 102.2V98.324H112.246V97.424H113.098V95.768H114.19V97.424H115.906V98.324H114.19ZM116.821 100.688C116.821 100.016 116.957 99.428 117.229 98.924C117.501 98.412 117.873 98.016 118.345 97.736C118.825 97.456 119.357 97.316 119.941 97.316C120.517 97.316 121.017 97.44 121.441 97.688C121.865 97.936 122.181 98.248 122.389 98.624V97.424H123.493V104H122.389V102.776C122.173 103.16 121.849 103.48 121.417 103.736C120.993 103.984 120.497 104.108 119.929 104.108C119.345 104.108 118.817 103.964 118.345 103.676C117.873 103.388 117.501 102.984 117.229 102.464C116.957 101.944 116.821 101.352 116.821 100.688ZM122.389 100.7C122.389 100.204 122.289 99.772 122.089 99.404C121.889 99.036 121.617 98.756 121.273 98.564C120.937 98.364 120.565 98.264 120.157 98.264C119.749 98.264 119.377 98.36 119.041 98.552C118.705 98.744 118.437 99.024 118.237 99.392C118.037 99.76 117.937 100.192 117.937 100.688C117.937 101.192 118.037 101.632 118.237 102.008C118.437 102.376 118.705 102.66 119.041 102.86C119.377 103.052 119.749 103.148 120.157 103.148C120.565 103.148 120.937 103.052 121.273 102.86C121.617 102.66 121.889 102.376 122.089 102.008C122.289 101.632 122.389 101.196 122.389 100.7ZM129.01 104L126.43 101.096V104H125.338V95.12H126.43V100.34L128.962 97.424H130.486L127.39 100.7L130.498 104H129.01ZM137.514 100.46C137.514 100.668 137.502 100.888 137.478 101.12H132.222C132.262 101.768 132.482 102.276 132.882 102.644C133.29 103.004 133.782 103.184 134.358 103.184C134.83 103.184 135.222 103.076 135.534 102.86C135.854 102.636 136.078 102.34 136.206 101.972H137.382C137.206 102.604 136.854 103.12 136.326 103.52C135.798 103.912 135.142 104.108 134.358 104.108C133.734 104.108 133.174 103.968 132.678 103.688C132.19 103.408 131.806 103.012 131.526 102.5C131.246 101.98 131.106 101.38 131.106 100.7C131.106 100.02 131.242 99.424 131.514 98.912C131.786 98.4 132.166 98.008 132.654 97.736C133.15 97.456 133.718 97.316 134.358 97.316C134.982 97.316 135.534 97.452 136.014 97.724C136.494 97.996 136.862 98.372 137.118 98.852C137.382 99.324 137.514 99.86 137.514 100.46ZM136.386 100.232C136.386 99.816 136.294 99.46 136.11 99.164C135.926 98.86 135.674 98.632 135.354 98.48C135.042 98.32 134.694 98.24 134.31 98.24C133.758 98.24 133.286 98.416 132.894 98.768C132.51 99.12 132.29 99.608 132.234 100.232H136.386Z" fill="#7B6F72"/>
<g clip-path="url(#clip0_570_26259)">
<path d="M29 73.9448L31.8065 105.149C31.8923 106.104 36.0496 106.925 41.0934 106.995C46.1372 107.066 50.3137 106.362 50.4232 105.407L54 74.29L29 73.9448Z" fill="#045B62"/>
<g opacity="0.64">
<path opacity="0.64" d="M51.7212 80.2361C51.7551 80.2098 51.7732 80.1847 51.7732 80.1584C51.7732 79.7248 47.163 79.3092 41.4653 79.2303C35.7676 79.1515 31.145 79.4382 31.1371 79.8729C31.1371 79.8992 31.154 79.9255 31.1868 79.9518H31.1055L33.4455 104.397C33.5178 105.147 36.9602 105.79 41.1355 105.849C45.3108 105.907 48.7679 105.358 48.8594 104.61L51.8037 80.2432L51.7212 80.2361Z" fill="white"/>
</g>
<path d="M53.9653 74.1904C53.9722 73.637 48.3979 73.1111 41.5149 73.0158C34.6319 72.9205 29.0466 73.2919 29.0397 73.8454C29.0329 74.3988 34.6071 74.9247 41.4901 75.02C48.3731 75.1153 53.9585 74.7439 53.9653 74.1904Z" fill="#7B6F72"/>
<g opacity="0.51">
<path opacity="0.51" d="M51.8066 80.0953C51.8066 80.487 47.1513 80.7415 41.4163 80.6626C35.6812 80.5838 31.0463 80.2004 31.0508 79.8086C31.0553 79.4168 35.7061 79.1612 41.4411 79.2412C47.1761 79.3213 51.8145 79.7023 51.8066 80.0953Z" fill="white"/>
</g>
<path d="M39.7615 91.5426C39.824 90.6802 39.868 89.8174 39.8936 88.9542C39.9083 88.4764 39.2025 88.4406 39.1878 88.9232C39.1644 89.7115 39.1268 90.4994 39.0748 91.287L37.3266 91.2105C37.3424 90.6491 37.3578 90.0885 37.3729 89.5287C37.3853 89.051 36.6794 89.0151 36.6659 89.4977C36.626 90.9501 36.5883 92.403 36.5529 93.8562C36.5394 94.334 37.2452 94.3698 37.2588 93.8873C37.2761 93.2447 37.2934 92.6013 37.3107 91.9571L39.024 92.0323C38.963 92.8015 38.8877 93.5688 38.7981 94.334C38.7428 94.8118 39.4487 94.8393 39.504 94.3651C39.6011 93.5337 39.6817 92.7008 39.7457 91.8663C39.7686 91.8162 39.7817 91.7617 39.7845 91.7061C39.7872 91.6505 39.7794 91.5949 39.7615 91.5426Z" fill="white"/>
<path d="M41.3501 97.0731C41.2937 97.0731 40.8374 97.0253 40.6657 97.0038C40.7607 96.9251 40.8478 96.8363 40.9255 96.7386C40.9921 96.6646 41.0633 96.5953 41.1288 96.5188C41.401 96.1987 41.6042 95.8022 41.497 95.3614C41.3061 94.5755 40.2659 94.5253 40.0773 95.3387C39.9644 95.8046 40.642 96.0351 40.7549 95.5669C40.878 95.5669 40.8837 95.6445 40.7708 95.7962C40.7113 95.9012 40.6384 95.9969 40.5539 96.0805C40.4545 96.1916 40.3484 96.2967 40.2546 96.4137C40.0841 96.6299 39.9158 96.8987 39.9497 97.1949C40.0254 97.8554 40.8758 97.7706 41.3253 97.8196C41.7748 97.8686 41.8008 97.128 41.3501 97.0731Z" fill="white"/>
<path d="M44.5238 89.5146C44.5203 89.4271 44.4843 89.3445 44.4236 89.2848C44.363 89.2251 44.2825 89.1931 44.1997 89.1957C43.0138 89.1802 42.413 91.0387 42.3825 92.054C42.3475 93.1887 42.8693 94.5767 44.1172 94.5934C45.3426 94.6101 46.0925 93.393 46.1964 92.22C46.2868 91.1988 45.5719 89.6998 44.5238 89.5146ZM45.4714 92.3502C45.3584 93.0896 44.8389 93.952 44.0212 93.8373C43.2036 93.7227 43.0455 92.6309 43.0951 91.9405C43.1206 91.5945 43.2016 91.2557 43.3346 90.9384C43.4351 90.6995 43.6564 90.2217 43.9298 90.027C43.9645 90.0974 44.0189 90.1547 44.0857 90.1911C44.1524 90.2274 44.2281 90.2411 44.3025 90.2301C44.6842 90.1811 45.1235 90.8273 45.2907 91.1271C45.4876 91.4987 45.5518 91.9328 45.4714 92.3502Z" fill="white"/>
</g>
<rect x="165" y="59" width="130" height="60" rx="12" fill="white"/>
<path d="M208.722 81.83C209.618 81.0553 210.323 80.4207 210.836 79.926C211.359 79.422 211.793 78.8993 212.138 78.358C212.483 77.8167 212.656 77.2753 212.656 76.734C212.656 76.174 212.521 75.7353 212.25 75.418C211.989 75.1007 211.573 74.942 211.004 74.942C210.453 74.942 210.024 75.1193 209.716 75.474C209.417 75.8193 209.259 76.286 209.24 76.874H207.7C207.728 75.81 208.045 74.998 208.652 74.438C209.268 73.8687 210.047 73.584 210.99 73.584C212.007 73.584 212.801 73.864 213.37 74.424C213.949 74.984 214.238 75.7307 214.238 76.664C214.238 77.336 214.065 77.9847 213.72 78.61C213.384 79.226 212.978 79.7813 212.502 80.276C212.035 80.7613 211.438 81.326 210.71 81.97L210.08 82.53H214.518V83.86H207.714V82.698L208.722 81.83ZM215.724 81.872V80.668L220.428 73.92H222.36V80.486H223.662V81.872H222.36V84H220.792V81.872H215.724ZM220.862 75.544L217.558 80.486H220.862V75.544ZM224.985 78.764C224.985 77.1493 225.255 75.8893 225.797 74.984C226.347 74.0693 227.29 73.612 228.625 73.612C229.959 73.612 230.897 74.0693 231.439 74.984C231.989 75.8893 232.265 77.1493 232.265 78.764C232.265 80.3973 231.989 81.676 231.439 82.6C230.897 83.5147 229.959 83.972 228.625 83.972C227.29 83.972 226.347 83.5147 225.797 82.6C225.255 81.676 224.985 80.3973 224.985 78.764ZM230.697 78.764C230.697 78.008 230.645 77.3687 230.543 76.846C230.449 76.3233 230.253 75.8987 229.955 75.572C229.656 75.236 229.213 75.068 228.625 75.068C228.037 75.068 227.593 75.236 227.295 75.572C226.996 75.8987 226.795 76.3233 226.693 76.846C226.599 77.3687 226.553 78.008 226.553 78.764C226.553 79.548 226.599 80.206 226.693 80.738C226.786 81.27 226.982 81.6993 227.281 82.026C227.589 82.3527 228.037 82.516 228.625 82.516C229.213 82.516 229.656 82.3527 229.955 82.026C230.263 81.6993 230.463 81.27 230.557 80.738C230.65 80.206 230.697 79.548 230.697 78.764ZM233.953 78.764C233.953 77.1493 234.224 75.8893 234.765 74.984C235.316 74.0693 236.259 73.612 237.593 73.612C238.928 73.612 239.866 74.0693 240.407 74.984C240.958 75.8893 241.233 77.1493 241.233 78.764C241.233 80.3973 240.958 81.676 240.407 82.6C239.866 83.5147 238.928 83.972 237.593 83.972C236.259 83.972 235.316 83.5147 234.765 82.6C234.224 81.676 233.953 80.3973 233.953 78.764ZM239.665 78.764C239.665 78.008 239.614 77.3687 239.511 76.846C239.418 76.3233 239.222 75.8987 238.923 75.572C238.625 75.236 238.181 75.068 237.593 75.068C237.005 75.068 236.562 75.236 236.263 75.572C235.965 75.8987 235.764 76.3233 235.661 76.846C235.568 77.3687 235.521 78.008 235.521 78.764C235.521 79.548 235.568 80.206 235.661 80.738C235.755 81.27 235.951 81.6993 236.249 82.026C236.557 82.3527 237.005 82.516 237.593 82.516C238.181 82.516 238.625 82.3527 238.923 82.026C239.231 81.6993 239.432 81.27 239.525 80.738C239.619 80.206 239.665 79.548 239.665 78.764Z" fill="#045B62"/>
<path d="M212.652 95.636V96.524H209.016V99.344H211.968V100.232H209.016V104H207.924V95.636H212.652ZM216.839 104.108C216.223 104.108 215.663 103.968 215.159 103.688C214.663 103.408 214.271 103.012 213.983 102.5C213.703 101.98 213.563 101.38 213.563 100.7C213.563 100.028 213.707 99.436 213.995 98.924C214.291 98.404 214.691 98.008 215.195 97.736C215.699 97.456 216.263 97.316 216.887 97.316C217.511 97.316 218.075 97.456 218.579 97.736C219.083 98.008 219.479 98.4 219.767 98.912C220.063 99.424 220.211 100.02 220.211 100.7C220.211 101.38 220.059 101.98 219.755 102.5C219.459 103.012 219.055 103.408 218.543 103.688C218.031 103.968 217.463 104.108 216.839 104.108ZM216.839 103.148C217.231 103.148 217.599 103.056 217.943 102.872C218.287 102.688 218.563 102.412 218.771 102.044C218.987 101.676 219.095 101.228 219.095 100.7C219.095 100.172 218.991 99.724 218.783 99.356C218.575 98.988 218.303 98.716 217.967 98.54C217.631 98.356 217.267 98.264 216.875 98.264C216.475 98.264 216.107 98.356 215.771 98.54C215.443 98.716 215.179 98.988 214.979 99.356C214.779 99.724 214.679 100.172 214.679 100.7C214.679 101.236 214.775 101.688 214.967 102.056C215.167 102.424 215.431 102.7 215.759 102.884C216.087 103.06 216.447 103.148 216.839 103.148ZM224.515 104.108C223.899 104.108 223.339 103.968 222.835 103.688C222.339 103.408 221.947 103.012 221.659 102.5C221.379 101.98 221.239 101.38 221.239 100.7C221.239 100.028 221.383 99.436 221.671 98.924C221.967 98.404 222.367 98.008 222.871 97.736C223.375 97.456 223.939 97.316 224.563 97.316C225.187 97.316 225.751 97.456 226.255 97.736C226.759 98.008 227.155 98.4 227.443 98.912C227.739 99.424 227.887 100.02 227.887 100.7C227.887 101.38 227.735 101.98 227.431 102.5C227.135 103.012 226.731 103.408 226.219 103.688C225.707 103.968 225.139 104.108 224.515 104.108ZM224.515 103.148C224.907 103.148 225.275 103.056 225.619 102.872C225.963 102.688 226.239 102.412 226.447 102.044C226.663 101.676 226.771 101.228 226.771 100.7C226.771 100.172 226.667 99.724 226.459 99.356C226.251 98.988 225.979 98.716 225.643 98.54C225.307 98.356 224.943 98.264 224.551 98.264C224.151 98.264 223.783 98.356 223.447 98.54C223.119 98.716 222.855 98.988 222.655 99.356C222.455 99.724 222.355 100.172 222.355 100.7C222.355 101.236 222.451 101.688 222.643 102.056C222.843 102.424 223.107 102.7 223.435 102.884C223.763 103.06 224.123 103.148 224.515 103.148ZM230.654 98.324V102.2C230.654 102.52 230.722 102.748 230.858 102.884C230.994 103.012 231.23 103.076 231.566 103.076H232.37V104H231.386C230.778 104 230.322 103.86 230.018 103.58C229.714 103.3 229.562 102.84 229.562 102.2V98.324H228.71V97.424H229.562V95.768H230.654V97.424H232.37V98.324H230.654ZM239.545 104.084C238.993 104.084 238.497 103.988 238.057 103.796C237.625 103.596 237.285 103.324 237.037 102.98C236.789 102.628 236.661 102.224 236.653 101.768H237.817C237.857 102.16 238.017 102.492 238.297 102.764C238.585 103.028 239.001 103.16 239.545 103.16C240.065 103.16 240.473 103.032 240.769 102.776C241.073 102.512 241.225 102.176 241.225 101.768C241.225 101.448 241.137 101.188 240.961 100.988C240.785 100.788 240.565 100.636 240.301 100.532C240.037 100.428 239.681 100.316 239.233 100.196C238.681 100.052 238.237 99.908 237.901 99.764C237.573 99.62 237.289 99.396 237.049 99.092C236.817 98.78 236.701 98.364 236.701 97.844C236.701 97.388 236.817 96.984 237.049 96.632C237.281 96.28 237.605 96.008 238.021 95.816C238.445 95.624 238.929 95.528 239.473 95.528C240.257 95.528 240.897 95.724 241.393 96.116C241.897 96.508 242.181 97.028 242.245 97.676H241.045C241.005 97.356 240.837 97.076 240.541 96.836C240.245 96.588 239.853 96.464 239.365 96.464C238.909 96.464 238.537 96.584 238.249 96.824C237.961 97.056 237.817 97.384 237.817 97.808C237.817 98.112 237.901 98.36 238.069 98.552C238.245 98.744 238.457 98.892 238.705 98.996C238.961 99.092 239.317 99.204 239.773 99.332C240.325 99.484 240.769 99.636 241.105 99.788C241.441 99.932 241.729 100.16 241.969 100.472C242.209 100.776 242.329 101.192 242.329 101.72C242.329 102.128 242.221 102.512 242.005 102.872C241.789 103.232 241.469 103.524 241.045 103.748C240.621 103.972 240.121 104.084 239.545 104.084ZM245.268 98.324V102.2C245.268 102.52 245.336 102.748 245.472 102.884C245.608 103.012 245.844 103.076 246.18 103.076H246.984V104H246C245.392 104 244.936 103.86 244.632 103.58C244.328 103.3 244.176 102.84 244.176 102.2V98.324H243.324V97.424H244.176V95.768H245.268V97.424H246.984V98.324H245.268ZM254.307 100.46C254.307 100.668 254.295 100.888 254.271 101.12H249.015C249.055 101.768 249.275 102.276 249.675 102.644C250.083 103.004 250.575 103.184 251.151 103.184C251.623 103.184 252.015 103.076 252.327 102.86C252.647 102.636 252.871 102.34 252.999 101.972H254.175C253.999 102.604 253.647 103.12 253.119 103.52C252.591 103.912 251.935 104.108 251.151 104.108C250.527 104.108 249.967 103.968 249.471 103.688C248.983 103.408 248.599 103.012 248.319 102.5C248.039 101.98 247.899 101.38 247.899 100.7C247.899 100.02 248.035 99.424 248.307 98.912C248.579 98.4 248.959 98.008 249.447 97.736C249.943 97.456 250.511 97.316 251.151 97.316C251.775 97.316 252.327 97.452 252.807 97.724C253.287 97.996 253.655 98.372 253.911 98.852C254.175 99.324 254.307 99.86 254.307 100.46ZM253.179 100.232C253.179 99.816 253.087 99.46 252.903 99.164C252.719 98.86 252.467 98.632 252.147 98.48C251.835 98.32 251.487 98.24 251.103 98.24C250.551 98.24 250.079 98.416 249.687 98.768C249.303 99.12 249.083 99.608 249.027 100.232H253.179ZM256.84 98.636C257.056 98.26 257.376 97.948 257.8 97.7C258.232 97.444 258.732 97.316 259.3 97.316C259.884 97.316 260.412 97.456 260.884 97.736C261.364 98.016 261.74 98.412 262.012 98.924C262.284 99.428 262.42 100.016 262.42 100.688C262.42 101.352 262.284 101.944 262.012 102.464C261.74 102.984 261.364 103.388 260.884 103.676C260.412 103.964 259.884 104.108 259.3 104.108C258.74 104.108 258.244 103.984 257.812 103.736C257.388 103.48 257.064 103.164 256.84 102.788V107.12H255.748V97.424H256.84V98.636ZM261.304 100.688C261.304 100.192 261.204 99.76 261.004 99.392C260.804 99.024 260.532 98.744 260.188 98.552C259.852 98.36 259.48 98.264 259.072 98.264C258.672 98.264 258.3 98.364 257.956 98.564C257.62 98.756 257.348 99.04 257.14 99.416C256.94 99.784 256.84 100.212 256.84 100.7C256.84 101.196 256.94 101.632 257.14 102.008C257.348 102.376 257.62 102.66 257.956 102.86C258.3 103.052 258.672 103.148 259.072 103.148C259.48 103.148 259.852 103.052 260.188 102.86C260.532 102.66 260.804 102.376 261.004 102.008C261.204 101.632 261.304 101.192 261.304 100.688ZM266.186 104.108C265.682 104.108 265.23 104.024 264.83 103.856C264.43 103.68 264.114 103.44 263.882 103.136C263.65 102.824 263.522 102.468 263.498 102.068H264.626C264.658 102.396 264.81 102.664 265.082 102.872C265.362 103.08 265.726 103.184 266.174 103.184C266.59 103.184 266.918 103.092 267.158 102.908C267.398 102.724 267.518 102.492 267.518 102.212C267.518 101.924 267.39 101.712 267.134 101.576C266.878 101.432 266.482 101.292 265.946 101.156C265.458 101.028 265.058 100.9 264.746 100.772C264.442 100.636 264.178 100.44 263.954 100.184C263.738 99.92 263.63 99.576 263.63 99.152C263.63 98.816 263.73 98.508 263.93 98.228C264.13 97.948 264.414 97.728 264.782 97.568C265.15 97.4 265.57 97.316 266.042 97.316C266.77 97.316 267.358 97.5 267.806 97.868C268.254 98.236 268.494 98.74 268.526 99.38H267.434C267.41 99.036 267.27 98.76 267.014 98.552C266.766 98.344 266.43 98.24 266.006 98.24C265.614 98.24 265.302 98.324 265.07 98.492C264.838 98.66 264.722 98.88 264.722 99.152C264.722 99.368 264.79 99.548 264.926 99.692C265.07 99.828 265.246 99.94 265.454 100.028C265.67 100.108 265.966 100.2 266.342 100.304C266.814 100.432 267.198 100.56 267.494 100.688C267.79 100.808 268.042 100.992 268.25 101.24C268.466 101.488 268.578 101.812 268.586 102.212C268.586 102.572 268.486 102.896 268.286 103.184C268.086 103.472 267.802 103.7 267.434 103.868C267.074 104.028 266.658 104.108 266.186 104.108Z" fill="#7B6F72"/>
<g clip-path="url(#clip1_570_26259)">
<path fill-rule="evenodd" clip-rule="evenodd" d="M174 101.875C174 102.435 174.442 102.895 174.982 102.895H180.074L181.171 102.069L182.285 102.895H184.701L185.53 102.069L186.36 102.895H187.191L188.021 102.069L188.851 102.895H191.62C192.16 102.895 192.602 102.435 192.602 101.875V100.844V100.509L183.055 98.7344L174 100.509V101.875Z" fill="#7E707D"/>
<path fill-rule="evenodd" clip-rule="evenodd" d="M186.397 81.4381L192.178 79.9107C192.222 79.9107 192.265 79.9033 192.307 79.893C192.501 79.8366 192.643 79.6557 192.643 79.4451V77.5706C192.643 77.3141 192.434 77.105 192.178 77.105H179.864C179.607 77.105 179.396 77.3141 179.396 77.5706V79.2612L186.397 81.4381Z" fill="#F5A96C"/>
<path fill-rule="evenodd" clip-rule="evenodd" d="M173.466 82.067L179.623 84.0326L185.781 82.067C185.824 82.067 185.869 82.0611 185.909 82.0492C186.103 81.9929 186.247 81.8134 186.247 81.6014V79.9108V79.7269C186.247 79.4703 186.036 79.2612 185.781 79.2612H179.397H173.466C173.209 79.2612 173 79.4703 173 79.7269V81.6014C173 81.849 173.197 82.0537 173.442 82.0671H173.466V82.067Z" fill="#FFBC85"/>
<path fill-rule="evenodd" clip-rule="evenodd" d="M193.586 99.0306V100.509H179.247C177.368 99.6511 176.158 99.1159 174.316 96.2308C174.415 94.2235 174.423 92.2869 174.315 90.1917C174.306 90.0212 174.297 89.8496 174.286 89.6764C174.275 89.4901 174.263 89.3023 174.25 89.113C174.104 87.0189 173.844 84.7395 173.441 82.0673H185.781C185.825 82.0673 185.868 82.061 185.908 82.0496C186.246 82.5539 190.202 92.6468 193.551 98.3532C193.568 98.3825 193.558 98.4228 193.561 98.4584C193.578 98.6361 193.586 98.8261 193.586 99.0306Z" fill="#FDE588"/>
<path fill-rule="evenodd" clip-rule="evenodd" d="M174.317 96.231C174.251 97.6012 174.142 99.0026 174 100.509H179.248C178.731 98.2893 176.841 96.231 174.317 96.231Z" fill="#FFBC85"/>
<path fill-rule="evenodd" clip-rule="evenodd" d="M198.999 96.8742V98.4582L195.787 99.6512L192.575 98.4582C192.572 98.4227 192.569 98.3887 192.564 98.3541C192.564 98.3531 192.564 98.3531 192.564 98.3531C192.095 94.2156 187.104 97.4941 185.368 94.2093C184.942 93.4042 184.76 91.7374 184.869 89.4727C184.896 88.9161 184.939 88.3239 185.002 87.6982C185.014 87.5727 185.028 87.4461 185.042 87.3179C185.056 87.185 185.071 87.0511 185.087 86.9157C185.263 85.4414 185.534 83.8082 185.908 82.0656C186.102 82.0091 186.246 81.8297 186.246 81.6178V79.9287H192.178C192.222 79.9287 192.265 79.9229 192.306 79.9109C191.739 82.5554 191.409 84.944 191.289 86.9168C191.281 87.0523 191.273 87.1862 191.267 87.318C191.261 87.4477 191.255 87.5748 191.251 87.7004C191.18 89.7705 191.365 91.2954 191.767 92.055C193.589 95.5025 198.999 91.7181 198.999 96.8742Z" fill="#FDE588"/>
<path fill-rule="evenodd" clip-rule="evenodd" d="M190.932 102.895H191.62C192.16 102.895 192.601 102.436 192.601 101.875V100.844V100.509H190.932V100.844V102.895Z" fill="#6A5C69"/>
<path fill-rule="evenodd" clip-rule="evenodd" d="M190.312 79.9287C189.71 82.7434 189.377 85.2673 189.279 87.3079C189.277 87.3108 189.277 87.3153 189.277 87.3182H191.267C191.365 85.2718 191.7 82.7374 192.307 79.9109C192.305 79.9109 192.304 79.9109 192.302 79.9124C192.262 79.9227 192.221 79.9287 192.178 79.9287H190.312V79.9287Z" fill="#FDD76F"/>
<path fill-rule="evenodd" clip-rule="evenodd" d="M189.278 87.3181C189.17 89.5826 189.685 92.329 190.11 93.1343C191.934 96.5822 197.01 93.1298 197.01 98.2876V98.4581H199V96.8743V96.8728C198.999 91.7181 193.591 95.5026 191.768 92.0547C191.421 91.3992 191.236 90.1713 191.237 88.5149C191.237 88.1367 191.248 87.7378 191.268 87.3181H189.278Z" fill="#FDD76F"/>
<path d="M191.29 86.9165C191.282 87.052 191.274 87.1859 191.268 87.3178C191.262 87.4475 191.257 87.5746 191.252 87.7002H185.043C185.029 87.7002 185.016 87.6997 185.003 87.6981C184.805 87.6783 184.65 87.5108 184.65 87.3079C184.65 87.0908 184.826 86.9155 185.043 86.9155H191.268C191.275 86.9155 191.283 86.9155 191.29 86.9165Z" fill="#7E707D"/>
<path fill-rule="evenodd" clip-rule="evenodd" d="M192.602 99.0305V100.509H190.932L190.897 99.2261C190.988 96.4561 185.436 98.4346 183.7 95.1467C183.299 94.386 183.114 92.023 183.185 89.8562C183.189 89.7244 183.194 89.5936 183.201 89.4639H184.87C184.864 89.5968 184.859 89.7275 184.855 89.8562C184.784 91.9226 184.969 93.4455 185.37 94.2051C187.106 97.4925 192.096 94.2124 192.566 98.353L192.577 98.4582C192.593 98.636 192.602 98.8259 192.602 99.0305Z" fill="#FDD76F"/>
<path fill-rule="evenodd" clip-rule="evenodd" d="M185.908 82.0496C185.5 83.9548 185.214 85.7272 185.042 87.3082C184.974 87.927 184.924 88.5166 184.89 89.0727C184.882 89.205 184.875 89.3353 184.869 89.464H183.199C183.206 89.3353 183.213 89.2045 183.221 89.0717C183.255 88.5156 183.304 87.9271 183.372 87.3082C183.544 85.733 183.829 83.9653 184.234 82.0674H185.781C185.825 82.0673 185.868 82.0611 185.908 82.0496Z" fill="#FDD76F"/>
<path d="M184.891 89.0726C184.882 89.2049 184.875 89.3352 184.869 89.4639C184.863 89.5968 184.858 89.7275 184.854 89.8562H179.413C178.928 89.8562 178.599 89.8656 178.434 89.9928C178.257 90.1288 178.171 90.5007 178.171 91.1296C178.171 91.6129 177.974 91.9833 177.631 92.1444C177.539 92.1873 177.408 92.2287 177.24 92.2287C176.98 92.2287 176.632 92.1293 176.213 91.7814L174.315 90.1915C174.307 90.021 174.297 89.8494 174.287 89.6763C174.275 89.49 174.263 89.3022 174.25 89.1128L176.714 91.1771C177.014 91.4256 177.227 91.4669 177.297 91.434C177.34 91.4141 177.387 91.31 177.387 91.1296C177.387 90.2036 177.557 89.6778 177.955 89.3713C178.344 89.0715 178.863 89.0715 179.413 89.0715H184.869C184.877 89.0715 184.883 89.0715 184.891 89.0726Z" fill="#7E707D"/>
<path fill-rule="evenodd" clip-rule="evenodd" d="M192.601 99.0307V100.509V100.844H193.589L194.419 100.018L195.25 100.844H198.018C198.558 100.844 199 100.385 199 99.8241V98.4583H192.576C192.592 98.6362 192.601 98.8261 192.601 99.0307Z" fill="#7E707D"/>
<path d="M197.01 98.4583V100.844H198.018C198.558 100.844 199 100.385 199 99.8241V98.4583H197.01V98.4583Z" fill="#6A5C69"/>
</g>
<defs>
<clipPath id="clip0_570_26259">
<rect width="25" height="34" fill="white" transform="translate(29 73)"/>
</clipPath>
<clipPath id="clip1_570_26259">
<rect width="26" height="26" fill="white" transform="translate(173 77)"/>
</clipPath>
</defs>
</svg>
