<svg width="315" height="137" viewBox="0 0 315 137" fill="none" xmlns="http://www.w3.org/2000/svg">
<rect opacity="0.2" width="315" height="137" rx="22" fill="#045B62"/>
<path d="M26.288 30.66V31.776H24.068V39H22.7V31.776H20.468V30.66H26.288ZM29.0414 33.348C29.2414 33.012 29.5054 32.752 29.8334 32.568C30.1694 32.376 30.5654 32.28 31.0214 32.28V33.696H30.6734C30.1374 33.696 29.7294 33.832 29.4494 34.104C29.1774 34.376 29.0414 34.848 29.0414 35.52V39H27.6734V32.388H29.0414V33.348ZM31.8229 35.664C31.8229 35 31.9589 34.412 32.2309 33.9C32.5109 33.388 32.8869 32.992 33.3589 32.712C33.8389 32.424 34.3669 32.28 34.9429 32.28C35.4629 32.28 35.9149 32.384 36.2989 32.592C36.6909 32.792 37.0029 33.044 37.2349 33.348V32.388H38.6149V39H37.2349V38.016C37.0029 38.328 36.6869 38.588 36.2869 38.796C35.8869 39.004 35.4309 39.108 34.9189 39.108C34.3509 39.108 33.8309 38.964 33.3589 38.676C32.8869 38.38 32.5109 37.972 32.2309 37.452C31.9589 36.924 31.8229 36.328 31.8229 35.664ZM37.2349 35.688C37.2349 35.232 37.1389 34.836 36.9469 34.5C36.7629 34.164 36.5189 33.908 36.2149 33.732C35.9109 33.556 35.5829 33.468 35.2309 33.468C34.8789 33.468 34.5509 33.556 34.2469 33.732C33.9429 33.9 33.6949 34.152 33.5029 34.488C33.3189 34.816 33.2269 35.208 33.2269 35.664C33.2269 36.12 33.3189 36.52 33.5029 36.864C33.6949 37.208 33.9429 37.472 34.2469 37.656C34.5589 37.832 34.8869 37.92 35.2309 37.92C35.5829 37.92 35.9109 37.832 36.2149 37.656C36.5189 37.48 36.7629 37.224 36.9469 36.888C37.1389 36.544 37.2349 36.144 37.2349 35.688ZM39.9557 35.688C39.9557 35.008 40.0917 34.412 40.3637 33.9C40.6437 33.38 41.0277 32.98 41.5157 32.7C42.0037 32.42 42.5637 32.28 43.1957 32.28C43.9957 32.28 44.6557 32.472 45.1757 32.856C45.7037 33.232 46.0597 33.772 46.2437 34.476H44.7677C44.6477 34.148 44.4557 33.892 44.1917 33.708C43.9277 33.524 43.5957 33.432 43.1957 33.432C42.6357 33.432 42.1877 33.632 41.8517 34.032C41.5237 34.424 41.3597 34.976 41.3597 35.688C41.3597 36.4 41.5237 36.956 41.8517 37.356C42.1877 37.756 42.6357 37.956 43.1957 37.956C43.9877 37.956 44.5117 37.608 44.7677 36.912H46.2437C46.0517 37.584 45.6917 38.12 45.1637 38.52C44.6357 38.912 43.9797 39.108 43.1957 39.108C42.5637 39.108 42.0037 38.968 41.5157 38.688C41.0277 38.4 40.6437 38 40.3637 37.488C40.0917 36.968 39.9557 36.368 39.9557 35.688ZM50.223 35.7L53.271 39H51.423L48.975 36.156V39H47.607V30.12H48.975V35.28L51.375 32.388H53.271L50.223 35.7ZM63.5488 30.66L60.7888 35.976V39H59.4208V35.976L56.6488 30.66H58.1728L60.1048 34.752L62.0368 30.66H63.5488ZM67.5024 39.108C66.8784 39.108 66.3144 38.968 65.8104 38.688C65.3064 38.4 64.9104 38 64.6224 37.488C64.3344 36.968 64.1904 36.368 64.1904 35.688C64.1904 35.016 64.3384 34.42 64.6344 33.9C64.9304 33.38 65.3344 32.98 65.8464 32.7C66.3584 32.42 66.9304 32.28 67.5624 32.28C68.1944 32.28 68.7664 32.42 69.2784 32.7C69.7904 32.98 70.1944 33.38 70.4904 33.9C70.7864 34.42 70.9344 35.016 70.9344 35.688C70.9344 36.36 70.7824 36.956 70.4784 37.476C70.1744 37.996 69.7584 38.4 69.2304 38.688C68.7104 38.968 68.1344 39.108 67.5024 39.108ZM67.5024 37.92C67.8544 37.92 68.1824 37.836 68.4864 37.668C68.7984 37.5 69.0504 37.248 69.2424 36.912C69.4344 36.576 69.5304 36.168 69.5304 35.688C69.5304 35.208 69.4384 34.804 69.2544 34.476C69.0704 34.14 68.8264 33.888 68.5224 33.72C68.2184 33.552 67.8904 33.468 67.5384 33.468C67.1864 33.468 66.8584 33.552 66.5544 33.72C66.2584 33.888 66.0224 34.14 65.8464 34.476C65.6704 34.804 65.5824 35.208 65.5824 35.688C65.5824 36.4 65.7624 36.952 66.1224 37.344C66.4904 37.728 66.9504 37.92 67.5024 37.92ZM78.2747 32.388V39H76.9067V38.22C76.6907 38.492 76.4067 38.708 76.0547 38.868C75.7107 39.02 75.3427 39.096 74.9507 39.096C74.4307 39.096 73.9627 38.988 73.5467 38.772C73.1387 38.556 72.8147 38.236 72.5747 37.812C72.3427 37.388 72.2267 36.876 72.2267 36.276V32.388H73.5827V36.072C73.5827 36.664 73.7307 37.12 74.0267 37.44C74.3227 37.752 74.7267 37.908 75.2387 37.908C75.7507 37.908 76.1547 37.752 76.4507 37.44C76.7547 37.12 76.9067 36.664 76.9067 36.072V32.388H78.2747ZM81.4477 33.348C81.6477 33.012 81.9117 32.752 82.2397 32.568C82.5757 32.376 82.9717 32.28 83.4277 32.28V33.696H83.0797C82.5437 33.696 82.1357 33.832 81.8557 34.104C81.5837 34.376 81.4477 34.848 81.4477 35.52V39H80.0797V32.388H81.4477V33.348ZM93.6343 33.144C93.6343 33.568 93.5343 33.968 93.3343 34.344C93.1343 34.72 92.8143 35.028 92.3743 35.268C91.9343 35.5 91.3703 35.616 90.6823 35.616H89.1703V39H87.8023V30.66H90.6823C91.3223 30.66 91.8623 30.772 92.3023 30.996C92.7503 31.212 93.0823 31.508 93.2983 31.884C93.5223 32.26 93.6343 32.68 93.6343 33.144ZM90.6823 34.5C91.2023 34.5 91.5903 34.384 91.8463 34.152C92.1023 33.912 92.2303 33.576 92.2303 33.144C92.2303 32.232 91.7143 31.776 90.6823 31.776H89.1703V34.5H90.6823ZM96.3071 33.348C96.5071 33.012 96.7711 32.752 97.0991 32.568C97.4351 32.376 97.8311 32.28 98.2871 32.28V33.696H97.9391C97.4031 33.696 96.9951 33.832 96.7151 34.104C96.4431 34.376 96.3071 34.848 96.3071 35.52V39H94.9391V32.388H96.3071V33.348ZM102.413 39.108C101.789 39.108 101.225 38.968 100.721 38.688C100.217 38.4 99.8205 38 99.5325 37.488C99.2445 36.968 99.1005 36.368 99.1005 35.688C99.1005 35.016 99.2485 34.42 99.5445 33.9C99.8405 33.38 100.245 32.98 100.757 32.7C101.269 32.42 101.841 32.28 102.473 32.28C103.105 32.28 103.677 32.42 104.189 32.7C104.701 32.98 105.105 33.38 105.401 33.9C105.697 34.42 105.845 35.016 105.845 35.688C105.845 36.36 105.693 36.956 105.389 37.476C105.085 37.996 104.669 38.4 104.141 38.688C103.621 38.968 103.045 39.108 102.413 39.108ZM102.413 37.92C102.765 37.92 103.093 37.836 103.397 37.668C103.709 37.5 103.961 37.248 104.153 36.912C104.345 36.576 104.441 36.168 104.441 35.688C104.441 35.208 104.349 34.804 104.165 34.476C103.981 34.14 103.737 33.888 103.433 33.72C103.129 33.552 102.801 33.468 102.449 33.468C102.097 33.468 101.769 33.552 101.465 33.72C101.169 33.888 100.933 34.14 100.757 34.476C100.581 34.804 100.493 35.208 100.493 35.688C100.493 36.4 100.673 36.952 101.033 37.344C101.401 37.728 101.861 37.92 102.413 37.92ZM109.861 32.28C110.373 32.28 110.825 32.384 111.217 32.592C111.617 32.792 111.929 33.044 112.153 33.348V32.388H113.533V39.108C113.533 39.716 113.405 40.256 113.149 40.728C112.893 41.208 112.521 41.584 112.033 41.856C111.553 42.128 110.977 42.264 110.305 42.264C109.409 42.264 108.665 42.052 108.073 41.628C107.481 41.212 107.145 40.644 107.065 39.924H108.421C108.525 40.268 108.745 40.544 109.081 40.752C109.425 40.968 109.833 41.076 110.305 41.076C110.857 41.076 111.301 40.908 111.637 40.572C111.981 40.236 112.153 39.748 112.153 39.108V38.004C111.921 38.316 111.605 38.58 111.205 38.796C110.813 39.004 110.365 39.108 109.861 39.108C109.285 39.108 108.757 38.964 108.277 38.676C107.805 38.38 107.429 37.972 107.149 37.452C106.877 36.924 106.741 36.328 106.741 35.664C106.741 35 106.877 34.412 107.149 33.9C107.429 33.388 107.805 32.992 108.277 32.712C108.757 32.424 109.285 32.28 109.861 32.28ZM112.153 35.688C112.153 35.232 112.057 34.836 111.865 34.5C111.681 34.164 111.437 33.908 111.133 33.732C110.829 33.556 110.501 33.468 110.149 33.468C109.797 33.468 109.469 33.556 109.165 33.732C108.861 33.9 108.613 34.152 108.421 34.488C108.237 34.816 108.145 35.208 108.145 35.664C108.145 36.12 108.237 36.52 108.421 36.864C108.613 37.208 108.861 37.472 109.165 37.656C109.477 37.832 109.805 37.92 110.149 37.92C110.501 37.92 110.829 37.832 111.133 37.656C111.437 37.48 111.681 37.224 111.865 36.888C112.057 36.544 112.153 36.144 112.153 35.688ZM116.698 33.348C116.898 33.012 117.162 32.752 117.49 32.568C117.826 32.376 118.222 32.28 118.678 32.28V33.696H118.33C117.794 33.696 117.386 33.832 117.106 34.104C116.834 34.376 116.698 34.848 116.698 35.52V39H115.33V32.388H116.698V33.348ZM125.995 35.532C125.995 35.78 125.979 36.004 125.947 36.204H120.895C120.935 36.732 121.131 37.156 121.483 37.476C121.835 37.796 122.267 37.956 122.779 37.956C123.515 37.956 124.035 37.648 124.339 37.032H125.815C125.615 37.64 125.251 38.14 124.723 38.532C124.203 38.916 123.555 39.108 122.779 39.108C122.147 39.108 121.579 38.968 121.075 38.688C120.579 38.4 120.187 38 119.899 37.488C119.619 36.968 119.479 36.368 119.479 35.688C119.479 35.008 119.615 34.412 119.887 33.9C120.167 33.38 120.555 32.98 121.051 32.7C121.555 32.42 122.131 32.28 122.779 32.28C123.403 32.28 123.959 32.416 124.447 32.688C124.935 32.96 125.315 33.344 125.587 33.84C125.859 34.328 125.995 34.892 125.995 35.532ZM124.567 35.1C124.559 34.596 124.379 34.192 124.027 33.888C123.675 33.584 123.239 33.432 122.719 33.432C122.247 33.432 121.843 33.584 121.507 33.888C121.171 34.184 120.971 34.588 120.907 35.1H124.567ZM129.741 39.108C129.221 39.108 128.753 39.016 128.337 38.832C127.929 38.64 127.605 38.384 127.365 38.064C127.125 37.736 126.997 37.372 126.981 36.972H128.397C128.421 37.252 128.553 37.488 128.793 37.68C129.041 37.864 129.349 37.956 129.717 37.956C130.101 37.956 130.397 37.884 130.605 37.74C130.821 37.588 130.929 37.396 130.929 37.164C130.929 36.916 130.809 36.732 130.569 36.612C130.337 36.492 129.965 36.36 129.453 36.216C128.957 36.08 128.553 35.948 128.241 35.82C127.929 35.692 127.657 35.496 127.425 35.232C127.201 34.968 127.089 34.62 127.089 34.188C127.089 33.836 127.193 33.516 127.401 33.228C127.609 32.932 127.905 32.7 128.289 32.532C128.681 32.364 129.129 32.28 129.633 32.28C130.385 32.28 130.989 32.472 131.445 32.856C131.909 33.232 132.157 33.748 132.189 34.404H130.821C130.797 34.108 130.677 33.872 130.461 33.696C130.245 33.52 129.953 33.432 129.585 33.432C129.225 33.432 128.949 33.5 128.757 33.636C128.565 33.772 128.469 33.952 128.469 34.176C128.469 34.352 128.533 34.5 128.661 34.62C128.789 34.74 128.945 34.836 129.129 34.908C129.313 34.972 129.585 35.056 129.945 35.16C130.425 35.288 130.817 35.42 131.121 35.556C131.433 35.684 131.701 35.876 131.925 36.132C132.149 36.388 132.265 36.728 132.273 37.152C132.273 37.528 132.169 37.864 131.961 38.16C131.753 38.456 131.457 38.688 131.073 38.856C130.697 39.024 130.253 39.108 129.741 39.108ZM136.152 39.108C135.632 39.108 135.164 39.016 134.748 38.832C134.34 38.64 134.016 38.384 133.776 38.064C133.536 37.736 133.408 37.372 133.392 36.972H134.808C134.832 37.252 134.964 37.488 135.204 37.68C135.452 37.864 135.76 37.956 136.128 37.956C136.512 37.956 136.808 37.884 137.016 37.74C137.232 37.588 137.34 37.396 137.34 37.164C137.34 36.916 137.22 36.732 136.98 36.612C136.748 36.492 136.376 36.36 135.864 36.216C135.368 36.08 134.964 35.948 134.652 35.82C134.34 35.692 134.068 35.496 133.836 35.232C133.612 34.968 133.5 34.62 133.5 34.188C133.5 33.836 133.604 33.516 133.812 33.228C134.02 32.932 134.316 32.7 134.7 32.532C135.092 32.364 135.54 32.28 136.044 32.28C136.796 32.28 137.4 32.472 137.856 32.856C138.32 33.232 138.568 33.748 138.6 34.404H137.232C137.208 34.108 137.088 33.872 136.872 33.696C136.656 33.52 136.364 33.432 135.996 33.432C135.636 33.432 135.36 33.5 135.168 33.636C134.976 33.772 134.88 33.952 134.88 34.176C134.88 34.352 134.944 34.5 135.072 34.62C135.2 34.74 135.356 34.836 135.54 34.908C135.724 34.972 135.996 35.056 136.356 35.16C136.836 35.288 137.228 35.42 137.532 35.556C137.844 35.684 138.112 35.876 138.336 36.132C138.56 36.388 138.676 36.728 138.684 37.152C138.684 37.528 138.58 37.864 138.372 38.16C138.164 38.456 137.868 38.688 137.484 38.856C137.108 39.024 136.664 39.108 136.152 39.108ZM144.647 31.764V34.212H147.527V35.328H144.647V37.884H147.887V39H143.279V30.648H147.887V31.764H144.647ZM149.116 35.664C149.116 35 149.252 34.412 149.524 33.9C149.804 33.388 150.18 32.992 150.652 32.712C151.132 32.424 151.66 32.28 152.236 32.28C152.756 32.28 153.208 32.384 153.592 32.592C153.984 32.792 154.296 33.044 154.528 33.348V32.388H155.908V39H154.528V38.016C154.296 38.328 153.98 38.588 153.58 38.796C153.18 39.004 152.724 39.108 152.212 39.108C151.644 39.108 151.124 38.964 150.652 38.676C150.18 38.38 149.804 37.972 149.524 37.452C149.252 36.924 149.116 36.328 149.116 35.664ZM154.528 35.688C154.528 35.232 154.432 34.836 154.24 34.5C154.056 34.164 153.812 33.908 153.508 33.732C153.204 33.556 152.876 33.468 152.524 33.468C152.172 33.468 151.844 33.556 151.54 33.732C151.236 33.9 150.988 34.152 150.796 34.488C150.612 34.816 150.52 35.208 150.52 35.664C150.52 36.12 150.612 36.52 150.796 36.864C150.988 37.208 151.236 37.472 151.54 37.656C151.852 37.832 152.18 37.92 152.524 37.92C152.876 37.92 153.204 37.832 153.508 37.656C153.812 37.48 154.056 37.224 154.24 36.888C154.432 36.544 154.528 36.144 154.528 35.688ZM157.249 35.688C157.249 35.008 157.385 34.412 157.657 33.9C157.937 33.38 158.321 32.98 158.809 32.7C159.297 32.42 159.857 32.28 160.489 32.28C161.289 32.28 161.949 32.472 162.469 32.856C162.997 33.232 163.353 33.772 163.537 34.476H162.061C161.941 34.148 161.749 33.892 161.485 33.708C161.221 33.524 160.889 33.432 160.489 33.432C159.929 33.432 159.481 33.632 159.145 34.032C158.817 34.424 158.653 34.976 158.653 35.688C158.653 36.4 158.817 36.956 159.145 37.356C159.481 37.756 159.929 37.956 160.489 37.956C161.281 37.956 161.805 37.608 162.061 36.912H163.537C163.345 37.584 162.985 38.12 162.457 38.52C161.929 38.912 161.273 39.108 160.489 39.108C159.857 39.108 159.297 38.968 158.809 38.688C158.321 38.4 157.937 38 157.657 37.488C157.385 36.968 157.249 36.368 157.249 35.688ZM168.32 32.28C168.824 32.28 169.272 32.388 169.664 32.604C170.064 32.82 170.376 33.14 170.6 33.564C170.832 33.988 170.948 34.5 170.948 35.1V39H169.592V35.304C169.592 34.712 169.444 34.26 169.148 33.948C168.852 33.628 168.448 33.468 167.936 33.468C167.424 33.468 167.016 33.628 166.712 33.948C166.416 34.26 166.268 34.712 166.268 35.304V39H164.9V30.12H166.268V33.156C166.5 32.876 166.792 32.66 167.144 32.508C167.504 32.356 167.896 32.28 168.32 32.28ZM29.684 48.66V57H28.316V51.288L25.772 57H24.824L22.268 51.288V57H20.9V48.66H22.376L25.304 55.2L28.22 48.66H29.684ZM34.35 57.108C33.726 57.108 33.162 56.968 32.658 56.688C32.154 56.4 31.758 56 31.47 55.488C31.182 54.968 31.038 54.368 31.038 53.688C31.038 53.016 31.186 52.42 31.482 51.9C31.778 51.38 32.182 50.98 32.694 50.7C33.206 50.42 33.778 50.28 34.41 50.28C35.042 50.28 35.614 50.42 36.126 50.7C36.638 50.98 37.042 51.38 37.338 51.9C37.634 52.42 37.782 53.016 37.782 53.688C37.782 54.36 37.63 54.956 37.326 55.476C37.022 55.996 36.606 56.4 36.078 56.688C35.558 56.968 34.982 57.108 34.35 57.108ZM34.35 55.92C34.702 55.92 35.03 55.836 35.334 55.668C35.646 55.5 35.898 55.248 36.09 54.912C36.282 54.576 36.378 54.168 36.378 53.688C36.378 53.208 36.286 52.804 36.102 52.476C35.918 52.14 35.674 51.888 35.37 51.72C35.066 51.552 34.738 51.468 34.386 51.468C34.034 51.468 33.706 51.552 33.402 51.72C33.106 51.888 32.87 52.14 32.694 52.476C32.518 52.804 32.43 53.208 32.43 53.688C32.43 54.4 32.61 54.952 32.97 55.344C33.338 55.728 33.798 55.92 34.35 55.92ZM42.4704 50.28C42.9904 50.28 43.4544 50.388 43.8624 50.604C44.2784 50.82 44.6024 51.14 44.8344 51.564C45.0664 51.988 45.1824 52.5 45.1824 53.1V57H43.8264V53.304C43.8264 52.712 43.6784 52.26 43.3824 51.948C43.0864 51.628 42.6824 51.468 42.1704 51.468C41.6584 51.468 41.2504 51.628 40.9464 51.948C40.6504 52.26 40.5024 52.712 40.5024 53.304V57H39.1344V50.388H40.5024V51.144C40.7264 50.872 41.0104 50.66 41.3544 50.508C41.7064 50.356 42.0784 50.28 42.4704 50.28ZM48.5233 51.504V55.164C48.5233 55.412 48.5793 55.592 48.6913 55.704C48.8113 55.808 49.0113 55.86 49.2913 55.86H50.1313V57H49.0513C48.4353 57 47.9633 56.856 47.6353 56.568C47.3073 56.28 47.1433 55.812 47.1433 55.164V51.504H46.3633V50.388H47.1433V48.744H48.5233V50.388H50.1313V51.504H48.5233ZM54.8122 50.28C55.3162 50.28 55.7642 50.388 56.1562 50.604C56.5562 50.82 56.8682 51.14 57.0922 51.564C57.3242 51.988 57.4402 52.5 57.4402 53.1V57H56.0842V53.304C56.0842 52.712 55.9362 52.26 55.6402 51.948C55.3442 51.628 54.9402 51.468 54.4282 51.468C53.9162 51.468 53.5082 51.628 53.2042 51.948C52.9082 52.26 52.7602 52.712 52.7602 53.304V57H51.3922V48.12H52.7602V51.156C52.9922 50.876 53.2842 50.66 53.6362 50.508C53.9962 50.356 54.3882 50.28 54.8122 50.28ZM73.1623 48.66L70.6903 57H69.1423L67.3903 50.688L65.5303 57L63.9943 57.012L61.6303 48.66H63.0823L64.8103 55.452L66.6823 48.66H68.2183L69.9583 55.416L71.6983 48.66H73.1623ZM74.9866 49.512C74.7386 49.512 74.5306 49.428 74.3626 49.26C74.1946 49.092 74.1106 48.884 74.1106 48.636C74.1106 48.388 74.1946 48.18 74.3626 48.012C74.5306 47.844 74.7386 47.76 74.9866 47.76C75.2266 47.76 75.4306 47.844 75.5986 48.012C75.7666 48.18 75.8506 48.388 75.8506 48.636C75.8506 48.884 75.7666 49.092 75.5986 49.26C75.4306 49.428 75.2266 49.512 74.9866 49.512ZM75.6586 50.388V57H74.2906V50.388H75.6586ZM79.0507 51.504V55.164C79.0507 55.412 79.1067 55.592 79.2187 55.704C79.3387 55.808 79.5387 55.86 79.8187 55.86H80.6587V57H79.5787C78.9627 57 78.4907 56.856 78.1627 56.568C77.8347 56.28 77.6707 55.812 77.6707 55.164V51.504H76.8907V50.388H77.6707V48.744H79.0507V50.388H80.6587V51.504H79.0507ZM85.3395 50.28C85.8435 50.28 86.2915 50.388 86.6835 50.604C87.0835 50.82 87.3955 51.14 87.6195 51.564C87.8515 51.988 87.9675 52.5 87.9675 53.1V57H86.6115V53.304C86.6115 52.712 86.4635 52.26 86.1675 51.948C85.8715 51.628 85.4675 51.468 84.9555 51.468C84.4435 51.468 84.0355 51.628 83.7315 51.948C83.4355 52.26 83.2875 52.712 83.2875 53.304V57H81.9195V48.12H83.2875V51.156C83.5195 50.876 83.8115 50.66 84.1635 50.508C84.5235 50.356 84.9155 50.28 85.3395 50.28Z" fill="#1D1617"/>
<path d="M98.8657 51.216C98.8657 51.664 98.7577 52.084 98.5417 52.476C98.3337 52.868 98.0017 53.184 97.5457 53.424C97.0977 53.664 96.5297 53.784 95.8417 53.784H94.4377V57H92.7577V48.624H95.8417C96.4897 48.624 97.0417 48.736 97.4977 48.96C97.9537 49.184 98.2937 49.492 98.5177 49.884C98.7497 50.276 98.8657 50.72 98.8657 51.216ZM95.7697 52.428C96.2337 52.428 96.5777 52.324 96.8017 52.116C97.0257 51.9 97.1377 51.6 97.1377 51.216C97.1377 50.4 96.6817 49.992 95.7697 49.992H94.4377V52.428H95.7697ZM103.802 50.256C104.306 50.256 104.754 50.368 105.146 50.592C105.538 50.808 105.842 51.132 106.058 51.564C106.282 51.988 106.394 52.5 106.394 53.1V57H104.714V53.328C104.714 52.8 104.582 52.396 104.318 52.116C104.054 51.828 103.694 51.684 103.238 51.684C102.774 51.684 102.406 51.828 102.134 52.116C101.87 52.396 101.738 52.8 101.738 53.328V57H100.058V48.12H101.738V51.18C101.954 50.892 102.242 50.668 102.602 50.508C102.962 50.34 103.362 50.256 103.802 50.256ZM110.944 57.108C110.304 57.108 109.728 56.968 109.216 56.688C108.704 56.4 108.3 55.996 108.004 55.476C107.716 54.956 107.572 54.356 107.572 53.676C107.572 52.996 107.72 52.396 108.016 51.876C108.32 51.356 108.732 50.956 109.252 50.676C109.772 50.388 110.352 50.244 110.992 50.244C111.632 50.244 112.212 50.388 112.732 50.676C113.252 50.956 113.66 51.356 113.956 51.876C114.26 52.396 114.412 52.996 114.412 53.676C114.412 54.356 114.256 54.956 113.944 55.476C113.64 55.996 113.224 56.4 112.696 56.688C112.176 56.968 111.592 57.108 110.944 57.108ZM110.944 55.644C111.248 55.644 111.532 55.572 111.796 55.428C112.068 55.276 112.284 55.052 112.444 54.756C112.604 54.46 112.684 54.1 112.684 53.676C112.684 53.044 112.516 52.56 112.18 52.224C111.852 51.88 111.448 51.708 110.968 51.708C110.488 51.708 110.084 51.88 109.756 52.224C109.436 52.56 109.276 53.044 109.276 53.676C109.276 54.308 109.432 54.796 109.744 55.14C110.064 55.476 110.464 55.644 110.944 55.644ZM117.6 51.732V54.948C117.6 55.172 117.652 55.336 117.756 55.44C117.868 55.536 118.052 55.584 118.308 55.584H119.088V57H118.032C116.616 57 115.908 56.312 115.908 54.936V51.732H115.116V50.352H115.908V48.708H117.6V50.352H119.088V51.732H117.6ZM123.249 57.108C122.609 57.108 122.033 56.968 121.521 56.688C121.009 56.4 120.605 55.996 120.309 55.476C120.021 54.956 119.877 54.356 119.877 53.676C119.877 52.996 120.025 52.396 120.321 51.876C120.625 51.356 121.037 50.956 121.557 50.676C122.077 50.388 122.657 50.244 123.297 50.244C123.937 50.244 124.517 50.388 125.037 50.676C125.557 50.956 125.965 51.356 126.261 51.876C126.565 52.396 126.717 52.996 126.717 53.676C126.717 54.356 126.561 54.956 126.249 55.476C125.945 55.996 125.529 56.4 125.001 56.688C124.481 56.968 123.897 57.108 123.249 57.108ZM123.249 55.644C123.553 55.644 123.837 55.572 124.101 55.428C124.373 55.276 124.589 55.052 124.749 54.756C124.909 54.46 124.989 54.1 124.989 53.676C124.989 53.044 124.821 52.56 124.485 52.224C124.157 51.88 123.753 51.708 123.273 51.708C122.793 51.708 122.389 51.88 122.061 52.224C121.741 52.56 121.581 53.044 121.581 53.676C121.581 54.308 121.737 54.796 122.049 55.14C122.369 55.476 122.769 55.644 123.249 55.644Z" fill="#045B62"/>
<rect x="20" y="77" width="95" height="35" rx="17.5" fill="#045B62"/>
<path d="M41.09 96.89H43.39V98H39.69V91.02H41.09V96.89ZM49.4298 95.11C49.4298 95.31 49.4165 95.49 49.3898 95.65H45.3398C45.3732 96.05 45.5132 96.3633 45.7598 96.59C46.0065 96.8167 46.3098 96.93 46.6698 96.93C47.1898 96.93 47.5598 96.7067 47.7798 96.26H49.2898C49.1298 96.7933 48.8232 97.2333 48.3698 97.58C47.9165 97.92 47.3598 98.09 46.6998 98.09C46.1665 98.09 45.6865 97.9733 45.2598 97.74C44.8398 97.5 44.5098 97.1633 44.2698 96.73C44.0365 96.2967 43.9198 95.7967 43.9198 95.23C43.9198 94.6567 44.0365 94.1533 44.2698 93.72C44.5032 93.2867 44.8298 92.9533 45.2498 92.72C45.6698 92.4867 46.1532 92.37 46.6998 92.37C47.2265 92.37 47.6965 92.4833 48.1098 92.71C48.5298 92.9367 48.8532 93.26 49.0798 93.68C49.3132 94.0933 49.4298 94.57 49.4298 95.11ZM47.9798 94.71C47.9732 94.35 47.8432 94.0633 47.5898 93.85C47.3365 93.63 47.0265 93.52 46.6598 93.52C46.3132 93.52 46.0198 93.6267 45.7798 93.84C45.5465 94.0467 45.4032 94.3367 45.3498 94.71H47.9798ZM50.0917 95.21C50.0917 94.65 50.2017 94.1533 50.4217 93.72C50.6484 93.2867 50.9517 92.9533 51.3317 92.72C51.7184 92.4867 52.1484 92.37 52.6217 92.37C53.0351 92.37 53.3951 92.4533 53.7017 92.62C54.0151 92.7867 54.2651 92.9967 54.4517 93.25V92.46H55.8617V98H54.4517V97.19C54.2717 97.45 54.0217 97.6667 53.7017 97.84C53.3884 98.0067 53.0251 98.09 52.6117 98.09C52.1451 98.09 51.7184 97.97 51.3317 97.73C50.9517 97.49 50.6484 97.1533 50.4217 96.72C50.2017 96.28 50.0917 95.7767 50.0917 95.21ZM54.4517 95.23C54.4517 94.89 54.3851 94.6 54.2517 94.36C54.1184 94.1133 53.9384 93.9267 53.7117 93.8C53.4851 93.6667 53.2417 93.6 52.9817 93.6C52.7217 93.6 52.4817 93.6633 52.2617 93.79C52.0417 93.9167 51.8617 94.1033 51.7217 94.35C51.5884 94.59 51.5217 94.8767 51.5217 95.21C51.5217 95.5433 51.5884 95.8367 51.7217 96.09C51.8617 96.3367 52.0417 96.5267 52.2617 96.66C52.4884 96.7933 52.7284 96.86 52.9817 96.86C53.2417 96.86 53.4851 96.7967 53.7117 96.67C53.9384 96.5367 54.1184 96.35 54.2517 96.11C54.3851 95.8633 54.4517 95.57 54.4517 95.23ZM58.6291 93.32C58.8091 93.0267 59.0424 92.7967 59.3291 92.63C59.6224 92.4633 59.9557 92.38 60.3291 92.38V93.85H59.9591C59.5191 93.85 59.1857 93.9533 58.9591 94.16C58.7391 94.3667 58.6291 94.7267 58.6291 95.24V98H57.2291V92.46H58.6291V93.32ZM64.342 92.38C65.002 92.38 65.5354 92.59 65.942 93.01C66.3487 93.4233 66.552 94.0033 66.552 94.75V98H65.152V94.94C65.152 94.5 65.042 94.1633 64.822 93.93C64.602 93.69 64.302 93.57 63.922 93.57C63.5354 93.57 63.2287 93.69 63.002 93.93C62.782 94.1633 62.672 94.5 62.672 94.94V98H61.272V92.46H62.672V93.15C62.8587 92.91 63.0954 92.7233 63.382 92.59C63.6754 92.45 63.9954 92.38 64.342 92.38ZM77.8762 91.02V98H76.4762V93.46L74.6062 98H73.5462L71.6662 93.46V98H70.2662V91.02H71.8562L74.0762 96.21L76.2962 91.02H77.8762ZM81.7203 98.09C81.187 98.09 80.707 97.9733 80.2803 97.74C79.8536 97.5 79.517 97.1633 79.2703 96.73C79.0303 96.2967 78.9103 95.7967 78.9103 95.23C78.9103 94.6633 79.0336 94.1633 79.2803 93.73C79.5336 93.2967 79.877 92.9633 80.3103 92.73C80.7436 92.49 81.227 92.37 81.7603 92.37C82.2936 92.37 82.777 92.49 83.2103 92.73C83.6436 92.9633 83.9836 93.2967 84.2303 93.73C84.4836 94.1633 84.6103 94.6633 84.6103 95.23C84.6103 95.7967 84.4803 96.2967 84.2203 96.73C83.967 97.1633 83.6203 97.5 83.1803 97.74C82.747 97.9733 82.2603 98.09 81.7203 98.09ZM81.7203 96.87C81.9736 96.87 82.2103 96.81 82.4303 96.69C82.657 96.5633 82.837 96.3767 82.9703 96.13C83.1036 95.8833 83.1703 95.5833 83.1703 95.23C83.1703 94.7033 83.0303 94.3 82.7503 94.02C82.477 93.7333 82.1403 93.59 81.7403 93.59C81.3403 93.59 81.0036 93.7333 80.7303 94.02C80.4636 94.3 80.3303 94.7033 80.3303 95.23C80.3303 95.7567 80.4603 96.1633 80.7203 96.45C80.987 96.73 81.3203 96.87 81.7203 96.87ZM87.0373 93.32C87.2173 93.0267 87.4506 92.7967 87.7373 92.63C88.0306 92.4633 88.3639 92.38 88.7373 92.38V93.85H88.3673C87.9273 93.85 87.5939 93.9533 87.3673 94.16C87.1473 94.3667 87.0373 94.7267 87.0373 95.24V98H85.6373V92.46H87.0373V93.32ZM94.8302 95.11C94.8302 95.31 94.8169 95.49 94.7902 95.65H90.7402C90.7736 96.05 90.9136 96.3633 91.1602 96.59C91.4069 96.8167 91.7102 96.93 92.0702 96.93C92.5902 96.93 92.9602 96.7067 93.1802 96.26H94.6902C94.5302 96.7933 94.2236 97.2333 93.7702 97.58C93.3169 97.92 92.7602 98.09 92.1002 98.09C91.5669 98.09 91.0869 97.9733 90.6602 97.74C90.2402 97.5 89.9102 97.1633 89.6702 96.73C89.4369 96.2967 89.3202 95.7967 89.3202 95.23C89.3202 94.6567 89.4369 94.1533 89.6702 93.72C89.9036 93.2867 90.2302 92.9533 90.6502 92.72C91.0702 92.4867 91.5536 92.37 92.1002 92.37C92.6269 92.37 93.0969 92.4833 93.5102 92.71C93.9302 92.9367 94.2536 93.26 94.4802 93.68C94.7136 94.0933 94.8302 94.57 94.8302 95.11ZM93.3802 94.71C93.3736 94.35 93.2436 94.0633 92.9902 93.85C92.7369 93.63 92.4269 93.52 92.0602 93.52C91.7136 93.52 91.4202 93.6267 91.1802 93.84C90.9469 94.0467 90.8036 94.3367 90.7502 94.71H93.3802Z" fill="white"/>
<path d="M183.797 91.0361C183.58 91.1631 182.821 91.3942 182.439 92.021C182.007 92.5763 181.952 93.5342 181.981 93.5148C182.021 93.5558 181.439 92.5937 181.465 91.5643C181.411 90.5356 181.964 89.4403 182.452 89.2369C183.354 88.6733 184.509 89.1765 184.604 89.7297C184.713 90.2878 184.25 90.7244 183.797 91.0361Z" fill="#3C8F7C"/>
<path d="M174.287 84.9214C174.388 84.8284 174.645 84.4871 175.01 84.3567C175.353 84.1964 175.804 84.2485 175.789 84.2603C175.8 84.2832 175.475 83.9287 174.993 83.8565C174.53 83.7476 173.915 83.921 173.725 84.134C173.285 84.5163 173.288 85.1052 173.524 85.1954C173.76 85.2856 174.053 85.1115 174.287 84.9214Z" fill="#3C8F7C"/>
<path d="M175.262 82.5259C175.257 82.6717 175.169 83.1055 175.298 83.504C175.393 83.9017 175.705 84.2675 175.705 84.2439C175.727 84.2398 175.273 84.1697 174.929 83.7941C174.568 83.4561 174.317 82.8119 174.355 82.5141C174.362 81.8964 174.786 81.5424 174.995 81.6902C175.205 81.8381 175.255 82.2073 175.262 82.5259Z" fill="#3C8F7C"/>
<path d="M204.232 20H265.927C266.289 20 266.636 20.1587 266.892 20.4412C267.148 20.7237 267.291 21.1068 267.291 21.5063V115.492C267.291 115.891 267.147 116.274 266.892 116.556C266.636 116.839 266.289 116.998 265.927 116.998H204.231C203.87 116.998 203.523 116.839 203.267 116.556C203.011 116.274 202.867 115.891 202.867 115.492V21.5063C202.867 21.1067 203.011 20.7236 203.267 20.4411C203.523 20.1587 203.87 20 204.232 20Z" fill="#D3D7E3"/>
<path d="M204.072 20H266.086C266.406 20 266.712 20.1402 266.938 20.3897C267.164 20.6393 267.291 20.9777 267.291 21.3307V40.184H202.867V21.3307C202.867 20.9777 202.994 20.6393 203.22 20.3897C203.446 20.1402 203.753 20 204.072 20Z" fill="#F47458"/>
<path opacity="0.71" d="M223.77 47.3574L205.662 47.3225L205.633 65.8454L223.741 65.8803L223.77 47.3574Z" fill="white"/>
<path opacity="0.71" d="M244.215 47.4149L226.107 47.3765L226.075 65.8993L244.183 65.9377L244.215 47.4149Z" fill="white"/>
<path opacity="0.71" d="M264.675 47.437L246.566 47.4021L246.537 65.925L264.646 65.9599L264.675 47.437Z" fill="white"/>
<path opacity="0.71" d="M223.726 69.011L205.617 68.9727L205.585 87.4955L223.693 87.5339L223.726 69.011Z" fill="white"/>
<path opacity="0.71" d="M244.188 69.0364L226.08 69.0015L226.051 87.5243L244.159 87.5592L244.188 69.0364Z" fill="white"/>
<path opacity="0.71" d="M264.628 69.0977L246.52 69.0593L246.487 87.5822L264.596 87.6206L264.628 69.0977Z" fill="white"/>
<path opacity="0.71" d="M223.69 90.649L205.582 90.6106L205.55 109.133L223.658 109.172L223.69 90.649Z" fill="white"/>
<path opacity="0.71" d="M244.155 90.6743L226.047 90.6394L226.018 109.162L244.126 109.197L244.155 90.6743Z" fill="white"/>
<path opacity="0.71" d="M264.606 90.7136L246.498 90.6787L246.469 109.202L264.577 109.237L264.606 90.7136Z" fill="white"/>
<path d="M220.418 51.8239L218.936 50.167L214.694 54.7927L210.452 50.167L208.971 51.8239L213.194 56.4287L208.971 61.0336L210.452 62.6898L214.694 58.0648L218.936 62.6905L220.417 61.0336L216.194 56.4287L220.418 51.8239Z" fill="#F47458"/>
<path d="M261.952 51.9828L260.472 50.3259L256.229 54.9509L251.987 50.3252L250.506 51.9821L254.729 56.587L250.506 61.1918L251.987 62.8487L256.229 58.223L260.471 62.8487L261.952 61.1918L257.73 56.587L261.952 51.9828Z" fill="#F47458"/>
<path d="M261.671 94.8927L260.19 93.2358L255.948 97.8615L251.706 93.2358L250.225 94.892L254.447 99.4969L250.225 104.102L251.706 105.759L255.948 101.133L260.19 105.759L261.671 104.102L257.448 99.4969L261.671 94.8927Z" fill="#F47458"/>
<path opacity="0.8" d="M218.793 28.4086L206.656 28.3836C206.558 28.3836 206.461 28.3623 206.37 28.3209C206.28 28.2795 206.198 28.2188 206.128 28.1422C206.059 28.0657 206.004 27.9749 205.967 27.8749C205.929 27.775 205.91 27.6678 205.91 27.5597L205.914 25.6029C205.914 25.4945 205.934 25.3872 205.972 25.2872C206.01 25.1872 206.065 25.0965 206.135 25.0202C206.204 24.9439 206.287 24.8835 206.378 24.8426C206.469 24.8017 206.566 24.781 206.664 24.7818L218.801 24.8061C218.899 24.8062 218.996 24.8277 219.086 24.8693C219.177 24.9108 219.259 24.9716 219.328 25.0482C219.397 25.1248 219.452 25.2156 219.489 25.3156C219.526 25.4155 219.545 25.5226 219.545 25.6307V27.5874C219.545 27.696 219.525 27.8035 219.487 27.9037C219.449 28.0039 219.394 28.0948 219.324 28.1711C219.254 28.2475 219.171 28.3078 219.08 28.3485C218.988 28.3893 218.891 28.4097 218.793 28.4086Z" fill="white"/>
<path opacity="0.8" d="M262.74 28.4976L223.037 28.4177C222.939 28.4175 222.842 28.3961 222.752 28.3545C222.662 28.313 222.58 28.2522 222.51 28.1756C222.441 28.0991 222.387 28.0082 222.349 27.9082C222.312 27.8083 222.293 27.7012 222.293 27.5931L222.297 25.6363C222.297 25.5283 222.316 25.4213 222.354 25.3216C222.391 25.2218 222.446 25.1312 222.516 25.0549C222.585 24.9787 222.667 24.9182 222.758 24.8771C222.848 24.8359 222.945 24.8149 223.043 24.8152L262.745 24.895C262.942 24.8963 263.131 24.9838 263.27 25.1383C263.409 25.2928 263.487 25.5018 263.487 25.7196V27.6764C263.487 27.7845 263.467 27.8916 263.43 27.9914C263.392 28.0912 263.337 28.1818 263.267 28.2581C263.198 28.3344 263.116 28.3948 263.025 28.4359C262.935 28.477 262.837 28.4979 262.74 28.4976Z" fill="white"/>
<path opacity="0.8" d="M262.546 37.0978L206.9 36.9847C206.767 36.9845 206.635 36.9553 206.512 36.8989C206.389 36.8424 206.278 36.7598 206.184 36.6557C206.09 36.5515 206.016 36.428 205.965 36.2921C205.914 36.1562 205.888 36.0106 205.889 35.8636L205.893 33.203C205.893 33.0561 205.92 32.9106 205.971 32.775C206.022 32.6393 206.097 32.5161 206.191 32.4124C206.285 32.3087 206.397 32.2265 206.52 32.1706C206.643 32.1146 206.775 32.0859 206.908 32.0862L262.553 32.2014C262.686 32.2016 262.818 32.2307 262.941 32.2872C263.064 32.3436 263.175 32.4263 263.269 32.5304C263.363 32.6345 263.438 32.758 263.488 32.8939C263.539 33.0298 263.565 33.1754 263.565 33.3224L263.561 35.983C263.559 36.2793 263.452 36.5629 263.262 36.7718C263.072 36.9808 262.814 37.098 262.546 37.0978Z" fill="white"/>
<path d="M186.916 64.981C187.325 64.6138 190.484 66.1451 190.445 66.6782C190.405 67.2113 192.647 72.3777 192.647 72.3777L196.526 68.9619C196.561 68.8383 196.929 67.5098 196.946 67.2724C196.965 67.0232 197.621 66.5866 197.925 66.6476C198.229 66.7087 197.665 67.1335 197.628 67.2106C197.527 67.4188 197.917 67.5007 197.917 67.5007C197.917 67.5007 199.038 66.8212 199.061 66.4221C199.085 66.0229 199.317 65.1851 199.559 65.36C199.685 65.4503 199.685 66.0444 199.644 66.3263C199.716 66.0063 199.818 65.6453 199.917 65.6092C200.099 65.544 200.188 65.7987 200.156 65.9237C200.123 66.0486 199.83 67.407 199.741 67.5604C199.652 67.7138 197.844 69.3201 197.583 69.6699C197.583 69.6699 192.566 76.0039 192.208 76.1698C191.894 76.3148 190.777 74.1318 189.721 72.6831C188.665 71.2345 185.64 66.127 186.916 64.981Z" fill="#F7A491"/>
<path d="M176.794 111.558C176.794 111.558 176.102 112.301 176.088 112.574C176.074 112.846 176.025 115.767 176.308 116.04C176.591 116.314 177.417 116.506 177.151 116.813C176.95 117.045 175.404 116.995 174.38 116.933C174.081 116.915 173.706 114.28 173.587 113.892C173.415 113.33 172.997 112.063 173.154 111.671C173.23 111.48 173.594 111.088 174.108 110.722C174.648 110.336 175.165 109.479 175.165 109.479L176.794 111.558Z" fill="#F48C7F"/>
<path d="M183.934 113.288C183.934 113.288 183.317 115.213 183.316 115.218C183.27 115.523 183.09 116.276 183.09 116.554C183.09 117.595 187.343 115.669 186.39 115.208C186.304 115.166 186.033 114.832 186.005 114.478C185.961 113.932 186.363 113.247 186.363 113.247L183.934 113.288Z" fill="#F7A491"/>
<path d="M190.608 77.4436C190.608 77.4436 190.918 80.8948 190.918 80.9462C190.918 86.5284 191.92 97.4318 191.729 98.4813C191.265 101.041 186.26 114.099 186.26 114.099L183.557 113.742L187.081 98.1079L185.784 91.8149L183.949 79.3761L190.608 77.4436Z" fill="#355389"/>
<path d="M181.53 80.4955L181.017 83.7662L179.629 97.2268L174.342 110.383C174.342 110.383 175.086 112.296 176.183 112.566L184.6 99.0587L189.828 81.7748L189.644 77.9355L181.53 80.4955Z" fill="#13375B"/>
<path d="M191.686 69.2278L187.935 69.6505C187.935 69.6505 187.764 66.2555 187.764 64.6361C187.764 62.6717 187.915 60.1409 188.13 60.1937C188.733 60.3464 189.545 60.7136 190.029 61.4473C191.704 63.9878 191.686 69.2278 191.686 69.2278Z" fill="#CF5338"/>
<path d="M189.843 64.2899C189.921 64.8889 191.363 81.1732 191.363 81.1732C184.537 84.8167 180.766 81.8215 180.766 81.8215C180.766 81.8215 180.989 70.3864 180.721 68.8302C180.544 67.8008 180.323 60.958 180.927 60.7664C181.703 60.52 182.592 60.259 183.561 60.148C184.388 60.0529 187.602 59.998 188.177 60.2111C188.179 60.2111 189.513 61.7716 189.843 64.2899Z" fill="#F47458"/>
<path d="M174.141 110.703C174.141 110.703 175.73 115.644 176.352 115.882C176.518 115.946 177.311 116.107 177.46 116.494C177.505 116.611 177.46 117 177.46 117H174.147C174.147 117 173.728 114.823 173.562 113.866C173.562 113.866 172.686 111.529 172.783 111.316C172.88 111.104 174.141 110.703 174.141 110.703Z" fill="#184655"/>
<path d="M182.848 116.897L183.335 115.198C183.335 115.198 184.358 115.676 184.869 115.596C185.381 115.517 186.378 115.198 186.378 115.198C188.42 115.94 190.093 116.3 189.789 116.897H182.848Z" fill="#184655"/>
<path d="M192.211 76.1747C192.247 76.1494 192.281 76.121 192.314 76.09C192.192 74.4935 192.214 72.949 192.668 72.4263C192.657 72.4013 192.558 72.1681 192.454 71.9272C191.928 72.3757 191.679 73.5682 191.777 75.5041C191.793 75.639 191.816 75.7728 191.846 75.9046C191.998 76.0893 192.136 76.2094 192.211 76.1747Z" fill="#F7A491"/>
<path d="M202.183 64.3223L208.373 53.9319L197.744 58.0425L196.328 62.5669L202.183 64.3223Z" fill="#F2E9DA"/>
<path d="M196.328 62.5669L197.834 63.0181L208.373 53.9319L197.744 58.0425L196.328 62.5669Z" fill="#E0D5C3"/>
<path d="M197.744 58.0426L200.495 56.9785L198.996 59.8133L165.23 88.9259L165 86.275L197.744 58.0426Z" fill="#E8BA70"/>
<path d="M198.996 59.8133L202.141 59.3059L200.932 62.5517L167.167 91.6643L165.23 88.9259L198.996 59.8133Z" fill="#F7CC7F"/>
<path d="M200.931 62.5516L203.785 61.6326L202.183 64.3223L169.439 92.554L167.166 91.6641L200.931 62.5516Z" fill="#FAE0B2"/>
<path d="M206.273 57.4581L208.373 53.9319L204.766 55.3271L206.047 55.9407L206.273 57.4581Z" fill="#DB3F2A"/>
<path d="M174.005 81.3459C174.001 81.3111 174.001 81.2759 174.005 81.2411C174.105 80.1138 174.953 70.6438 175.096 70.2412C175.225 69.8774 179.028 63.8718 179.028 63.8718L180.898 66.6838L177.24 72.0709C177.158 72.4131 175.838 78.804 175.838 78.804C175.838 78.804 175.567 79.9694 175.447 80.6677C175.502 80.8357 175.556 80.9946 175.604 81.1251C175.714 81.3718 175.846 81.606 175.998 81.8241C176.162 82.0664 176.432 82.5946 176.465 82.7362C176.504 82.9007 176.574 83.2422 176.614 83.4491C176.653 83.6559 176.707 83.8954 176.716 84.0044C176.741 84.1104 176.781 84.2115 176.834 84.3043C176.85 84.3359 176.857 84.3721 176.855 84.4082C176.852 84.4444 176.839 84.4787 176.818 84.5068C176.798 84.5349 176.77 84.5554 176.738 84.5657C176.707 84.576 176.673 84.5756 176.642 84.5646C176.509 84.516 176.405 84.3258 176.341 84.2071C176.162 83.8732 176.065 83.2631 176.021 83.2957C175.976 83.3283 175.818 84.3626 175.793 84.4799C175.768 84.5972 175.579 85.7987 175.473 86.0181C175.366 86.2374 175.224 86.2006 175.187 86.0632C175.155 85.9452 175.305 84.264 175.305 84.264C175.305 84.264 175.324 84.0488 175.239 84.1162C175.154 84.1835 175.014 85.7127 174.955 85.9327C174.896 86.1527 174.762 86.2749 174.646 86.0951C174.508 85.8765 174.747 84.2578 174.747 84.2578C174.747 84.2578 174.773 84.0544 174.695 84.0731C174.616 84.0919 174.518 85.392 174.457 85.5058C174.396 85.6196 174.24 85.6585 174.167 85.4711C174.08 85.2497 174.305 83.8052 174.305 83.8052C174.305 83.8052 174.294 83.6906 174.242 83.7288C174.191 83.767 174.037 84.8686 173.935 84.9713C173.925 84.983 173.913 84.9923 173.9 84.9987C173.886 85.0051 173.872 85.0083 173.857 85.0083C173.843 85.0083 173.828 85.0051 173.815 84.9987C173.801 84.9923 173.789 84.983 173.779 84.9713C173.59 84.8325 173.878 83.7823 173.876 83.261C173.873 82.7397 174.092 82.1504 174.027 81.5333C174.023 81.5014 174.012 81.4056 174.005 81.3459Z" fill="#F8A492"/>
<path d="M176.057 67.675L179.305 70.0836C179.305 70.0836 181.136 67.0745 182.119 66.0035C183.35 64.6617 181.671 60.5518 180.877 60.7836C179.103 61.3042 176.057 67.675 176.057 67.675Z" fill="#CF5338"/>
<path d="M184.473 57.0001L184.033 60.2035C184.033 60.2035 185.641 64.0212 186.6 63.6866C187.405 63.409 186.91 60.0341 186.91 60.0341C186.91 60.0341 186.47 58.2218 186.603 57.3152C186.736 56.4087 184.473 57.0001 184.473 57.0001Z" fill="#F7A491"/>
<path d="M186.605 57.315C186.737 56.4078 184.474 56.9999 184.474 56.9999L184.438 57.2657C184.495 57.4294 184.578 57.5806 184.683 57.7121C185.186 58.3125 185.977 58.6727 186.66 58.6998C186.593 58.2111 186.549 57.6871 186.605 57.315Z" fill="#F47458"/>
<path d="M184.104 52.4701C184.041 52.4444 183.592 56.1177 184.443 57.1291C185.294 58.1404 186.951 58.4708 187.546 57.6746C188.204 56.7938 188.17 52.8449 186.848 51.8051C185.525 50.7653 184.104 52.4701 184.104 52.4701Z" fill="#F7A491"/>
<path d="M186.344 49.8386C185.603 50.0144 184.93 50.4384 184.416 51.0526C183.952 51.113 183.32 51.3997 182.669 52.588C181.868 54.0526 182.459 55.6755 183.392 56.471C184.325 57.2665 184.312 58.1869 184.312 58.1869L184.459 57.7114C184.57 57.3515 184.61 56.9695 184.576 56.5911C184.558 56.359 184.507 56.1315 184.425 55.9171C184.201 55.3854 184.907 55.0328 185.105 54.5899C185.257 54.2491 185.265 53.4703 185.505 52.9073L185.792 52.477C185.792 52.477 186.454 51.9085 187.101 52.0688C187.749 52.2292 187.656 49.5436 186.344 49.8386Z" fill="#F7CC7F"/>
<path d="M185.062 55.2462C185.069 55.6944 184.884 56.0614 184.65 56.0655C184.416 56.0697 184.22 55.7103 184.213 55.2622C184.206 54.8141 184.391 54.4478 184.625 54.4429C184.86 54.4381 185.055 54.7953 185.062 55.2462Z" fill="#F7A491"/>
<path d="M186.445 56.2793L187.728 56.21C187.728 56.21 187.723 56.749 187.162 56.7989C186.474 56.8565 186.445 56.2793 186.445 56.2793Z" fill="white"/>
<path d="M282.476 62.7049C282.114 62.3789 279.316 63.7388 279.351 64.2096C279.386 64.6804 277.398 69.2708 277.398 69.2708L273.963 66.2377C273.932 66.128 273.606 64.9481 273.59 64.7368C273.574 64.5155 272.993 64.1281 272.723 64.1851C272.454 64.2422 272.954 64.6171 272.987 64.6867C273.076 64.8748 272.731 64.9443 272.731 64.9443C272.731 64.9443 271.738 64.3412 271.717 63.9864C271.696 63.6315 271.49 62.888 271.276 63.046C271.166 63.1262 271.167 63.6535 271.201 63.9043C271.138 63.6196 271.047 63.2993 270.959 63.2673C270.799 63.209 270.719 63.4353 270.748 63.5463C270.777 63.6573 271.037 64.8628 271.116 64.9995C271.195 65.1362 272.796 66.5624 273.027 66.8728C273.027 66.8728 277.47 72.4976 277.787 72.6449C278.065 72.7741 279.054 70.8356 279.989 69.5485C280.925 68.2614 283.606 63.7231 282.476 62.7049Z" fill="#F7A491"/>
<path d="M291.443 104.065C291.443 104.065 292.053 104.725 292.068 104.967C292.082 105.209 292.122 107.803 291.872 108.045C291.623 108.287 290.89 108.459 291.126 108.731C291.304 108.938 292.673 108.893 293.58 108.838C293.845 108.822 294.177 106.482 294.282 106.138C294.434 105.637 294.804 104.514 294.666 104.166C294.599 103.997 294.276 103.648 293.821 103.323C293.342 102.98 292.885 102.219 292.885 102.219L291.443 104.065Z" fill="#F48C7F"/>
<path d="M285.118 105.602C285.118 105.602 285.665 107.311 285.666 107.315C285.707 107.586 285.866 108.255 285.866 108.501C285.866 109.426 282.099 107.716 282.944 107.306C283.02 107.269 283.26 106.973 283.285 106.658C283.323 106.173 282.967 105.565 282.967 105.565L285.118 105.602Z" fill="#F7A491"/>
<path d="M279.206 73.7715C279.206 73.7715 278.931 76.8359 278.931 76.8817C278.931 81.8388 278.044 91.5212 278.213 92.4528C278.625 94.7261 283.056 106.322 283.056 106.322L285.451 106.005L282.33 92.1218L283.478 86.5333L285.104 75.4874L279.206 73.7715Z" fill="#355389"/>
<path d="M287.244 76.4825L287.698 79.3864L288.928 91.3395L293.61 103.022C293.61 103.022 292.952 104.721 291.98 104.96L284.528 92.9664L279.898 77.6191L280.061 74.2092L287.244 76.4825Z" fill="#5375B5"/>
<path d="M278.252 66.476L281.573 66.8522C281.573 66.8522 281.725 63.8373 281.725 62.401C281.725 60.6562 281.591 58.4093 281.401 58.4576C280.867 58.593 280.147 58.9196 279.719 59.571C278.238 61.8229 278.252 66.476 278.252 66.476Z" fill="#2AA186"/>
<path d="M279.881 62.0914C279.812 62.623 278.535 77.0838 278.535 77.0838C284.582 80.3175 287.919 77.66 287.919 77.66C287.919 77.66 287.72 67.5037 287.958 66.1244C288.115 65.2097 288.31 59.1335 287.775 58.9636C287.089 58.7454 286.301 58.5135 285.443 58.4144C284.71 58.3304 281.863 58.2815 281.355 58.4708C281.355 58.4696 280.174 59.8545 279.881 62.0914Z" fill="#50BFA5"/>
<path d="M293.791 103.306C293.791 103.306 292.383 107.695 291.832 107.906C291.686 107.962 290.984 108.104 290.852 108.449C290.812 108.552 290.852 108.897 290.852 108.897H293.785C293.785 108.897 294.156 106.965 294.303 106.115C294.303 106.115 295.079 104.04 294.993 103.851C294.908 103.662 293.791 103.306 293.791 103.306Z" fill="#184655"/>
<path d="M286.078 108.806L285.646 107.297C285.646 107.297 284.741 107.722 284.287 107.651C283.834 107.58 282.95 107.297 282.95 107.297C281.142 107.956 279.661 108.276 279.93 108.806H286.078Z" fill="#184655"/>
<path d="M277.787 72.6452C277.755 72.6226 277.725 72.5975 277.696 72.5699C277.804 71.1531 277.784 69.7807 277.383 69.3161C277.392 69.2942 277.481 69.0873 277.572 68.8735C278.037 69.2716 278.258 70.3305 278.171 72.0496C278.158 72.1696 278.137 72.2885 278.11 72.4057C277.975 72.5699 277.853 72.6759 277.787 72.6452Z" fill="#F7A491"/>
<path d="M293.91 77.2367C293.913 77.2059 293.913 77.1747 293.91 77.1439C293.82 76.1408 293.069 67.733 292.944 67.3757C292.83 67.0528 289.462 61.7195 289.462 61.7195L287.807 64.2166L291.045 69C291.118 69.3041 292.286 74.981 292.286 74.981C292.286 74.981 292.526 76.0154 292.633 76.6355C292.584 76.7847 292.536 76.9257 292.494 77.0417C292.396 77.2608 292.279 77.4686 292.144 77.6624C291.999 77.8774 291.76 78.347 291.731 78.4724C291.697 78.6184 291.635 78.9219 291.6 79.1049C291.564 79.288 291.517 79.5018 291.509 79.6008C291.486 79.695 291.451 79.7849 291.404 79.8673C291.39 79.8953 291.383 79.9274 291.386 79.9594C291.388 79.9914 291.4 80.0219 291.418 80.0468C291.436 80.0717 291.461 80.0899 291.489 80.099C291.517 80.1082 291.547 80.1078 291.575 80.098C291.693 80.0547 291.784 79.8861 291.84 79.7814C292 79.4842 292.085 78.9426 292.124 78.9714C292.164 79.0002 292.304 79.9193 292.326 80.0228C292.347 80.1262 292.515 81.1939 292.61 81.3889C292.704 81.5838 292.829 81.5512 292.862 81.4296C292.891 81.3243 292.758 79.8309 292.758 79.8309C292.758 79.8309 292.741 79.6428 292.815 79.6999C292.888 79.7569 293.014 81.1149 293.066 81.3136C293.118 81.5124 293.236 81.6171 293.339 81.4572C293.462 81.2635 293.251 79.8272 293.251 79.8272C293.251 79.8272 293.227 79.6466 293.296 79.6635C293.365 79.6805 293.453 80.8353 293.507 80.935C293.561 81.0346 293.699 81.071 293.764 80.9042C293.841 80.708 293.642 79.4266 293.642 79.4266C293.642 79.4266 293.652 79.3244 293.695 79.3582C293.739 79.3921 293.877 80.3713 293.966 80.4616C293.975 80.4721 293.986 80.4805 293.998 80.4862C294.01 80.4919 294.023 80.4948 294.036 80.4948C294.049 80.4948 294.062 80.4919 294.073 80.4862C294.085 80.4805 294.096 80.4721 294.105 80.4616C294.27 80.3362 294.017 79.4059 294.02 78.9426C294.023 78.4793 293.828 77.9595 293.886 77.4085C293.893 77.3752 293.903 77.29 293.91 77.2367Z" fill="#F8A492"/>
<path d="M292.094 65.0974L289.217 67.2358C289.217 67.2358 287.595 64.5645 286.725 63.6134C285.635 62.4222 287.122 58.7716 287.825 58.9779C289.396 59.4399 292.094 65.0974 292.094 65.0974Z" fill="#50BFA5"/>
<path d="M285.231 55.287L285.661 58.4273C285.661 58.4273 284.09 62.1664 283.152 61.8422C282.364 61.5701 282.849 58.2612 282.849 58.2612C282.849 58.2612 283.278 56.4845 283.149 55.5955C283.02 54.7065 285.231 55.287 285.231 55.287Z" fill="#F7A491"/>
<path d="M283.151 55.5955C283.023 54.7065 285.233 55.287 285.233 55.287L285.269 55.5472C285.213 55.7081 285.132 55.8567 285.029 55.9861C284.536 56.5748 283.764 56.9265 283.098 56.9547C283.163 56.4738 283.204 55.9604 283.151 55.5955Z" fill="#F47458"/>
<path d="M285.595 50.844C285.657 50.8189 286.096 54.4206 285.264 55.4118C284.433 56.403 282.812 56.7284 282.23 55.9466C281.587 55.0833 281.62 51.212 282.912 50.1926C284.205 49.1732 285.595 50.844 285.595 50.844Z" fill="#F7A491"/>
<path d="M283.406 48.2662C284.131 48.439 284.789 48.8551 285.291 49.4573C285.745 49.5169 286.362 49.7946 286.999 50.962C287.782 52.3976 287.204 53.9888 286.292 54.7693C285.38 55.5499 285.393 56.4514 285.393 56.4514L285.249 55.9849C285.14 55.632 285.102 55.2574 285.135 54.8866C285.152 54.6593 285.202 54.4364 285.282 54.2264C285.502 53.7048 284.811 53.3587 284.618 52.9249C284.469 52.5907 284.461 51.8271 284.227 51.2748L283.946 50.8535C283.946 50.8535 283.3 50.2962 282.666 50.4535C282.033 50.6109 282.124 47.9765 283.406 48.2662Z" fill="#184655"/>
<path d="M284.658 53.5651C284.652 54.0039 284.832 54.3644 285.062 54.3688C285.291 54.3732 285.482 54.0202 285.488 53.5807C285.495 53.1412 285.315 52.782 285.086 52.7776C284.857 52.7732 284.663 53.1256 284.658 53.5651Z" fill="#F7A491"/>
<path d="M283.309 54.5806L282.055 54.5085C282.055 54.5085 282.059 55.0377 282.61 55.0872C283.281 55.1467 283.309 54.5806 283.309 54.5806Z" fill="white"/>
<path d="M275.485 54.3794C275.485 54.3794 278.918 54.9261 278.393 58.5798C277.904 61.9891 274.96 61.2963 274.203 61.1258C273.447 60.9553 275.485 54.3794 275.485 54.3794Z" fill="#F7CC7F"/>
<path d="M274.203 61.129C273.851 61.0494 274.105 59.5805 274.476 58.0332C275.74 58.3065 277.146 58.6119 278.344 58.8727C277.733 61.9515 274.938 61.2945 274.203 61.129Z" fill="#E8BA70"/>
<path d="M273.508 61.7609C273.508 61.7609 272.754 64.7325 272.952 67.0409C273.138 69.1944 272.86 69.553 272.134 69.4859C271.409 69.4188 269.65 68.9392 269.619 68.1694C269.588 67.3995 269.912 63.4536 271.132 61.3358C272.351 59.218 273.508 61.7609 273.508 61.7609Z" fill="#96D9C9"/>
<path d="M272.336 60.522C272.819 60.88 273.508 61.7608 273.508 61.7608C273.508 61.7608 272.753 64.7324 272.952 67.0408C273.137 69.1943 272.86 69.5529 272.134 69.4858C271.768 69.4436 271.407 69.3649 271.055 69.2507C270.768 63.9582 272.004 61.1207 272.336 60.522Z" fill="#50BFA5"/>
<path d="M265.083 47.179C265.083 47.179 270.778 51.7556 272.618 53.1386L273.698 54.9071L272.933 60.0593L271.093 61.0586L262.1 63.0196L262.308 61.9043L263.94 56.9064L264.773 51.2164L265.016 47.7175L265.083 47.179Z" fill="#96D9C9"/>
<path d="M263.936 56.904L264.155 55.4119L273.256 57.8575L272.93 60.0562L271.089 61.0561L262.096 63.0172L262.304 61.9019L263.936 56.904Z" fill="#50BFA5"/>
<path d="M272.619 53.135C272.619 53.135 273.372 57.5053 271.092 61.055C271.092 61.055 270.964 61.3841 271.242 61.5891L272.94 62.0675C272.94 62.0675 273.727 62.3753 274.39 61.1271C275.054 59.8789 276.227 57.0771 275.532 53.9845C275.532 53.9845 275.362 53.1469 274.437 52.9933L273.202 52.7369C273.202 52.7369 272.652 52.6447 272.619 53.135Z" fill="#3C8F7C"/>
<path d="M265.083 47.179C265.083 47.179 263.601 45.9747 262.744 46.0004C261.888 46.0261 261.029 47.2793 260.476 48.3075C259.922 49.3357 258.462 53.3568 258.323 56.0739C258.185 58.7911 258.21 62.6611 259.411 63.1225C260.613 63.584 262.096 63.0204 262.096 63.0204C262.096 63.0204 264.041 61.1747 265.176 55.4345C266.31 49.6943 265.083 47.179 265.083 47.179Z" fill="#256653"/>
<path d="M260.264 63.273C260.264 63.273 258.879 61.2869 259.582 55.9241C260.693 47.4799 263.494 46.2029 263.494 46.2029C263.494 46.2029 265.568 47.9464 263.587 56.1084C261.957 62.8304 260.264 63.273 260.264 63.273Z" fill="#3C8F7C"/>
<path d="M264.254 52.6722C264.092 53.8299 263.871 54.9765 263.591 56.1066C263.433 56.7579 263.275 57.3498 263.117 57.8883C262.256 57.5585 260.863 56.731 261.458 54.6326C262.009 52.6879 263.444 52.5707 264.254 52.6722Z" fill="#F7CC7F"/>
<path d="M263.591 56.1065C263.433 56.7579 263.275 57.3497 263.117 57.8883C262.267 57.5629 260.901 56.7535 261.435 54.7185L263.775 55.316C263.718 55.5724 263.657 55.8357 263.591 56.1065Z" fill="#E8BA70"/>
<g style="mix-blend-mode:multiply" opacity="0.3">
<path d="M271.09 61.0562C271.742 60.0251 272.206 58.8637 272.457 57.637L275.468 58.2639C275.228 59.2683 274.865 60.2318 274.388 61.1277C273.725 62.3753 272.938 62.0681 272.938 62.0681L271.24 61.5898C270.962 61.3854 271.09 61.0562 271.09 61.0562Z" fill="#3C8F7C"/>
</g>
<path d="M273.315 65.0072C273.315 64.6599 273.269 64.406 273.101 64.2756C272.934 64.1452 272.573 63.9935 272.552 64.0286C272.531 64.0637 272.52 64.426 273.071 64.8944C273.337 65.058 273.315 65.0072 273.315 65.0072Z" fill="#F7A491"/>
</svg>
