<svg width="315" height="140" viewBox="0 0 315 140" fill="none" xmlns="http://www.w3.org/2000/svg">
<rect opacity="0.2" width="315" height="140" rx="22" fill="#045B62"/>
<path d="M177.136 99.5313C178.363 94.3134 190.345 94.4066 195.844 97.6678C192.375 96.4409 186.755 91.953 191.299 88.9248C194.193 86.9681 198.616 88.3812 202.054 92.2636C200.186 90.5528 198.573 88.5697 197.268 86.3779C195.177 83.3342 194.738 77.4797 199.722 75.0726C203.933 73.0227 210.325 74.6688 213.46 79.6538C215.386 83.1445 216.427 87.0739 216.49 91.0833C216.49 88.3502 216.581 83.1323 222.201 83.5516C228.063 83.9864 226.639 90.9902 226.745 94.5308C226.745 94.5308 226.518 84.3747 232.925 80.5545C234.36 79.6389 235.984 79.0794 237.667 78.9203C239.35 78.7613 241.046 79.0071 242.62 79.6382C244.343 80.18 245.788 81.398 246.639 83.0269C247.49 84.6559 247.679 86.5637 247.164 88.3346C245.937 92.4965 241.408 96.1148 241.408 96.1148C243.832 94.8387 246.368 93.7989 248.982 93.009C254.147 91.9685 262.524 91.6579 265.841 96.1148C269.158 100.572 264.326 106.877 254.768 107.156C248.451 107.343 194.738 107.544 188.406 107.544C183.408 107.529 175.864 104.982 177.136 99.5313Z" fill="#045B62"/>
<path d="M294.865 92.0927C293.713 86.5643 282.428 86.642 277.248 90.105C280.52 88.785 285.761 84.033 281.55 80.7874C278.838 78.722 274.673 80.2128 271.431 84.3281C273.226 82.4894 274.756 80.3977 275.976 78.1164C277.93 74.9018 278.323 68.7988 273.628 66.1277C269.674 63.9381 263.661 65.6929 260.692 70.9884C258.883 74.7705 257.926 78.9204 257.889 83.1323C257.889 80.2283 257.814 74.6844 252.527 75.1347C246.998 75.6006 248.346 83.0392 248.271 86.7972C248.271 86.7972 248.468 75.9267 242.439 72.0133C241.138 71.0522 239.616 70.4562 238.021 70.2846C236.427 70.113 234.817 70.3717 233.35 71.035C231.655 71.7674 230.282 73.1145 229.494 74.819C228.706 76.5234 228.558 78.4658 229.079 80.2749C230.018 84.6231 234.35 88.3502 234.35 88.3502C232.069 87.02 229.663 85.9275 227.17 85.089C222.308 84.002 214.416 83.6759 211.295 88.3968C208.175 93.1177 212.674 99.8419 221.717 100.137C227.67 100.323 278.248 100.556 284.216 100.556C288.957 100.603 296.061 97.8852 294.865 92.0927Z" fill="#045B62"/>
<path d="M240.938 21.5737C240.938 21.5737 247.512 19.7723 249.875 24.4C249.44 25.4797 248.706 26.4051 247.764 27.0619C246.821 27.7188 245.712 28.0782 244.573 28.096C244.573 28.096 245.043 22.552 240.938 21.5737Z" fill="#069FAD"/>
<path d="M252.45 78.7678C246.317 78.1153 240.501 75.6494 235.71 71.6703C230.919 67.6911 227.359 62.3703 225.464 56.355C223.569 50.3398 223.419 43.8894 225.034 37.7888C226.649 31.6882 229.959 26.2002 234.561 21.9927C227.297 22.3378 220.268 24.7377 214.253 28.9267C208.238 33.1156 203.472 38.9299 200.483 45.7254C197.493 52.5209 196.397 60.0323 197.316 67.4272C198.234 74.8222 201.132 81.812 205.688 87.6222C210.244 93.4324 216.28 97.8362 223.127 100.346C229.974 102.855 237.365 103.372 244.481 101.839C251.597 100.307 258.16 96.7841 263.444 91.6621C268.727 86.5401 272.524 80.0186 274.414 72.8201C268.056 77.5066 260.236 79.6244 252.45 78.7678Z" fill="#FFB842"/>
<path d="M226.214 51.7011C225.186 47.914 224.893 43.957 225.35 40.0541C226.29 32.1031 231.303 24.5248 242.013 22.3507C242.122 22.3169 242.217 22.2481 242.285 22.1544C242.353 22.0607 242.389 21.9471 242.389 21.8305C242.389 21.7138 242.353 21.6002 242.285 21.5065C242.217 21.4129 242.122 21.344 242.013 21.3102C222.806 15.3625 203.75 30.7676 197.736 45.303C203.659 55.9717 223.957 53.7354 226.214 51.7011Z" fill="url(#paint0_linear_570_26216)"/>
<path d="M212.87 60.8322H212.612C211.078 60.6675 209.593 60.1847 208.247 59.4132C206.9 58.6416 205.721 57.5975 204.781 56.3442C204.716 56.2605 204.668 56.1642 204.641 56.0611C204.613 55.958 204.606 55.8502 204.62 55.7443C204.635 55.6383 204.67 55.5365 204.723 55.4447C204.777 55.353 204.848 55.2734 204.932 55.2106C205.101 55.0796 205.314 55.0224 205.524 55.0515C205.734 55.0806 205.924 55.1936 206.053 55.3659C206.053 55.3659 208.856 59.0774 212.673 59.2016C215.036 59.2016 217.368 57.9593 219.595 55.3193C219.738 55.1576 219.936 55.0591 220.148 55.0446C220.36 55.0301 220.569 55.1008 220.731 55.2417C220.811 55.3115 220.876 55.3968 220.922 55.4927C220.969 55.5885 220.997 55.693 221.004 55.8C221.011 55.9069 220.997 56.0143 220.964 56.1157C220.93 56.2172 220.876 56.3107 220.807 56.3908C218.323 59.3414 215.657 60.8322 212.87 60.8322Z" fill="#4F4840"/>
<path d="M213.385 60.2732H212.461V64.9941H213.385V60.2732Z" fill="#4F4840"/>
<path d="M214.516 59.9822L213.613 60.1833L214.591 64.7966L215.494 64.5954L214.516 59.9822Z" fill="#4F4840"/>
<path d="M215.876 59.5875L214.996 59.876L216.398 64.3727L217.279 64.0842L215.876 59.5875Z" fill="#4F4840"/>
<path d="M217.051 59.0533L216.215 59.4563L218.174 63.7286L219.01 63.3256L217.051 59.0533Z" fill="#4F4840"/>
<path d="M218.163 58.3555L217.383 58.8635L219.852 62.8482L220.632 62.3402L218.163 58.3555Z" fill="#4F4840"/>
<path d="M219.222 57.4397L218.477 57.9993L221.197 61.8084L221.942 61.2488L219.222 57.4397Z" fill="#4F4840"/>
<path d="M220.2 56.6073L219.502 57.228L222.519 60.7942L223.217 60.1735L220.2 56.6073Z" fill="#4F4840"/>
<path d="M211.277 59.9773L210.299 64.5906L211.202 64.7917L212.18 60.1785L211.277 59.9773Z" fill="#4F4840"/>
<path d="M209.925 59.569L208.521 64.0654L209.402 64.3541L210.805 59.8576L209.925 59.569Z" fill="#4F4840"/>
<path d="M208.756 59.0585L206.797 63.3308L207.633 63.7338L209.592 59.4615L208.756 59.0585Z" fill="#4F4840"/>
<path d="M207.628 58.3509L205.16 62.3369L205.94 62.8445L208.408 58.8585L207.628 58.3509Z" fill="#4F4840"/>
<path d="M206.574 57.4577L203.854 61.2668L204.599 61.8265L207.319 58.0173L206.574 57.4577Z" fill="#4F4840"/>
<path d="M205.603 56.6054L202.586 60.1721L203.284 60.7927L206.301 57.226L205.603 56.6054Z" fill="#4F4840"/>
<path d="M242.757 76.1131C239.876 78.4095 236.374 79.7382 232.729 79.9178C229.336 79.7936 226.276 77.5418 224.17 75.6162C223.75 75.9922 223.299 76.3299 222.822 76.6256C231.366 86.7973 242.135 80.5856 245.589 77.2623C244.598 77.0138 243.645 76.6271 242.757 76.1131Z" fill="#4F4840"/>
<path d="M221.459 77.7438C221.043 77.7465 220.629 77.6837 220.232 77.5575C220.157 77.5269 220.088 77.4811 220.031 77.4228C219.973 77.3645 219.927 77.2949 219.896 77.2182C219.865 77.1414 219.849 77.0591 219.85 76.976C219.85 76.8929 219.867 76.8108 219.899 76.7344C219.96 76.5783 220.078 76.4532 220.229 76.3863C220.379 76.3193 220.549 76.3161 220.702 76.3773C220.808 76.3773 223.322 77.3246 225.413 73.349C225.496 73.21 225.628 73.109 225.781 73.0667C225.935 73.0244 226.098 73.0441 226.238 73.1218C226.378 73.1994 226.483 73.3291 226.533 73.484C226.582 73.639 226.572 73.8074 226.503 73.9547C224.822 77.1693 222.747 77.7438 221.459 77.7438Z" fill="#4F4840"/>
<path d="M290.865 110.977C289.608 105.044 277.141 105.153 271.43 108.833C275.036 107.436 280.822 102.342 276.187 98.8947C273.157 96.674 268.613 98.2736 265.008 102.684C266.973 100.715 268.651 98.4658 269.991 96.0063C272.158 92.5588 272.582 85.9433 267.401 83.1791C263.039 80.8497 256.389 82.7287 253.132 88.3814C250.012 93.8011 250.103 101.364 250.103 101.364C250.103 98.258 249.997 92.3414 244.165 92.8072C238.106 93.3042 239.62 101.271 239.484 105.231C239.484 105.231 239.711 93.6924 233.046 89.4063C231.591 88.3709 229.903 87.7321 228.141 87.55C226.379 87.368 224.6 87.6488 222.973 88.3658C221.127 89.1159 219.622 90.547 218.753 92.3776C217.884 94.2082 217.714 96.3058 218.277 98.258C219.429 102.917 224.14 106.954 224.14 106.954C221.622 105.531 218.973 104.366 216.232 103.476C210.855 102.296 202.16 101.923 198.707 107.001C195.253 112.079 200.221 119.238 210.219 119.549C216.778 119.766 272.597 119.999 279.171 119.999C284.367 120.061 292.122 117.173 290.865 110.977Z" fill="url(#paint1_linear_570_26216)"/>
<path d="M246.769 52.726L237.681 53.2229L237.59 51.4836L243.331 43.1133L237.787 43.4239L237.59 41.4983L245.8 41.0635L245.891 42.7562L240.135 51.1575L246.678 50.8159L246.769 52.726Z" fill="#4F4840"/>
<path d="M248.905 48.238L248.193 46.4211L252.117 44.8682L252.829 46.7627L248.905 48.238Z" fill="#4F4840"/>
<path d="M256.495 48.7194L255.647 47.3062L256.252 40.287L253.041 42.3368L252.178 40.8926L257.525 37.4917L258.388 38.9204L257.782 45.9086L261.6 43.4705L262.478 44.9302L256.495 48.7194Z" fill="#4F4840"/>
<path d="M262.735 40.287L261.221 38.9981L263.917 35.6748L265.432 36.9637L262.735 40.287Z" fill="#4F4840"/>
<path d="M269.627 36.2806L268.112 35.5818L264.931 29.339L263.341 32.8797L261.826 32.1653L264.492 26.3108L266.007 27.0251L269.233 33.2369L271.112 29.0284L272.626 29.7583L269.627 36.2806Z" fill="#4F4840"/>
<path d="M194.874 37.9733L192.027 34.4637L187.604 34.8674L189.982 31.0161L188.24 26.8232L192.542 27.9569L195.889 24.9597L196.177 29.5098L199.994 31.8547L195.859 33.5319L194.874 37.9733Z" fill="#FFB842"/>
<path d="M274.58 57.9283L272.293 53.549L267.461 52.99L270.824 49.4027L269.839 44.5265L274.217 46.7006L278.428 44.2314L277.776 49.1698L281.366 52.5241L276.58 53.4093L274.58 57.9283Z" fill="#FFB842"/>
<path d="M253.95 67.4634L251.723 64.342L247.951 64.4507L250.163 61.3137L248.905 57.6644L252.495 58.8446L255.48 56.4841L255.495 60.3665L258.615 62.5406L255.025 63.7518L253.95 67.4634Z" fill="#FFB842"/>
<path d="M22.016 27.636V36H20.924V27.636H22.016ZM23.4691 32.688C23.4691 32.016 23.6051 31.428 23.8771 30.924C24.1491 30.412 24.5211 30.016 24.9931 29.736C25.4731 29.456 26.0091 29.316 26.6011 29.316C27.1131 29.316 27.5891 29.436 28.0291 29.676C28.4691 29.908 28.8051 30.216 29.0371 30.6V27.12H30.1411V36H29.0371V34.764C28.8211 35.156 28.5011 35.48 28.0771 35.736C27.6531 35.984 27.1571 36.108 26.5891 36.108C26.0051 36.108 25.4731 35.964 24.9931 35.676C24.5211 35.388 24.1491 34.984 23.8771 34.464C23.6051 33.944 23.4691 33.352 23.4691 32.688ZM29.0371 32.7C29.0371 32.204 28.9371 31.772 28.7371 31.404C28.5371 31.036 28.2651 30.756 27.9211 30.564C27.5851 30.364 27.2131 30.264 26.8051 30.264C26.3971 30.264 26.0251 30.36 25.6891 30.552C25.3531 30.744 25.0851 31.024 24.8851 31.392C24.6851 31.76 24.5851 32.192 24.5851 32.688C24.5851 33.192 24.6851 33.632 24.8851 34.008C25.0851 34.376 25.3531 34.66 25.6891 34.86C26.0251 35.052 26.3971 35.148 26.8051 35.148C27.2131 35.148 27.5851 35.052 27.9211 34.86C28.2651 34.66 28.5371 34.376 28.7371 34.008C28.9371 33.632 29.0371 33.196 29.0371 32.7ZM37.9865 32.46C37.9865 32.668 37.9745 32.888 37.9505 33.12H32.6945C32.7345 33.768 32.9545 34.276 33.3545 34.644C33.7625 35.004 34.2545 35.184 34.8305 35.184C35.3025 35.184 35.6945 35.076 36.0065 34.86C36.3265 34.636 36.5505 34.34 36.6785 33.972H37.8545C37.6785 34.604 37.3265 35.12 36.7985 35.52C36.2705 35.912 35.6145 36.108 34.8305 36.108C34.2065 36.108 33.6465 35.968 33.1505 35.688C32.6625 35.408 32.2785 35.012 31.9985 34.5C31.7185 33.98 31.5785 33.38 31.5785 32.7C31.5785 32.02 31.7145 31.424 31.9865 30.912C32.2585 30.4 32.6385 30.008 33.1265 29.736C33.6225 29.456 34.1905 29.316 34.8305 29.316C35.4545 29.316 36.0065 29.452 36.4865 29.724C36.9665 29.996 37.3345 30.372 37.5905 30.852C37.8545 31.324 37.9865 31.86 37.9865 32.46ZM36.8585 32.232C36.8585 31.816 36.7665 31.46 36.5825 31.164C36.3985 30.86 36.1465 30.632 35.8265 30.48C35.5145 30.32 35.1665 30.24 34.7825 30.24C34.2305 30.24 33.7585 30.416 33.3665 30.768C32.9825 31.12 32.7625 31.608 32.7065 32.232H36.8585ZM39.0199 32.688C39.0199 32.016 39.1559 31.428 39.4279 30.924C39.6999 30.412 40.0719 30.016 40.5439 29.736C41.0239 29.456 41.5559 29.316 42.1399 29.316C42.7159 29.316 43.2159 29.44 43.6399 29.688C44.0639 29.936 44.3799 30.248 44.5879 30.624V29.424H45.6919V36H44.5879V34.776C44.3719 35.16 44.0479 35.48 43.6159 35.736C43.1919 35.984 42.6959 36.108 42.1279 36.108C41.5439 36.108 41.0159 35.964 40.5439 35.676C40.0719 35.388 39.6999 34.984 39.4279 34.464C39.1559 33.944 39.0199 33.352 39.0199 32.688ZM44.5879 32.7C44.5879 32.204 44.4879 31.772 44.2879 31.404C44.0879 31.036 43.8159 30.756 43.4719 30.564C43.1359 30.364 42.7639 30.264 42.3559 30.264C41.9479 30.264 41.5759 30.36 41.2399 30.552C40.9039 30.744 40.6359 31.024 40.4359 31.392C40.2359 31.76 40.1359 32.192 40.1359 32.688C40.1359 33.192 40.2359 33.632 40.4359 34.008C40.6359 34.376 40.9039 34.66 41.2399 34.86C41.5759 35.052 41.9479 35.148 42.3559 35.148C42.7639 35.148 43.1359 35.052 43.4719 34.86C43.8159 34.66 44.0879 34.376 44.2879 34.008C44.4879 33.632 44.5879 33.196 44.5879 32.7ZM48.6293 27.12V36H47.5373V27.12H48.6293ZM60.1336 27.636V36H59.0416V32.208H54.7816V36H53.6896V27.636H54.7816V31.308H59.0416V27.636H60.1336ZM64.8662 36.108C64.2502 36.108 63.6902 35.968 63.1862 35.688C62.6902 35.408 62.2982 35.012 62.0102 34.5C61.7302 33.98 61.5902 33.38 61.5902 32.7C61.5902 32.028 61.7342 31.436 62.0222 30.924C62.3182 30.404 62.7182 30.008 63.2222 29.736C63.7262 29.456 64.2902 29.316 64.9142 29.316C65.5382 29.316 66.1022 29.456 66.6062 29.736C67.1102 30.008 67.5062 30.4 67.7942 30.912C68.0902 31.424 68.2382 32.02 68.2382 32.7C68.2382 33.38 68.0862 33.98 67.7822 34.5C67.4862 35.012 67.0822 35.408 66.5702 35.688C66.0582 35.968 65.4902 36.108 64.8662 36.108ZM64.8662 35.148C65.2582 35.148 65.6262 35.056 65.9702 34.872C66.3142 34.688 66.5902 34.412 66.7982 34.044C67.0142 33.676 67.1222 33.228 67.1222 32.7C67.1222 32.172 67.0182 31.724 66.8102 31.356C66.6022 30.988 66.3302 30.716 65.9942 30.54C65.6582 30.356 65.2942 30.264 64.9022 30.264C64.5022 30.264 64.1342 30.356 63.7982 30.54C63.4702 30.716 63.2062 30.988 63.0062 31.356C62.8062 31.724 62.7062 32.172 62.7062 32.7C62.7062 33.236 62.8022 33.688 62.9942 34.056C63.1942 34.424 63.4582 34.7 63.7862 34.884C64.1142 35.06 64.4742 35.148 64.8662 35.148ZM75.506 29.424V36H74.414V35.028C74.206 35.364 73.914 35.628 73.538 35.82C73.17 36.004 72.762 36.096 72.314 36.096C71.802 36.096 71.342 35.992 70.934 35.784C70.526 35.568 70.202 35.248 69.962 34.824C69.73 34.4 69.614 33.884 69.614 33.276V29.424H70.694V33.132C70.694 33.78 70.858 34.28 71.186 34.632C71.514 34.976 71.962 35.148 72.53 35.148C73.114 35.148 73.574 34.968 73.91 34.608C74.246 34.248 74.414 33.724 74.414 33.036V29.424H75.506ZM78.4418 30.492C78.6338 30.116 78.9058 29.824 79.2578 29.616C79.6178 29.408 80.0538 29.304 80.5658 29.304V30.432H80.2778C79.0538 30.432 78.4418 31.096 78.4418 32.424V36H77.3498V29.424H78.4418V30.492ZM84.1543 36.108C83.6503 36.108 83.1983 36.024 82.7983 35.856C82.3983 35.68 82.0823 35.44 81.8503 35.136C81.6183 34.824 81.4903 34.468 81.4663 34.068H82.5943C82.6263 34.396 82.7783 34.664 83.0503 34.872C83.3303 35.08 83.6943 35.184 84.1423 35.184C84.5583 35.184 84.8863 35.092 85.1263 34.908C85.3663 34.724 85.4863 34.492 85.4863 34.212C85.4863 33.924 85.3583 33.712 85.1023 33.576C84.8463 33.432 84.4503 33.292 83.9143 33.156C83.4263 33.028 83.0263 32.9 82.7143 32.772C82.4103 32.636 82.1463 32.44 81.9223 32.184C81.7063 31.92 81.5983 31.576 81.5983 31.152C81.5983 30.816 81.6983 30.508 81.8983 30.228C82.0983 29.948 82.3823 29.728 82.7503 29.568C83.1183 29.4 83.5383 29.316 84.0103 29.316C84.7383 29.316 85.3263 29.5 85.7743 29.868C86.2223 30.236 86.4623 30.74 86.4943 31.38H85.4023C85.3783 31.036 85.2383 30.76 84.9823 30.552C84.7343 30.344 84.3983 30.24 83.9743 30.24C83.5823 30.24 83.2703 30.324 83.0383 30.492C82.8063 30.66 82.6903 30.88 82.6903 31.152C82.6903 31.368 82.7583 31.548 82.8943 31.692C83.0383 31.828 83.2143 31.94 83.4223 32.028C83.6383 32.108 83.9343 32.2 84.3103 32.304C84.7823 32.432 85.1663 32.56 85.4623 32.688C85.7583 32.808 86.0103 32.992 86.2183 33.24C86.4343 33.488 86.5463 33.812 86.5543 34.212C86.5543 34.572 86.4543 34.896 86.2543 35.184C86.0543 35.472 85.7703 35.7 85.4023 35.868C85.0423 36.028 84.6263 36.108 84.1543 36.108ZM93.9711 30.324H92.5911V36H91.4991V30.324H90.6471V29.424H91.4991V28.956C91.4991 28.22 91.6871 27.684 92.0631 27.348C92.4471 27.004 93.0591 26.832 93.8991 26.832V27.744C93.4191 27.744 93.0791 27.84 92.8791 28.032C92.6871 28.216 92.5911 28.524 92.5911 28.956V29.424H93.9711V30.324ZM98.1123 36.108C97.4963 36.108 96.9363 35.968 96.4323 35.688C95.9363 35.408 95.5443 35.012 95.2563 34.5C94.9763 33.98 94.8363 33.38 94.8363 32.7C94.8363 32.028 94.9803 31.436 95.2683 30.924C95.5643 30.404 95.9643 30.008 96.4683 29.736C96.9723 29.456 97.5363 29.316 98.1603 29.316C98.7843 29.316 99.3483 29.456 99.8523 29.736C100.356 30.008 100.752 30.4 101.04 30.912C101.336 31.424 101.484 32.02 101.484 32.7C101.484 33.38 101.332 33.98 101.028 34.5C100.732 35.012 100.328 35.408 99.8163 35.688C99.3043 35.968 98.7363 36.108 98.1123 36.108ZM98.1123 35.148C98.5043 35.148 98.8723 35.056 99.2163 34.872C99.5603 34.688 99.8363 34.412 100.044 34.044C100.26 33.676 100.368 33.228 100.368 32.7C100.368 32.172 100.264 31.724 100.056 31.356C99.8483 30.988 99.5763 30.716 99.2403 30.54C98.9043 30.356 98.5403 30.264 98.1483 30.264C97.7483 30.264 97.3803 30.356 97.0443 30.54C96.7163 30.716 96.4523 30.988 96.2523 31.356C96.0523 31.724 95.9523 32.172 95.9523 32.7C95.9523 33.236 96.0483 33.688 96.2403 34.056C96.4403 34.424 96.7043 34.7 97.0323 34.884C97.3603 35.06 97.7203 35.148 98.1123 35.148ZM104.012 30.492C104.204 30.116 104.476 29.824 104.828 29.616C105.188 29.408 105.624 29.304 106.136 29.304V30.432H105.848C104.624 30.432 104.012 31.096 104.012 32.424V36H102.92V29.424H104.012V30.492ZM113.248 36.084C112.696 36.084 112.2 35.988 111.76 35.796C111.328 35.596 110.988 35.324 110.74 34.98C110.492 34.628 110.364 34.224 110.356 33.768H111.52C111.56 34.16 111.72 34.492 112 34.764C112.288 35.028 112.704 35.16 113.248 35.16C113.768 35.16 114.176 35.032 114.472 34.776C114.776 34.512 114.928 34.176 114.928 33.768C114.928 33.448 114.84 33.188 114.664 32.988C114.488 32.788 114.268 32.636 114.004 32.532C113.74 32.428 113.384 32.316 112.936 32.196C112.384 32.052 111.94 31.908 111.604 31.764C111.276 31.62 110.992 31.396 110.752 31.092C110.52 30.78 110.404 30.364 110.404 29.844C110.404 29.388 110.52 28.984 110.752 28.632C110.984 28.28 111.308 28.008 111.724 27.816C112.148 27.624 112.632 27.528 113.176 27.528C113.96 27.528 114.6 27.724 115.096 28.116C115.6 28.508 115.884 29.028 115.948 29.676H114.748C114.708 29.356 114.54 29.076 114.244 28.836C113.948 28.588 113.556 28.464 113.068 28.464C112.612 28.464 112.24 28.584 111.952 28.824C111.664 29.056 111.52 29.384 111.52 29.808C111.52 30.112 111.604 30.36 111.772 30.552C111.948 30.744 112.16 30.892 112.408 30.996C112.664 31.092 113.02 31.204 113.476 31.332C114.028 31.484 114.472 31.636 114.808 31.788C115.144 31.932 115.432 32.16 115.672 32.472C115.912 32.776 116.032 33.192 116.032 33.72C116.032 34.128 115.924 34.512 115.708 34.872C115.492 35.232 115.172 35.524 114.748 35.748C114.324 35.972 113.824 36.084 113.248 36.084ZM118.731 27.12V36H117.639V27.12H118.731ZM126.592 32.46C126.592 32.668 126.58 32.888 126.556 33.12H121.3C121.34 33.768 121.56 34.276 121.96 34.644C122.368 35.004 122.86 35.184 123.436 35.184C123.908 35.184 124.3 35.076 124.612 34.86C124.932 34.636 125.156 34.34 125.284 33.972H126.46C126.284 34.604 125.932 35.12 125.404 35.52C124.876 35.912 124.22 36.108 123.436 36.108C122.812 36.108 122.252 35.968 121.756 35.688C121.268 35.408 120.884 35.012 120.604 34.5C120.324 33.98 120.184 33.38 120.184 32.7C120.184 32.02 120.32 31.424 120.592 30.912C120.864 30.4 121.244 30.008 121.732 29.736C122.228 29.456 122.796 29.316 123.436 29.316C124.06 29.316 124.612 29.452 125.092 29.724C125.572 29.996 125.94 30.372 126.196 30.852C126.46 31.324 126.592 31.86 126.592 32.46ZM125.464 32.232C125.464 31.816 125.372 31.46 125.188 31.164C125.004 30.86 124.752 30.632 124.432 30.48C124.12 30.32 123.772 30.24 123.388 30.24C122.836 30.24 122.364 30.416 121.972 30.768C121.588 31.12 121.368 31.608 121.312 32.232H125.464ZM134.033 32.46C134.033 32.668 134.021 32.888 133.997 33.12H128.741C128.781 33.768 129.001 34.276 129.401 34.644C129.809 35.004 130.301 35.184 130.877 35.184C131.349 35.184 131.741 35.076 132.053 34.86C132.373 34.636 132.597 34.34 132.725 33.972H133.901C133.725 34.604 133.373 35.12 132.845 35.52C132.317 35.912 131.661 36.108 130.877 36.108C130.253 36.108 129.693 35.968 129.197 35.688C128.709 35.408 128.325 35.012 128.045 34.5C127.765 33.98 127.625 33.38 127.625 32.7C127.625 32.02 127.761 31.424 128.033 30.912C128.305 30.4 128.685 30.008 129.173 29.736C129.669 29.456 130.237 29.316 130.877 29.316C131.501 29.316 132.053 29.452 132.533 29.724C133.013 29.996 133.381 30.372 133.637 30.852C133.901 31.324 134.033 31.86 134.033 32.46ZM132.905 32.232C132.905 31.816 132.813 31.46 132.629 31.164C132.445 30.86 132.193 30.632 131.873 30.48C131.561 30.32 131.213 30.24 130.829 30.24C130.277 30.24 129.805 30.416 129.413 30.768C129.029 31.12 128.809 31.608 128.753 32.232H132.905ZM136.567 30.636C136.783 30.26 137.103 29.948 137.527 29.7C137.959 29.444 138.459 29.316 139.027 29.316C139.611 29.316 140.139 29.456 140.611 29.736C141.091 30.016 141.467 30.412 141.739 30.924C142.011 31.428 142.147 32.016 142.147 32.688C142.147 33.352 142.011 33.944 141.739 34.464C141.467 34.984 141.091 35.388 140.611 35.676C140.139 35.964 139.611 36.108 139.027 36.108C138.467 36.108 137.971 35.984 137.539 35.736C137.115 35.48 136.791 35.164 136.567 34.788V39.12H135.475V29.424H136.567V30.636ZM141.031 32.688C141.031 32.192 140.931 31.76 140.731 31.392C140.531 31.024 140.259 30.744 139.915 30.552C139.579 30.36 139.207 30.264 138.799 30.264C138.399 30.264 138.027 30.364 137.683 30.564C137.347 30.756 137.075 31.04 136.867 31.416C136.667 31.784 136.567 32.212 136.567 32.7C136.567 33.196 136.667 33.632 136.867 34.008C137.075 34.376 137.347 34.66 137.683 34.86C138.027 35.052 138.399 35.148 138.799 35.148C139.207 35.148 139.579 35.052 139.915 34.86C140.259 34.66 140.531 34.376 140.731 34.008C140.931 33.632 141.031 33.192 141.031 32.688Z" fill="#1D1617"/>
<path d="M22.562 55.666C21.5913 55.1807 21.106 54.4153 21.106 53.37C21.106 52.866 21.232 52.404 21.484 51.984C21.736 51.564 22.114 51.2327 22.618 50.99C23.122 50.738 23.738 50.612 24.466 50.612C25.1847 50.612 25.796 50.738 26.3 50.99C26.8133 51.2327 27.196 51.564 27.448 51.984C27.7 52.404 27.826 52.866 27.826 53.37C27.826 53.8927 27.6907 54.3547 27.42 54.756C27.1587 55.148 26.8087 55.4513 26.37 55.666C26.902 55.862 27.322 56.184 27.63 56.632C27.938 57.0707 28.092 57.5887 28.092 58.186C28.092 58.7927 27.938 59.3293 27.63 59.796C27.322 60.2627 26.8927 60.622 26.342 60.874C25.7913 61.126 25.166 61.252 24.466 61.252C23.766 61.252 23.1407 61.126 22.59 60.874C22.0487 60.622 21.624 60.2627 21.316 59.796C21.008 59.3293 20.854 58.7927 20.854 58.186C20.854 57.5793 21.008 57.0567 21.316 56.618C21.624 56.1793 22.0393 55.862 22.562 55.666ZM26.3 53.566C26.3 53.0433 26.1367 52.642 25.81 52.362C25.4833 52.082 25.0353 51.942 24.466 51.942C23.906 51.942 23.4627 52.082 23.136 52.362C22.8093 52.642 22.646 53.048 22.646 53.58C22.646 54.0467 22.814 54.4293 23.15 54.728C23.4953 55.0173 23.934 55.162 24.466 55.162C24.998 55.162 25.4367 55.0127 25.782 54.714C26.1273 54.4153 26.3 54.0327 26.3 53.566ZM24.466 56.366C23.85 56.366 23.346 56.52 22.954 56.828C22.5713 57.1267 22.38 57.5607 22.38 58.13C22.38 58.662 22.5667 59.096 22.94 59.432C23.3133 59.7587 23.822 59.922 24.466 59.922C25.1007 59.922 25.6 59.754 25.964 59.418C26.3373 59.082 26.524 58.6527 26.524 58.13C26.524 57.57 26.3327 57.136 25.95 56.828C25.5767 56.52 25.082 56.366 24.466 56.366ZM33.1157 54.304C33.6117 54.304 34.0597 54.412 34.4597 54.628C34.8597 54.836 35.1717 55.152 35.3957 55.576C35.6277 56 35.7437 56.516 35.7437 57.124V61H34.6637V57.28C34.6637 56.624 34.4997 56.124 34.1717 55.78C33.8437 55.428 33.3957 55.252 32.8277 55.252C32.2517 55.252 31.7917 55.432 31.4477 55.792C31.1117 56.152 30.9437 56.676 30.9437 57.364V61H29.8517V52.12H30.9437V55.36C31.1597 55.024 31.4557 54.764 31.8317 54.58C32.2157 54.396 32.6437 54.304 33.1157 54.304ZM40.3955 61.108C39.7795 61.108 39.2195 60.968 38.7155 60.688C38.2195 60.408 37.8275 60.012 37.5395 59.5C37.2595 58.98 37.1195 58.38 37.1195 57.7C37.1195 57.028 37.2635 56.436 37.5515 55.924C37.8475 55.404 38.2475 55.008 38.7515 54.736C39.2555 54.456 39.8195 54.316 40.4435 54.316C41.0675 54.316 41.6315 54.456 42.1355 54.736C42.6395 55.008 43.0355 55.4 43.3235 55.912C43.6195 56.424 43.7675 57.02 43.7675 57.7C43.7675 58.38 43.6155 58.98 43.3115 59.5C43.0155 60.012 42.6115 60.408 42.0995 60.688C41.5875 60.968 41.0195 61.108 40.3955 61.108ZM40.3955 60.148C40.7875 60.148 41.1555 60.056 41.4995 59.872C41.8435 59.688 42.1195 59.412 42.3275 59.044C42.5435 58.676 42.6515 58.228 42.6515 57.7C42.6515 57.172 42.5475 56.724 42.3395 56.356C42.1315 55.988 41.8595 55.716 41.5235 55.54C41.1875 55.356 40.8235 55.264 40.4315 55.264C40.0315 55.264 39.6635 55.356 39.3275 55.54C38.9995 55.716 38.7355 55.988 38.5355 56.356C38.3355 56.724 38.2355 57.172 38.2355 57.7C38.2355 58.236 38.3315 58.688 38.5235 59.056C38.7235 59.424 38.9875 59.7 39.3155 59.884C39.6435 60.06 40.0035 60.148 40.3955 60.148ZM51.0353 54.424V61H49.9433V60.028C49.7353 60.364 49.4433 60.628 49.0673 60.82C48.6993 61.004 48.2913 61.096 47.8433 61.096C47.3313 61.096 46.8713 60.992 46.4633 60.784C46.0553 60.568 45.7313 60.248 45.4913 59.824C45.2593 59.4 45.1433 58.884 45.1433 58.276V54.424H46.2233V58.132C46.2233 58.78 46.3873 59.28 46.7153 59.632C47.0433 59.976 47.4913 60.148 48.0593 60.148C48.6433 60.148 49.1033 59.968 49.4393 59.608C49.7753 59.248 49.9433 58.724 49.9433 58.036V54.424H51.0353ZM53.9711 55.492C54.1631 55.116 54.4351 54.824 54.7871 54.616C55.1471 54.408 55.5831 54.304 56.0951 54.304V55.432H55.8071C54.5831 55.432 53.9711 56.096 53.9711 57.424V61H52.8791V54.424H53.9711V55.492ZM59.6836 61.108C59.1796 61.108 58.7276 61.024 58.3276 60.856C57.9276 60.68 57.6116 60.44 57.3796 60.136C57.1476 59.824 57.0196 59.468 56.9956 59.068H58.1236C58.1556 59.396 58.3076 59.664 58.5796 59.872C58.8596 60.08 59.2236 60.184 59.6716 60.184C60.0876 60.184 60.4156 60.092 60.6556 59.908C60.8956 59.724 61.0156 59.492 61.0156 59.212C61.0156 58.924 60.8876 58.712 60.6316 58.576C60.3756 58.432 59.9796 58.292 59.4436 58.156C58.9556 58.028 58.5556 57.9 58.2436 57.772C57.9396 57.636 57.6756 57.44 57.4516 57.184C57.2356 56.92 57.1276 56.576 57.1276 56.152C57.1276 55.816 57.2276 55.508 57.4276 55.228C57.6276 54.948 57.9116 54.728 58.2796 54.568C58.6476 54.4 59.0676 54.316 59.5396 54.316C60.2676 54.316 60.8556 54.5 61.3036 54.868C61.7516 55.236 61.9916 55.74 62.0236 56.38H60.9316C60.9076 56.036 60.7676 55.76 60.5116 55.552C60.2636 55.344 59.9276 55.24 59.5036 55.24C59.1116 55.24 58.7996 55.324 58.5676 55.492C58.3356 55.66 58.2196 55.88 58.2196 56.152C58.2196 56.368 58.2876 56.548 58.4236 56.692C58.5676 56.828 58.7436 56.94 58.9516 57.028C59.1676 57.108 59.4636 57.2 59.8396 57.304C60.3116 57.432 60.6956 57.56 60.9916 57.688C61.2876 57.808 61.5396 57.992 61.7476 58.24C61.9636 58.488 62.0756 58.812 62.0836 59.212C62.0836 59.572 61.9836 59.896 61.7836 60.184C61.5836 60.472 61.2996 60.7 60.9316 60.868C60.5716 61.028 60.1556 61.108 59.6836 61.108ZM67.1499 53.314C67.2059 52.446 67.5372 51.7693 68.1439 51.284C68.7599 50.7987 69.5439 50.556 70.4959 50.556C71.1492 50.556 71.7139 50.6727 72.1899 50.906C72.6659 51.1393 73.0252 51.4567 73.2679 51.858C73.5106 52.2593 73.6319 52.712 73.6319 53.216C73.6319 53.7947 73.4779 54.2893 73.1699 54.7C72.8619 55.1107 72.4932 55.386 72.0639 55.526V55.582C72.6146 55.75 73.0439 56.058 73.3519 56.506C73.6599 56.9447 73.8139 57.5093 73.8139 58.2C73.8139 58.7507 73.6879 59.2407 73.4359 59.67C73.1839 60.0993 72.8106 60.44 72.3159 60.692C71.8212 60.9347 71.2286 61.056 70.5379 61.056C69.5299 61.056 68.6992 60.7993 68.0459 60.286C67.4019 59.7633 67.0566 59.0167 67.0099 58.046H68.5499C68.5872 58.5407 68.7786 58.9467 69.1239 59.264C69.4692 59.572 69.9359 59.726 70.5239 59.726C71.0932 59.726 71.5319 59.572 71.8399 59.264C72.1479 58.9467 72.3019 58.5407 72.3019 58.046C72.3019 57.3927 72.0919 56.9307 71.6719 56.66C71.2612 56.38 70.6266 56.24 69.7679 56.24H69.4039V54.924H69.7819C70.5379 54.9147 71.1119 54.7887 71.5039 54.546C71.9052 54.3033 72.1059 53.9207 72.1059 53.398C72.1059 52.95 71.9612 52.5953 71.6719 52.334C71.3826 52.0633 70.9719 51.928 70.4399 51.928C69.9172 51.928 69.5112 52.0633 69.2219 52.334C68.9326 52.5953 68.7599 52.922 68.7039 53.314H67.1499ZM75.4904 55.764C75.4904 54.1493 75.7611 52.8893 76.3024 51.984C76.8531 51.0693 77.7957 50.612 79.1304 50.612C80.4651 50.612 81.4031 51.0693 81.9444 51.984C82.4951 52.8893 82.7704 54.1493 82.7704 55.764C82.7704 57.3973 82.4951 58.676 81.9444 59.6C81.4031 60.5147 80.4651 60.972 79.1304 60.972C77.7957 60.972 76.8531 60.5147 76.3024 59.6C75.7611 58.676 75.4904 57.3973 75.4904 55.764ZM81.2024 55.764C81.2024 55.008 81.1511 54.3687 81.0484 53.846C80.9551 53.3233 80.7591 52.8987 80.4604 52.572C80.1617 52.236 79.7184 52.068 79.1304 52.068C78.5424 52.068 78.0991 52.236 77.8004 52.572C77.5017 52.8987 77.3011 53.3233 77.1984 53.846C77.1051 54.3687 77.0584 55.008 77.0584 55.764C77.0584 56.548 77.1051 57.206 77.1984 57.738C77.2917 58.27 77.4877 58.6993 77.7864 59.026C78.0944 59.3527 78.5424 59.516 79.1304 59.516C79.7184 59.516 80.1617 59.3527 80.4604 59.026C80.7684 58.6993 80.9691 58.27 81.0624 57.738C81.1557 57.206 81.2024 56.548 81.2024 55.764ZM92.4511 54.304C92.9631 54.304 93.4191 54.412 93.8191 54.628C94.2191 54.836 94.5351 55.152 94.7671 55.576C94.9991 56 95.1151 56.516 95.1151 57.124V61H94.0351V57.28C94.0351 56.624 93.8711 56.124 93.5431 55.78C93.2231 55.428 92.7871 55.252 92.2351 55.252C91.6671 55.252 91.2151 55.436 90.8791 55.804C90.5431 56.164 90.3751 56.688 90.3751 57.376V61H89.2951V57.28C89.2951 56.624 89.1311 56.124 88.8031 55.78C88.4831 55.428 88.0471 55.252 87.4951 55.252C86.9271 55.252 86.4751 55.436 86.1391 55.804C85.8031 56.164 85.6351 56.688 85.6351 57.376V61H84.5431V54.424H85.6351V55.372C85.8511 55.028 86.1391 54.764 86.4991 54.58C86.8671 54.396 87.2711 54.304 87.7111 54.304C88.2631 54.304 88.7511 54.428 89.1751 54.676C89.5991 54.924 89.9151 55.288 90.1231 55.768C90.3071 55.304 90.6111 54.944 91.0351 54.688C91.4591 54.432 91.9311 54.304 92.4511 54.304ZM97.4704 53.356C97.2624 53.356 97.0864 53.284 96.9424 53.14C96.7984 52.996 96.7264 52.82 96.7264 52.612C96.7264 52.404 96.7984 52.228 96.9424 52.084C97.0864 51.94 97.2624 51.868 97.4704 51.868C97.6704 51.868 97.8384 51.94 97.9744 52.084C98.1184 52.228 98.1904 52.404 98.1904 52.612C98.1904 52.82 98.1184 52.996 97.9744 53.14C97.8384 53.284 97.6704 53.356 97.4704 53.356ZM97.9984 54.424V61H96.9064V54.424H97.9984ZM103.064 54.304C103.864 54.304 104.512 54.548 105.008 55.036C105.504 55.516 105.752 56.212 105.752 57.124V61H104.672V57.28C104.672 56.624 104.508 56.124 104.18 55.78C103.852 55.428 103.404 55.252 102.836 55.252C102.26 55.252 101.8 55.432 101.456 55.792C101.12 56.152 100.952 56.676 100.952 57.364V61H99.8595V54.424H100.952V55.36C101.168 55.024 101.46 54.764 101.828 54.58C102.204 54.396 102.616 54.304 103.064 54.304ZM113.367 54.424V61H112.275V60.028C112.067 60.364 111.775 60.628 111.399 60.82C111.031 61.004 110.623 61.096 110.175 61.096C109.663 61.096 109.203 60.992 108.795 60.784C108.387 60.568 108.063 60.248 107.823 59.824C107.591 59.4 107.475 58.884 107.475 58.276V54.424H108.555V58.132C108.555 58.78 108.719 59.28 109.047 59.632C109.375 59.976 109.823 60.148 110.391 60.148C110.975 60.148 111.435 59.968 111.771 59.608C112.107 59.248 112.275 58.724 112.275 58.036V54.424H113.367ZM116.543 55.324V59.2C116.543 59.52 116.611 59.748 116.747 59.884C116.883 60.012 117.119 60.076 117.455 60.076H118.259V61H117.275C116.667 61 116.211 60.86 115.907 60.58C115.603 60.3 115.451 59.84 115.451 59.2V55.324H114.599V54.424H115.451V52.768H116.543V54.424H118.259V55.324H116.543ZM125.582 57.46C125.582 57.668 125.57 57.888 125.546 58.12H120.29C120.33 58.768 120.55 59.276 120.95 59.644C121.358 60.004 121.85 60.184 122.426 60.184C122.898 60.184 123.29 60.076 123.602 59.86C123.922 59.636 124.146 59.34 124.274 58.972H125.45C125.274 59.604 124.922 60.12 124.394 60.52C123.866 60.912 123.21 61.108 122.426 61.108C121.802 61.108 121.242 60.968 120.746 60.688C120.258 60.408 119.874 60.012 119.594 59.5C119.314 58.98 119.174 58.38 119.174 57.7C119.174 57.02 119.31 56.424 119.582 55.912C119.854 55.4 120.234 55.008 120.722 54.736C121.218 54.456 121.786 54.316 122.426 54.316C123.05 54.316 123.602 54.452 124.082 54.724C124.562 54.996 124.93 55.372 125.186 55.852C125.45 56.324 125.582 56.86 125.582 57.46ZM124.454 57.232C124.454 56.816 124.362 56.46 124.178 56.164C123.994 55.86 123.742 55.632 123.422 55.48C123.11 55.32 122.762 55.24 122.378 55.24C121.826 55.24 121.354 55.416 120.962 55.768C120.578 56.12 120.358 56.608 120.302 57.232H124.454ZM129.352 61.108C128.848 61.108 128.396 61.024 127.996 60.856C127.596 60.68 127.28 60.44 127.048 60.136C126.816 59.824 126.688 59.468 126.664 59.068H127.792C127.824 59.396 127.976 59.664 128.248 59.872C128.528 60.08 128.892 60.184 129.34 60.184C129.756 60.184 130.084 60.092 130.324 59.908C130.564 59.724 130.684 59.492 130.684 59.212C130.684 58.924 130.556 58.712 130.3 58.576C130.044 58.432 129.648 58.292 129.112 58.156C128.624 58.028 128.224 57.9 127.912 57.772C127.608 57.636 127.344 57.44 127.12 57.184C126.904 56.92 126.796 56.576 126.796 56.152C126.796 55.816 126.896 55.508 127.096 55.228C127.296 54.948 127.58 54.728 127.948 54.568C128.316 54.4 128.736 54.316 129.208 54.316C129.936 54.316 130.524 54.5 130.972 54.868C131.42 55.236 131.66 55.74 131.692 56.38H130.6C130.576 56.036 130.436 55.76 130.18 55.552C129.932 55.344 129.596 55.24 129.172 55.24C128.78 55.24 128.468 55.324 128.236 55.492C128.004 55.66 127.888 55.88 127.888 56.152C127.888 56.368 127.956 56.548 128.092 56.692C128.236 56.828 128.412 56.94 128.62 57.028C128.836 57.108 129.132 57.2 129.508 57.304C129.98 57.432 130.364 57.56 130.66 57.688C130.956 57.808 131.208 57.992 131.416 58.24C131.632 58.488 131.744 58.812 131.752 59.212C131.752 59.572 131.652 59.896 131.452 60.184C131.252 60.472 130.968 60.7 130.6 60.868C130.24 61.028 129.824 61.108 129.352 61.108Z" fill="#045B62"/>
<rect x="20" y="82" width="95" height="35" rx="17.5" fill="#045B62"/>
<path d="M41.09 101.89H43.39V103H39.69V96.02H41.09V101.89ZM49.4298 100.11C49.4298 100.31 49.4165 100.49 49.3898 100.65H45.3398C45.3732 101.05 45.5132 101.363 45.7598 101.59C46.0065 101.817 46.3098 101.93 46.6698 101.93C47.1898 101.93 47.5598 101.707 47.7798 101.26H49.2898C49.1298 101.793 48.8232 102.233 48.3698 102.58C47.9165 102.92 47.3598 103.09 46.6998 103.09C46.1665 103.09 45.6865 102.973 45.2598 102.74C44.8398 102.5 44.5098 102.163 44.2698 101.73C44.0365 101.297 43.9198 100.797 43.9198 100.23C43.9198 99.6567 44.0365 99.1533 44.2698 98.72C44.5032 98.2867 44.8298 97.9533 45.2498 97.72C45.6698 97.4867 46.1532 97.37 46.6998 97.37C47.2265 97.37 47.6965 97.4833 48.1098 97.71C48.5298 97.9367 48.8532 98.26 49.0798 98.68C49.3132 99.0933 49.4298 99.57 49.4298 100.11ZM47.9798 99.71C47.9732 99.35 47.8432 99.0633 47.5898 98.85C47.3365 98.63 47.0265 98.52 46.6598 98.52C46.3132 98.52 46.0198 98.6267 45.7798 98.84C45.5465 99.0467 45.4032 99.3367 45.3498 99.71H47.9798ZM50.0917 100.21C50.0917 99.65 50.2017 99.1533 50.4217 98.72C50.6484 98.2867 50.9517 97.9533 51.3317 97.72C51.7184 97.4867 52.1484 97.37 52.6217 97.37C53.0351 97.37 53.3951 97.4533 53.7017 97.62C54.0151 97.7867 54.2651 97.9967 54.4517 98.25V97.46H55.8617V103H54.4517V102.19C54.2717 102.45 54.0217 102.667 53.7017 102.84C53.3884 103.007 53.0251 103.09 52.6117 103.09C52.1451 103.09 51.7184 102.97 51.3317 102.73C50.9517 102.49 50.6484 102.153 50.4217 101.72C50.2017 101.28 50.0917 100.777 50.0917 100.21ZM54.4517 100.23C54.4517 99.89 54.3851 99.6 54.2517 99.36C54.1184 99.1133 53.9384 98.9267 53.7117 98.8C53.4851 98.6667 53.2417 98.6 52.9817 98.6C52.7217 98.6 52.4817 98.6633 52.2617 98.79C52.0417 98.9167 51.8617 99.1033 51.7217 99.35C51.5884 99.59 51.5217 99.8767 51.5217 100.21C51.5217 100.543 51.5884 100.837 51.7217 101.09C51.8617 101.337 52.0417 101.527 52.2617 101.66C52.4884 101.793 52.7284 101.86 52.9817 101.86C53.2417 101.86 53.4851 101.797 53.7117 101.67C53.9384 101.537 54.1184 101.35 54.2517 101.11C54.3851 100.863 54.4517 100.57 54.4517 100.23ZM58.6291 98.32C58.8091 98.0267 59.0424 97.7967 59.3291 97.63C59.6224 97.4633 59.9557 97.38 60.3291 97.38V98.85H59.9591C59.5191 98.85 59.1857 98.9533 58.9591 99.16C58.7391 99.3667 58.6291 99.7267 58.6291 100.24V103H57.2291V97.46H58.6291V98.32ZM64.342 97.38C65.002 97.38 65.5354 97.59 65.942 98.01C66.3487 98.4233 66.552 99.0033 66.552 99.75V103H65.152V99.94C65.152 99.5 65.042 99.1633 64.822 98.93C64.602 98.69 64.302 98.57 63.922 98.57C63.5354 98.57 63.2287 98.69 63.002 98.93C62.782 99.1633 62.672 99.5 62.672 99.94V103H61.272V97.46H62.672V98.15C62.8587 97.91 63.0954 97.7233 63.382 97.59C63.6754 97.45 63.9954 97.38 64.342 97.38ZM77.8762 96.02V103H76.4762V98.46L74.6062 103H73.5462L71.6662 98.46V103H70.2662V96.02H71.8562L74.0762 101.21L76.2962 96.02H77.8762ZM81.7203 103.09C81.187 103.09 80.707 102.973 80.2803 102.74C79.8536 102.5 79.517 102.163 79.2703 101.73C79.0303 101.297 78.9103 100.797 78.9103 100.23C78.9103 99.6633 79.0336 99.1633 79.2803 98.73C79.5336 98.2967 79.877 97.9633 80.3103 97.73C80.7436 97.49 81.227 97.37 81.7603 97.37C82.2936 97.37 82.777 97.49 83.2103 97.73C83.6436 97.9633 83.9836 98.2967 84.2303 98.73C84.4836 99.1633 84.6103 99.6633 84.6103 100.23C84.6103 100.797 84.4803 101.297 84.2203 101.73C83.967 102.163 83.6203 102.5 83.1803 102.74C82.747 102.973 82.2603 103.09 81.7203 103.09ZM81.7203 101.87C81.9736 101.87 82.2103 101.81 82.4303 101.69C82.657 101.563 82.837 101.377 82.9703 101.13C83.1036 100.883 83.1703 100.583 83.1703 100.23C83.1703 99.7033 83.0303 99.3 82.7503 99.02C82.477 98.7333 82.1403 98.59 81.7403 98.59C81.3403 98.59 81.0036 98.7333 80.7303 99.02C80.4636 99.3 80.3303 99.7033 80.3303 100.23C80.3303 100.757 80.4603 101.163 80.7203 101.45C80.987 101.73 81.3203 101.87 81.7203 101.87ZM87.0373 98.32C87.2173 98.0267 87.4506 97.7967 87.7373 97.63C88.0306 97.4633 88.3639 97.38 88.7373 97.38V98.85H88.3673C87.9273 98.85 87.5939 98.9533 87.3673 99.16C87.1473 99.3667 87.0373 99.7267 87.0373 100.24V103H85.6373V97.46H87.0373V98.32ZM94.8302 100.11C94.8302 100.31 94.8169 100.49 94.7902 100.65H90.7402C90.7736 101.05 90.9136 101.363 91.1602 101.59C91.4069 101.817 91.7102 101.93 92.0702 101.93C92.5902 101.93 92.9602 101.707 93.1802 101.26H94.6902C94.5302 101.793 94.2236 102.233 93.7702 102.58C93.3169 102.92 92.7602 103.09 92.1002 103.09C91.5669 103.09 91.0869 102.973 90.6602 102.74C90.2402 102.5 89.9102 102.163 89.6702 101.73C89.4369 101.297 89.3202 100.797 89.3202 100.23C89.3202 99.6567 89.4369 99.1533 89.6702 98.72C89.9036 98.2867 90.2302 97.9533 90.6502 97.72C91.0702 97.4867 91.5536 97.37 92.1002 97.37C92.6269 97.37 93.0969 97.4833 93.5102 97.71C93.9302 97.9367 94.2536 98.26 94.4802 98.68C94.7136 99.0933 94.8302 99.57 94.8302 100.11ZM93.3802 99.71C93.3736 99.35 93.2436 99.0633 92.9902 98.85C92.7369 98.63 92.4269 98.52 92.0602 98.52C91.7136 98.52 91.4202 98.6267 91.1802 98.84C90.9469 99.0467 90.8036 99.3367 90.7502 99.71H93.3802Z" fill="white"/>
<defs>
<linearGradient id="paint0_linear_570_26216" x1="242.389" y1="53.4018" x2="183.154" y2="47.2741" gradientUnits="userSpaceOnUse">
<stop stop-color="#C58BF2"/>
<stop offset="1" stop-color="#EEA4CE"/>
</linearGradient>
<linearGradient id="paint1_linear_570_26216" x1="291.001" y1="120" x2="170.205" y2="96.9054" gradientUnits="userSpaceOnUse">
<stop stop-color="#C58BF2"/>
<stop offset="1" stop-color="#EEA4CE"/>
</linearGradient>
</defs>
</svg>
